<?xml version="1.0" encoding="utf-8"?>
<!-- Generator: Adobe Illustrator 16.0.0, SVG Export Plug-In . SVG Version: 6.00 Build 0)  -->
<!DOCTYPE svg PUBLIC "-//W3C//DTD SVG 1.1//EN" "http://www.w3.org/Graphics/SVG/1.1/DTD/svg11.dtd">
<svg version="1.1" id="Layer_1" xmlns="http://www.w3.org/2000/svg" xmlns:xlink="http://www.w3.org/1999/xlink" x="0px" y="0px"
	 width="80px" height="81px" viewBox="460 459.5 80 81" enable-background="new 460 459.5 80 81" xml:space="preserve">
<g>
	<g>
		<path fill="#06AEEE" d="M505.479,497.914c0.235,0.467,0.705,0.737,1.19,0.737c0.202,0,0.41-0.047,0.604-0.147
			c0.079-0.041,7.927-4.077,11.798-5.315c0.701-0.226,1.091-0.984,0.868-1.694c-0.222-0.71-0.966-1.105-1.674-0.881
			c-4.077,1.306-11.872,5.315-12.202,5.485C505.406,496.436,505.145,497.249,505.479,497.914z"/>
		<path fill="#06AEEE" d="M506.669,482.451c0.202,0,0.41-0.047,0.604-0.147c0.079-0.041,7.927-4.077,11.798-5.315
			c0.701-0.226,1.091-0.984,0.868-1.694c-0.222-0.71-0.966-1.105-1.674-0.881c-4.077,1.306-11.872,5.315-12.202,5.485
			c-0.656,0.338-0.918,1.15-0.584,1.816C505.714,482.181,506.184,482.451,506.669,482.451z"/>
		<path fill="#13335B" d="M538.668,479.751c-0.738,0-1.334,0.604-1.334,1.35v52.65c0,2.232-1.795,4.05-4,4.05h-32v-3.106
			c1.944-0.688,7.008-2.294,12-2.294c11.615,0,19.502,2.604,19.58,2.632c0.401,0.135,0.85,0.067,1.2-0.187
			c0.348-0.254,0.554-0.662,0.554-1.095v-59.399c0-0.633-0.434-1.182-1.045-1.318c0,0-1.045-0.236-2.832-0.568
			c-0.721-0.135-1.418,0.351-1.552,1.083c-0.133,0.734,0.346,1.438,1.069,1.573c0.682,0.127,1.252,0.239,1.692,0.328v56.508
			c-3.021-0.803-9.73-2.256-18.667-2.256c-5.81,0-11.516,1.932-13.281,2.586c-1.569-0.701-6.313-2.586-12.052-2.586
			c-9.184,0-16.75,1.533-20,2.313v-56.618c2.663-0.663,10.526-2.395,20-2.395c4.861,0,9.03,1.532,10.667,2.225v53.125
			c0,0.486,0.259,0.936,0.676,1.175c0.417,0.24,0.932,0.233,1.344-0.018c0.132-0.08,13.343-8.069,25.068-12.025
			c0.545-0.186,0.911-0.699,0.911-1.281v-55.35c0-0.443-0.214-0.857-0.574-1.11c-0.357-0.252-0.816-0.311-1.228-0.155
			c-10.668,4.051-21.463,10.852-21.571,10.92c-0.624,0.396-0.814,1.229-0.424,1.86c0.39,0.632,1.212,0.825,1.837,0.429
			c0.099-0.063,9.49-5.979,19.294-9.971v52.409c-9.102,3.202-18.604,8.431-22.667,10.771v-51.654c0-0.512-0.285-0.979-0.737-1.208
			c-0.229-0.115-5.693-2.841-12.596-2.841c-12.048,0-21.311,2.639-21.7,2.752c-0.572,0.165-0.967,0.695-0.967,1.297v59.399
			c0,0.423,0.197,0.822,0.529,1.077c0.235,0.18,0.518,0.272,0.804,0.272c0.123,0,0.246-0.018,0.365-0.053
			c0.092-0.025,9.312-2.646,20.968-2.646c4.875,0,9.04,1.536,10.667,2.226v3.174h-32c-2.205,0-4-1.817-4-4.05v-52.649
			c0-0.745-0.597-1.35-1.333-1.35c-0.736,0-1.333,0.605-1.333,1.35v52.649c0,3.722,2.991,6.75,6.667,6.75h66.667
			c3.676,0,6.667-3.028,6.667-6.75v-52.649C540.001,480.356,539.405,479.751,538.668,479.751z"/>
		<path fill="#06AEEE" d="M505.479,489.814c0.235,0.467,0.705,0.737,1.19,0.737c0.202,0,0.41-0.047,0.604-0.147
			c0.079-0.041,7.927-4.077,11.798-5.315c0.701-0.225,1.091-0.984,0.868-1.694c-0.222-0.71-0.966-1.106-1.674-0.882
			c-4.077,1.306-11.872,5.315-12.202,5.485C505.406,488.336,505.145,489.148,505.479,489.814z"/>
		<path fill="#06AEEE" d="M505.479,506.014c0.235,0.468,0.705,0.737,1.19,0.737c0.202,0,0.41-0.047,0.604-0.147
			c0.079-0.04,7.927-4.076,11.798-5.314c0.701-0.226,1.091-0.984,0.868-1.694c-0.222-0.71-0.966-1.105-1.674-0.881
			c-4.077,1.305-11.872,5.315-12.202,5.485C505.406,504.536,505.145,505.349,505.479,506.014z"/>
		<path fill="#06AEEE" d="M492.305,484.555c-8.233-1.956-17.589,0.536-17.983,0.643c-0.71,0.193-1.133,0.933-0.942,1.654
			c0.16,0.603,0.698,1,1.287,1c0.115,0,0.23-0.015,0.347-0.046c0.089-0.025,9.097-2.424,16.684-0.622
			c0.713,0.168,1.435-0.281,1.603-1.007C493.468,485.451,493.022,484.725,492.305,484.555z"/>
		<path fill="#06AEEE" d="M492.305,492.655c-8.233-1.955-17.589,0.536-17.983,0.643c-0.71,0.193-1.133,0.933-0.942,1.653
			c0.16,0.604,0.698,1,1.287,1c0.115,0,0.23-0.015,0.347-0.046c0.089-0.025,9.097-2.424,16.684-0.623
			c0.713,0.169,1.435-0.281,1.603-1.007C493.468,493.551,493.022,492.825,492.305,492.655z"/>
		<path fill="#06AEEE" d="M505.479,514.114c0.235,0.467,0.705,0.736,1.19,0.736c0.202,0,0.41-0.047,0.604-0.146
			c0.079-0.041,7.927-4.077,11.798-5.315c0.701-0.226,1.091-0.984,0.868-1.694c-0.222-0.71-0.966-1.105-1.674-0.881
			c-4.077,1.305-11.872,5.314-12.202,5.484C505.406,512.636,505.145,513.448,505.479,514.114z"/>
		<path fill="#06AEEE" d="M492.305,500.755c-8.233-1.955-17.589,0.534-17.983,0.643c-0.71,0.192-1.133,0.933-0.942,1.653
			c0.16,0.604,0.698,1.002,1.287,1.002c0.115,0,0.23-0.017,0.347-0.048c0.089-0.025,9.097-2.424,16.684-0.622
			c0.713,0.169,1.435-0.28,1.603-1.007C493.468,501.65,493.022,500.925,492.305,500.755z"/>
		<path fill="#06AEEE" d="M492.305,516.954c-8.233-1.956-17.589,0.536-17.983,0.643c-0.71,0.193-1.133,0.934-0.942,1.654
			c0.16,0.603,0.698,1.001,1.287,1.001c0.115,0,0.23-0.016,0.347-0.047c0.089-0.025,9.097-2.425,16.684-0.622
			c0.713,0.167,1.435-0.281,1.603-1.008C493.468,517.851,493.022,517.124,492.305,516.954z"/>
		<path fill="#06AEEE" d="M492.305,508.854c-8.233-1.956-17.589,0.534-17.983,0.643c-0.71,0.193-1.133,0.933-0.942,1.653
			c0.16,0.604,0.698,1.002,1.287,1.002c0.115,0,0.23-0.016,0.347-0.047c0.089-0.026,9.097-2.425,16.684-0.623
			c0.713,0.169,1.435-0.28,1.603-1.007C493.468,509.751,493.022,509.024,492.305,508.854z"/>
	</g>
</g>
</svg>
