<?xml version="1.0" encoding="utf-8"?>
<!-- Generator: Adobe Illustrator 16.0.0, SVG Export Plug-In . SVG Version: 6.00 Build 0)  -->
<!DOCTYPE svg PUBLIC "-//W3C//DTD SVG 1.1//EN" "http://www.w3.org/Graphics/SVG/1.1/DTD/svg11.dtd">
<svg version="1.1" id="Layer_1" xmlns="http://www.w3.org/2000/svg" xmlns:xlink="http://www.w3.org/1999/xlink" x="0px" y="0px"
	 width="85px" height="93px" viewBox="457.5 453.5 85 93" enable-background="new 457.5 453.5 85 93" xml:space="preserve">
<g>
	<g>
		<g>
			<path fill="#13335B" d="M536.278,469h-10.057c-2.531-8.932-10.72-15.5-20.426-15.5c-9.707,0-17.896,6.568-20.427,15.5h-12.576
				l-0.631-2.168c-0.955-3.287-4.005-5.582-7.417-5.582h-5.313c-1.067,0-1.932,0.867-1.932,1.938s0.864,1.938,1.932,1.938h5.313
				c1.708,0,3.232,1.146,3.709,2.791l12.025,41.348l-6.162,7.724c-0.879,1.103-1.362,2.486-1.362,3.897
				c0,3.441,2.79,6.24,6.222,6.24h53.665c1.067,0,1.932-0.866,1.932-1.938s-0.864-1.938-1.932-1.938h-53.665
				c-1.3,0-2.358-1.062-2.358-2.365c0-0.535,0.183-1.062,0.517-1.478l6.208-7.782h37.891c2.979,0,5.724-1.746,6.994-4.45
				l13.48-28.731c0.387-0.827,0.591-1.745,0.591-2.655v-0.548C542.5,471.798,539.71,469,536.278,469z M505.796,457.375
				c9.587,0,17.386,7.822,17.386,17.438c0,9.615-7.799,17.438-17.386,17.438c-9.588,0-17.387-7.822-17.387-17.438
				C488.409,465.197,496.208,457.375,505.796,457.375z M538.637,475.789c0,0.346-0.078,0.695-0.225,1.007l-13.479,28.73
				c-0.636,1.351-2.008,2.225-3.498,2.225h-37.372l-10.143-34.875h10.724c-0.058,0.639-0.098,1.284-0.098,1.938
				c0,11.752,9.533,21.313,21.25,21.313c11.717,0,21.249-9.561,21.249-21.313c0-0.654-0.04-1.298-0.098-1.938h9.331
				c1.3,0,2.358,1.062,2.358,2.365V475.789L538.637,475.789z"/>
			<path fill="#06AEEE" d="M480.682,531c-4.262,0-7.727,3.476-7.727,7.75s3.465,7.75,7.727,7.75s7.728-3.476,7.728-7.75
				S484.944,531,480.682,531z M480.682,542.625c-2.13,0-3.863-1.739-3.863-3.875s1.733-3.875,3.863-3.875s3.864,1.739,3.864,3.875
				S482.812,542.625,480.682,542.625z"/>
			<path fill="#06AEEE" d="M527.045,531c-4.261,0-7.727,3.476-7.727,7.75s3.466,7.75,7.727,7.75c4.262,0,7.728-3.476,7.728-7.75
				S531.308,531,527.045,531z M527.045,542.625c-2.129,0-3.863-1.739-3.863-3.875s1.734-3.875,3.863-3.875
				c2.13,0,3.864,1.739,3.864,3.875S529.176,542.625,527.045,542.625z"/>
			<path fill="#06AEEE" d="M504.43,486.041c0.377,0.378,0.871,0.567,1.366,0.567c0.494,0,0.988-0.189,1.365-0.567l7.728-7.75
				c0.755-0.757,0.755-1.983,0-2.74c-0.755-0.757-1.978-0.757-2.731,0l-4.43,4.442V464.21c0-1.071-0.864-1.938-1.932-1.938
				c-1.068,0-1.933,0.867-1.933,1.938v15.783l-4.429-4.442c-0.754-0.757-1.977-0.757-2.731,0c-0.755,0.757-0.755,1.983,0,2.74
				L504.43,486.041z"/>
		</g>
	</g>
</g>
</svg>
