<?xml version="1.0" encoding="utf-8"?>
<!-- Generator: Adobe Illustrator 16.0.0, SVG Export Plug-In . SVG Version: 6.00 Build 0)  -->
<!DOCTYPE svg PUBLIC "-//W3C//DTD SVG 1.1//EN" "http://www.w3.org/Graphics/SVG/1.1/DTD/svg11.dtd">
<svg version="1.1" id="Layer_1" xmlns="http://www.w3.org/2000/svg" xmlns:xlink="http://www.w3.org/1999/xlink" x="0px" y="0px"
	 width="56px" height="81px" viewBox="472 459.5 56 81" enable-background="new 472 459.5 56 81" xml:space="preserve">
<g>
	<g>
		<g>
			<path fill="#13335B" d="M522.734,459.5h-45.469c-2.903,0-5.266,2.39-5.266,5.327v70.346c0,2.938,2.362,5.327,5.266,5.327h45.469
				c2.903,0,5.266-2.39,5.266-5.327v-70.346C528,461.89,525.638,459.5,522.734,459.5z M525.492,535.173
				c0,1.539-1.237,2.791-2.758,2.791h-45.469c-1.521,0-2.758-1.252-2.758-2.791v-70.346c0-1.539,1.237-2.79,2.758-2.79h45.469
				c1.521,0,2.758,1.251,2.758,2.79V535.173L525.492,535.173z"/>
		</g>
	</g>
	<g>
		<g>
			<path fill="#13335B" d="M521.396,464.911h-42.793c-0.692,0-1.254,0.568-1.254,1.269v59.523c0,0.701,0.562,1.269,1.254,1.269
				h42.794c0.692,0,1.253-0.567,1.253-1.269V466.18C522.65,465.479,522.09,464.911,521.396,464.911z M520.144,524.436h-40.287
				v-56.988h40.287V524.436L520.144,524.436z"/>
		</g>
	</g>
	<g>
		<g>
			<path fill="#06AEEE" d="M500,528.494c-2.166,0-3.928,1.782-3.928,3.974s1.762,3.974,3.928,3.974s3.929-1.782,3.929-3.974
				S502.166,528.494,500,528.494z M500,533.905c-0.784,0-1.421-0.646-1.421-1.438c0-0.793,0.637-1.438,1.421-1.438
				c0.783,0,1.421,0.645,1.421,1.438C501.421,533.26,500.783,533.905,500,533.905z"/>
		</g>
	</g>
	<g>
		<g>
			<path fill="#13335B" d="M514.711,488.087H500c-0.692,0-1.254,0.568-1.254,1.269c0,0.7,0.562,1.268,1.254,1.268h14.711
				c0.691,0,1.253-0.568,1.253-1.268C515.964,488.655,515.402,488.087,514.711,488.087z"/>
		</g>
	</g>
	<g>
		<g>
			<path fill="#13335B" d="M514.711,482.676h-4.013c-0.692,0-1.253,0.568-1.253,1.268c0,0.701,0.561,1.269,1.253,1.269h4.013
				c0.691,0,1.253-0.568,1.253-1.269C515.964,483.244,515.402,482.676,514.711,482.676z"/>
		</g>
	</g>
	<g>
		<g>
			<path fill="#13335B" d="M514.711,477.264H500c-0.692,0-1.254,0.568-1.254,1.269s0.562,1.268,1.254,1.268h14.711
				c0.691,0,1.253-0.567,1.253-1.268S515.402,477.264,514.711,477.264z"/>
		</g>
	</g>
	<g>
		<g>
			<path fill="#13335B" d="M505.35,482.676H500c-0.692,0-1.254,0.568-1.254,1.268c0,0.701,0.562,1.269,1.254,1.269h5.35
				c0.692,0,1.254-0.568,1.254-1.269C506.604,483.244,506.042,482.676,505.35,482.676z"/>
		</g>
	</g>
	<g>
		<g>
			<path fill="#13335B" d="M498.663,499.461H485.29c-0.692,0-1.253,0.567-1.253,1.268c0,0.701,0.561,1.269,1.253,1.269h13.373
				c0.692,0,1.254-0.567,1.254-1.269C499.917,500.028,499.355,499.461,498.663,499.461z"/>
		</g>
	</g>
	<g>
		<g>
			<path fill="#13335B" d="M502.675,494.049H485.29c-0.692,0-1.254,0.568-1.254,1.269s0.562,1.268,1.254,1.268h17.385
				c0.692,0,1.254-0.567,1.254-1.268S503.367,494.049,502.675,494.049z"/>
		</g>
	</g>
	<g>
		<g>
			<path fill="#13335B" d="M514.711,494.049h-6.688c-0.691,0-1.253,0.568-1.253,1.269s0.561,1.268,1.253,1.268h6.688
				c0.691,0,1.253-0.567,1.253-1.268S515.402,494.049,514.711,494.049z"/>
		</g>
	</g>
	<g>
		<g>
			<path fill="#13335B" d="M493.313,512.989h-8.024c-0.692,0-1.254,0.567-1.254,1.268c0,0.701,0.562,1.269,1.254,1.269h8.024
				c0.692,0,1.254-0.567,1.254-1.269C494.567,513.557,494.006,512.989,493.313,512.989z"/>
		</g>
	</g>
	<g>
		<g>
			<path fill="#13335B" d="M502.675,507.577H485.29c-0.692,0-1.254,0.568-1.254,1.269c0,0.701,0.562,1.269,1.254,1.269h17.385
				c0.692,0,1.254-0.567,1.254-1.269C503.929,508.146,503.367,507.577,502.675,507.577z"/>
		</g>
	</g>
	<g>
		<g>
			<path fill="#13335B" d="M514.711,507.577h-6.688c-0.691,0-1.253,0.568-1.253,1.269c0,0.701,0.561,1.269,1.253,1.269h6.688
				c0.691,0,1.253-0.567,1.253-1.269C515.964,508.146,515.402,507.577,514.711,507.577z"/>
		</g>
	</g>
	<g>
		<g>
			<path fill="#06AEEE" d="M495.867,489.047l-2.421-9.798c-0.289-1.168-1.323-1.985-2.514-1.985h-1.924
				c-1.191,0-2.225,0.817-2.514,1.986l-2.421,9.798c-0.168,0.679,0.241,1.368,0.912,1.538s1.353-0.243,1.521-0.922l0.432-1.745
				h6.066l0.431,1.745c0.143,0.576,0.654,0.961,1.215,0.961c0.101,0,0.203-0.012,0.305-0.039
				C495.627,490.416,496.035,489.727,495.867,489.047z M487.564,485.381l1.363-5.516c0.009-0.038,0.043-0.064,0.081-0.064h1.924
				c0.039,0,0.072,0.026,0.081,0.064l1.363,5.516H487.564z"/>
		</g>
	</g>
</g>
</svg>
