<?xml version="1.0" encoding="utf-8"?>
<!-- Generator: Adobe Illustrator 16.0.0, SVG Export Plug-In . SVG Version: 6.00 Build 0)  -->
<!DOCTYPE svg PUBLIC "-//W3C//DTD SVG 1.1//EN" "http://www.w3.org/Graphics/SVG/1.1/DTD/svg11.dtd">
<svg version="1.1" id="Isolation_Mode" xmlns="http://www.w3.org/2000/svg" xmlns:xlink="http://www.w3.org/1999/xlink" x="0px"
	 y="0px" width="81px" height="81px" viewBox="459.5 459.5 81 81" enable-background="new 459.5 459.5 81 81" xml:space="preserve">
<g>
	<path fill="#06AEEE" d="M481.869,525.061v-13.887c0-0.15-0.122-0.271-0.271-0.271h-6.68c-0.15,0-0.271,0.121-0.271,0.271v2.342
		c0,0.15,0.121,0.271,0.271,0.271h3.79c0.15,0,0.271,0.122,0.271,0.272v11.001c0,0.149-0.121,0.271-0.271,0.271h-3.79
		c-0.15,0-0.271,0.121-0.271,0.271v2.342c0,0.15,0.121,0.271,0.271,0.271c0.393,0,10.62,0,11.013,0c0.15,0,0.271-0.121,0.271-0.271
		v-2.342c0-0.15-0.121-0.271-0.271-0.271h-3.79C481.99,525.332,481.869,525.21,481.869,525.061z"/>
	<path fill="#13335B" d="M494.231,540.5h-27.614c-3.925,0-7.117-3.189-7.117-7.109v-27.584c0-3.92,3.192-7.109,7.117-7.109h16.861
		c0.688,0,1.247,0.558,1.247,1.246s-0.559,1.246-1.247,1.246h-16.861c-2.55,0-4.623,2.071-4.623,4.618v27.584
		c0,2.547,2.073,4.618,4.623,4.618h27.614c2.55,0,4.624-2.071,4.624-4.618v-17.369c0-0.688,0.558-1.245,1.246-1.245
		c0.689,0,1.247,0.558,1.247,1.245v17.369C501.349,537.311,498.156,540.5,494.231,540.5z"/>
	<path fill="#13335B" d="M533.383,501.303h-16.861c-0.688,0-1.247-0.558-1.247-1.246s0.559-1.246,1.247-1.246h16.861
		c2.55,0,4.623-2.072,4.623-4.618v-27.584c0-2.547-2.073-4.618-4.623-4.618h-27.614c-2.55,0-4.624,2.071-4.624,4.618v17.369
		c0,0.688-0.558,1.246-1.246,1.246c-0.689,0-1.247-0.558-1.247-1.246v-17.369c0-3.92,3.192-7.109,7.117-7.109h27.614
		c3.925,0,7.117,3.189,7.117,7.109v27.584C540.5,498.113,537.308,501.303,533.383,501.303z"/>
	<path fill="#06AEEE" d="M508.924,501.188h-17.813c-0.688,0-1.246-0.558-1.246-1.246s0.558-1.246,1.246-1.246h17.813
		c0.689,0,1.247,0.558,1.247,1.246S509.613,501.188,508.924,501.188z"/>
	<path fill="#06AEEE" d="M500.018,510.085c-0.688,0-1.246-0.558-1.246-1.245v-17.793c0-0.688,0.558-1.246,1.246-1.246
		c0.689,0,1.247,0.558,1.247,1.246v17.793C501.265,509.527,500.707,510.085,500.018,510.085z"/>
	<path fill="#06AEEE" d="M521.07,485.901v-13.886c0-0.15-0.122-0.271-0.271-0.271h-6.68c-0.15,0-0.271,0.122-0.271,0.271v2.343
		c0,0.15,0.121,0.271,0.271,0.271h3.79c0.15,0,0.272,0.122,0.272,0.271v11.001c0,0.15-0.122,0.271-0.272,0.271h-3.79
		c-0.15,0-0.271,0.122-0.271,0.271v2.343c0,0.15,0.121,0.271,0.271,0.271c0.393,0,10.62,0,11.013,0c0.15,0,0.272-0.122,0.272-0.271
		v-2.343c0-0.15-0.122-0.271-0.272-0.271h-3.79C521.192,486.173,521.07,486.052,521.07,485.901z"/>
</g>
</svg>
