<?xml version="1.0" encoding="utf-8"?>
<!-- Generator: Adobe Illustrator 16.0.0, SVG Export Plug-In . SVG Version: 6.00 Build 0)  -->
<!DOCTYPE svg PUBLIC "-//W3C//DTD SVG 1.1//EN" "http://www.w3.org/Graphics/SVG/1.1/DTD/svg11.dtd">
<svg version="1.1" id="Layer_1" xmlns="http://www.w3.org/2000/svg" xmlns:xlink="http://www.w3.org/1999/xlink" x="0px" y="0px"
	 width="94px" height="52px" viewBox="0 0 94 52" enable-background="new 0 0 94 52" xml:space="preserve">
<g>
	<defs>
		<path id="SVGID_1_" d="M0.655,18.368c-0.271,1.188-0.417,2.414-0.417,3.656c0,4.597,1.959,8.892,5.348,12.536
			c2.642,2.879,7.446,5.382,8.151,5.74v-6.91C8.417,29.856,1.843,23.505,0.655,18.368"/>
	</defs>
	<clipPath id="SVGID_2_">
		<use xlink:href="#SVGID_1_"  overflow="visible"/>
	</clipPath>
	<path clip-path="url(#SVGID_2_)" fill="#00ADEF" d="M0.655,18.368c-0.271,1.188-0.417,2.414-0.417,3.656
		c0,4.597,1.959,8.892,5.348,12.536c2.642,2.879,7.446,5.382,8.151,5.74v-6.91C8.417,29.856,1.843,23.505,0.655,18.368"/>
	<g clip-path="url(#SVGID_2_)">
		<g>
			<defs>
				<rect id="SVGID_3_" x="0.306" y="18.436" width="13.498" height="21.932"/>
			</defs>
			<clipPath id="SVGID_4_">
				<use xlink:href="#SVGID_3_"  overflow="visible"/>
			</clipPath>
			<g clip-path="url(#SVGID_4_)">
				<defs>
					<rect id="SVGID_5_" x="0.306" y="18.436" width="13.498" height="21.932"/>
				</defs>
				<clipPath id="SVGID_6_">
					<use xlink:href="#SVGID_5_"  overflow="visible"/>
				</clipPath>
				<g clip-path="url(#SVGID_6_)">
					
						<image overflow="visible" width="57" height="92" xlink:href="DC06E133.jpg"  transform="matrix(0.24 0 0 0.24 0.3057 18.436)">
					</image>
				</g>
			</g>
		</g>
	</g>
</g>
<path fill="#00ADEF" d="M24.79,0c-2.965-0.018-6.612,0.957-9.376,2.377l-0.002-0.001C6.225,6.734,0.228,13.892,0.228,21.982
	c0,1.25,0.145,2.479,0.419,3.674c1.834-7.985,9.566-14.67,20.131-18.036c2.676-0.756,5.227-1.976,6.764-3.365
	C30.115,1.931,28.883,0.027,24.79,0"/>
<path fill="#FFFFFF" d="M0.767,29.086c-0.354,1.366-0.537,2.767-0.537,4.192c0,5.273,2.514,10.198,6.865,14.376
	c3.197,3.107,5.978,4.291,6.642,4.544v-7.946C6.971,40.226,2.289,34.966,0.767,29.086"/>
<path fill="none" d="M0.767,29.086c-0.354,1.366-0.537,2.767-0.537,4.192c0,5.273,2.514,10.198,6.865,14.376
	c3.197,3.107,5.978,4.291,6.642,4.544v-7.946C6.971,40.226,2.289,34.966,0.767,29.086"/>
<path fill="#FFFFFF" d="M31.744,8.098c-3.798-0.015-8.467,1.109-12.01,2.738l-0.01-0.007C7.928,15.823,0.228,24.011,0.228,33.278
	c0,1.429,0.183,2.833,0.538,4.206c2.359-9.156,12.307-16.821,25.903-20.663c3.417-0.875,6.667-2.274,8.625-3.862
	C38.588,10.292,37,8.114,31.744,8.098"/>
<path fill="#00ADEF" d="M28.809,36.596l-3.199,7.301h6.419L28.809,36.596 M26.521,30.957h4.514l9.182,21.215h-4.672l-1.852-4.362
	h-9.718l-1.912,4.362h-4.668L26.521,30.957z"/>
<polyline fill="#00ADEF" points="42.011,30.957 46.498,30.957 46.498,38.248 52.882,30.957 58.351,30.957 50.072,40.409 
	59.158,52.171 53.926,52.171 46.498,42.55 46.498,52.171 42.011,52.171 42.011,30.957 "/>
<path fill="#00ADEF" d="M65.071,39.222h1.431c1.122,0,1.908-0.07,2.346-0.214c0.438-0.148,0.783-0.388,1.037-0.719
	c0.253-0.333,0.378-0.737,0.378-1.208c0-0.82-0.357-1.423-1.063-1.802c-0.511-0.275-1.463-0.418-2.864-0.418h-1.264V39.222
	 M60.585,30.957h4.77c2.576,0,4.439,0.209,5.575,0.634c1.143,0.427,2.04,1.117,2.702,2.072c0.66,0.948,0.988,2.095,0.988,3.427
	c0,1.472-0.432,2.695-1.298,3.675c-0.861,0.975-2.031,1.655-3.509,2.038c-0.871,0.219-2.453,0.33-4.743,0.33v9.039h-4.485V30.957z"
	/>
<polyline fill="#00ADEF" points="77.438,30.957 81.929,30.957 81.929,38.248 88.316,30.957 93.783,30.957 85.502,40.409 
	94.588,52.171 89.357,52.171 81.929,42.55 81.929,52.171 77.438,52.171 77.438,30.957 "/>
</svg>
