<?xml version="1.0" encoding="utf-8"?>
<!-- Generator: Adobe Illustrator 16.0.0, SVG Export Plug-In . SVG Version: 6.00 Build 0)  -->
<!DOCTYPE svg PUBLIC "-//W3C//DTD SVG 1.1//EN" "http://www.w3.org/Graphics/SVG/1.1/DTD/svg11.dtd">
<svg version="1.1" id="Layer_1" xmlns="http://www.w3.org/2000/svg" xmlns:xlink="http://www.w3.org/1999/xlink" x="0px" y="0px"
	 width="42px" height="42px" viewBox="235 235 42 42" enable-background="new 235 235 42 42" xml:space="preserve">
<g>
	<g>
		<g>
			<path fill="#06AEEE" d="M254.114,264.326c0.237,0.233,0.561,0.364,0.897,0.364s0.659-0.131,0.897-0.364l4.531-4.428
				c0.496-0.483,0.496-1.269,0-1.753c-0.495-0.483-1.3-0.483-1.795,0l-3.634,3.551l-1.657-1.618c-0.496-0.485-1.299-0.485-1.795,0
				c-0.496,0.483-0.496,1.269,0,1.753L254.114,264.326z"/>
		</g>
		<g>
			<g>
				<path fill="#06AEEE" d="M256,271.08c5.556,0,10.077-4.417,10.077-9.845s-4.521-9.844-10.077-9.844
					c-5.556,0-10.077,4.416-10.077,9.844S250.444,271.08,256,271.08z M256,253.872c4.157,0,7.538,3.303,7.538,7.364
					s-3.381,7.366-7.538,7.366c-4.156,0-7.538-3.306-7.538-7.366S251.844,253.872,256,253.872z"/>
			</g>
		</g>
		<path fill="#0066E1" d="M272.896,237.64h-2.315v-1.4c0-0.685-0.568-1.24-1.271-1.24c-0.699,0-1.268,0.555-1.268,1.24v1.4h-2.496
			v-1.4c0-0.685-0.567-1.24-1.268-1.24c-0.701,0-1.271,0.555-1.271,1.24v1.4h-14.016v-1.4c0-0.685-0.568-1.24-1.27-1.24
			c-0.701,0-1.269,0.555-1.269,1.24v1.4h-2.494v-1.4c0-0.685-0.568-1.24-1.269-1.24c-0.701,0-1.27,0.555-1.27,1.24v1.4h-2.315
			c-2.263,0-4.105,1.799-4.105,4.011v31.338c0,2.212,1.842,4.011,4.105,4.011h33.791c2.263,0,4.104-1.799,4.104-4.011v-31.338
			C277,239.439,275.158,237.64,272.896,237.64z M274.461,272.989c0,0.844-0.703,1.531-1.565,1.531h-33.791
			c-0.863,0-1.567-0.688-1.567-1.531v-25.037h36.923V272.989z M237.538,241.651c0-0.843,0.704-1.53,1.567-1.53h2.315v1.4
			c0,0.685,0.569,1.24,1.27,1.24c0.701,0,1.269-0.555,1.269-1.24v-1.4h2.494v1.4c0,0.685,0.568,1.24,1.27,1.24
			c0.701,0,1.269-0.555,1.269-1.24v-1.4h14.016v1.4c0,0.685,0.569,1.24,1.271,1.24c0.7,0,1.268-0.555,1.268-1.24v-1.4h2.496v1.4
			c0,0.685,0.568,1.24,1.268,1.24c0.702,0,1.271-0.555,1.271-1.24v-1.4h2.315c0.862,0,1.565,0.687,1.565,1.53v3.821h-36.923V241.651
			z"/>
	</g>
</g>
</svg>
