<?xml version="1.0" encoding="utf-8"?>
<!-- Generator: Adobe Illustrator 16.0.0, SVG Export Plug-In . SVG Version: 6.00 Build 0)  -->
<!DOCTYPE svg PUBLIC "-//W3C//DTD SVG 1.1//EN" "http://www.w3.org/Graphics/SVG/1.1/DTD/svg11.dtd">
<svg version="1.1" id="Capa_1" xmlns="http://www.w3.org/2000/svg" xmlns:xlink="http://www.w3.org/1999/xlink" x="0px" y="0px"
	 width="55px" height="47px" viewBox="972.5 2476.5 55 47" enable-background="new 972.5 2476.5 55 47" xml:space="preserve">
<path fill="#0066E1" d="M1027.31,2487.466l-27.436-11.031l-27.365,11.031l12.953,5.22v7.665c0,2.362,1.647,4.491,4.638,5.997
	c2.638,1.326,6.109,2.056,9.775,2.056c3.667,0,7.138-0.729,9.774-2.056c2.991-1.506,4.639-3.635,4.639-5.997v-7.65l6.513-2.617
	l3.204-1.288L1027.31,2487.466z M1011.084,2500.351c0,2.28-4.793,4.831-11.209,4.831s-11.21-2.551-11.21-4.831v-6.375l11.209,4.518
	l11.21-4.507V2500.351z M999.875,2495.024l-18.757-7.558l18.757-7.561l18.804,7.561L999.875,2495.024z"/>
<path fill="#06AEEE" d="M1027.204,2510.015c0-2.1-1.337-3.891-3.2-4.556v-16.664l-3.204,1.288v15.376
	c-1.864,0.665-3.204,2.456-3.204,4.556c0,1.921,1.121,3.583,2.739,4.36l-2.655,8.014l3.039,1.021l1.682-5.081l1.685,5.081
	l3.039-1.021l-2.657-8.014C1026.084,2513.598,1027.204,2511.936,1027.204,2510.015z M1022.4,2511.625
	c-0.882,0-1.601-0.723-1.601-1.61s0.719-1.611,1.601-1.611c0.885,0,1.604,0.724,1.604,1.611S1023.285,2511.625,1022.4,2511.625z"/>
</svg>
