<?xml version="1.0" encoding="utf-8"?>
<!-- Generator: Adobe Illustrator 16.0.0, SVG Export Plug-In . SVG Version: 6.00 Build 0)  -->
<!DOCTYPE svg PUBLIC "-//W3C//DTD SVG 1.1//EN" "http://www.w3.org/Graphics/SVG/1.1/DTD/svg11.dtd">
<svg version="1.1" id="Layer_1" xmlns="http://www.w3.org/2000/svg" xmlns:xlink="http://www.w3.org/1999/xlink" x="0px" y="0px"
	 width="42px" height="42px" viewBox="235 235 42 42" enable-background="new 235 235 42 42" xml:space="preserve">
<polygon fill="none" points="269.617,242.383 272.799,242.383 269.617,239.201 "/>
<path fill="none" d="M257.148,249.93h14.93v2.461h-14.93v2.461h14.93v2.461h-14.93v2.461h14.93v2.461h-14.93v2.461h14.93v2.461
	h-14.93v2.461v4.922h17.391v-29.695h-7.383v-7.383h-19.852v10.129c0.028,0.005,0.056,0.01,0.084,0.016
	c0.143,0.03,0.278,0.081,0.417,0.121h9.343V249.93z"/>
<path fill="#0066E1" d="M268.896,235h-24.053v12.595c-0.154,0.031-0.296,0.089-0.446,0.132h3.408
	c-0.139-0.04-0.274-0.091-0.417-0.121c-0.028-0.006-0.057-0.011-0.084-0.016v-10.129h19.852v7.383h7.383v29.695h-17.391V277H277
	v-33.896L268.896,235z M269.617,242.383v-3.182l3.182,3.182H269.617z"/>
<rect x="257.148" y="249.93" fill="#0066E1" width="14.93" height="2.461"/>
<rect x="257.148" y="254.852" fill="#0066E1" width="14.93" height="2.461"/>
<rect x="257.148" y="259.773" fill="#0066E1" width="14.93" height="2.461"/>
<rect x="257.148" y="264.695" fill="#0066E1" width="14.93" height="2.461"/>
<rect x="237.461" y="272.078" fill="none" width="17.227" height="2.461"/>
<path fill="none" d="M252.227,267.032c-2.805-0.571-4.922-3.058-4.922-6.028c0-2.847,0.981-4.227,1.698-5.234
	c0.656-0.922,1.018-1.431,0.667-3.006c-0.298-1.338-1.443-2.468-2.784-2.749c-2.43-0.508-4.502,1.33-4.502,3.606
	c0,0.633,0.371,1.292,0.84,2.127c0.722,1.284,1.621,2.882,1.621,5.256c0,2.971-2.117,5.457-4.922,6.028v2.585h12.305V267.032z"/>
<path fill="#06AEEE" d="M254.688,269.617v-4.922h-1.23c-2.036,0-3.691-1.656-3.691-3.691c0-2.061,0.604-2.909,1.243-3.808
	c0.774-1.089,1.652-2.323,1.063-4.968c-0.478-2.144-2.167-3.895-4.266-4.502h-3.408c-2.624,0.743-4.476,3.125-4.476,5.895
	c0,1.278,0.588,2.323,1.156,3.333c0.642,1.141,1.305,2.32,1.305,4.05c0,2.035-1.656,3.691-3.691,3.691h-1.23v4.922H235V277h22.148
	v-2.461v-4.922H254.688z M239.922,267.032c2.805-0.571,4.922-3.058,4.922-6.028c0-2.374-0.899-3.972-1.621-5.256
	c-0.469-0.834-0.84-1.494-0.84-2.127c0-2.276,2.072-4.114,4.502-3.606c1.341,0.28,2.486,1.411,2.784,2.749
	c0.351,1.576-0.01,2.084-0.667,3.006c-0.717,1.007-1.698,2.387-1.698,5.234c0,2.971,2.117,5.457,4.922,6.028v2.585h-12.305V267.032z
	 M254.688,274.539h-17.227v-2.461h17.227V274.539z"/>
</svg>
