<?xml version="1.0" encoding="utf-8"?>
<!-- Generator: Adobe Illustrator 16.0.0, SVG Export Plug-In . SVG Version: 6.00 Build 0)  -->
<!DOCTYPE svg PUBLIC "-//W3C//DTD SVG 1.1//EN" "http://www.w3.org/Graphics/SVG/1.1/DTD/svg11.dtd">
<svg version="1.1" id="Layer_1" xmlns="http://www.w3.org/2000/svg" xmlns:xlink="http://www.w3.org/1999/xlink" x="0px" y="0px"
	 width="44px" height="44px" viewBox="234 234 44 44" enable-background="new 234 234 44 44" xml:space="preserve">
<g>
	<path fill="none" d="M259.509,241.214c-1.383-2.419-3.082-3.958-4.884-4.458v8.845h6.697
		C260.86,243.996,260.253,242.516,259.509,241.214z"/>
	<path fill="none" d="M252.047,245.602v-8.845c-1.802,0.5-3.501,2.039-4.884,4.458c-0.744,1.301-1.353,2.781-1.813,4.387H252.047z"
		/>
	<path fill="none" d="M241.734,253.336c0-1.766,0.14-3.498,0.409-5.156h-4.752c-0.527,1.625-0.813,3.358-0.813,5.156
		c0,1.789,0.289,3.523,0.822,5.156h4.743C241.874,256.834,241.734,255.105,241.734,253.336z"/>
	<path fill="none" d="M263.991,245.602h4.208c-1.66-3.177-4.309-5.758-7.534-7.333c0.379,0.513,0.74,1.069,1.083,1.667
		C262.701,241.604,263.455,243.522,263.991,245.602z"/>
	<path fill="none" d="M244.925,239.936c0.342-0.598,0.703-1.155,1.082-1.667c-3.226,1.576-5.874,4.157-7.534,7.333h4.208
		C243.217,243.522,243.971,241.604,244.925,239.936z"/>
	<path fill="none" d="M242.681,261.07h-4.191c1.654,3.154,4.285,5.744,7.51,7.328c-0.724-0.981-1.378-2.115-1.952-3.394
		C243.495,263.775,243.039,262.457,242.681,261.07z"/>
	<path fill="#0066E1" d="M246.398,263.949c-0.402-0.896-0.75-1.863-1.04-2.879h4.11v-2.578h-4.704
		c-0.296-1.658-0.452-3.398-0.452-5.156c0-1.778,0.152-3.512,0.444-5.156h7.291v6.445h2.578v-6.445h7.29
		c0.293,1.644,0.444,3.378,0.444,5.156c0,0.637-0.021,1.271-0.061,1.9c1.021,0.563,1.443,1.984,1.443,1.984
		c0.028-0.924,1.129-1.81,1.129-1.81c0.044-0.687,0.066-1.379,0.066-2.075c0-1.766-0.139-3.498-0.408-5.156h4.752
		c0.527,1.625,0.813,3.358,0.813,5.156c0,0.43-0.018,0.86-0.049,1.289h2.584c0.027-0.429,0.043-0.859,0.043-1.289
		c0-5.165-2.012-10.021-5.664-13.673c-3.651-3.652-8.508-5.663-13.672-5.663c-5.165,0-10.021,2.011-13.673,5.663
		c-3.652,3.652-5.663,8.508-5.663,13.673c0,4.682,1.695,9.199,4.773,12.721c2.8,3.203,6.565,5.387,10.696,6.227v-3.866
		C248.299,267.358,247.244,265.832,246.398,263.949z M268.199,245.602h-4.208c-0.536-2.08-1.29-3.998-2.243-5.666
		c-0.343-0.599-0.704-1.155-1.083-1.667C263.891,239.844,266.539,242.425,268.199,245.602z M254.625,236.756
		c1.802,0.5,3.501,2.039,4.884,4.458c0.744,1.302,1.352,2.782,1.813,4.387h-6.697V236.756z M252.047,236.756v8.845h-6.697
		c0.46-1.605,1.069-3.085,1.813-4.387C248.545,238.795,250.245,237.256,252.047,236.756z M246.007,238.268
		c-0.379,0.513-0.74,1.069-1.082,1.667c-0.954,1.669-1.708,3.586-2.244,5.666h-4.208
		C240.133,242.425,242.781,239.844,246.007,238.268z M236.578,253.336c0-1.798,0.286-3.531,0.813-5.156h4.752
		c-0.269,1.659-0.409,3.391-0.409,5.156c0,1.769,0.14,3.498,0.409,5.156H237.4C236.867,256.859,236.578,255.125,236.578,253.336z
		 M238.489,261.07h4.191c0.358,1.387,0.814,2.705,1.366,3.935c0.574,1.278,1.229,2.412,1.952,3.394
		C242.774,266.814,240.143,264.225,238.489,261.07z"/>
	<path fill="#06AEEE" d="M274.668,254.625h-2.039h-2.584h-2.443c-1.003,0-1.938,0.289-2.73,0.786c0,0-1.101,0.886-1.129,1.81
		c0,0-0.423-1.422-1.443-1.984c-0.725-0.389-1.553-0.611-2.432-0.611h-2.621h-2.621h-2.578h-0.348h-2.23v3.272v0.595v2.578v4.39
		v2.584v0.373v3.866v2.618v0.521h10.398c1.422,0,2.578,1.156,2.578,2.578h2.578c0-1.422,1.156-2.578,2.578-2.578H278v-20.797
		H274.668z M262.445,273.537c-0.759-0.439-1.639-0.693-2.578-0.693h-7.82v-15.641h7.82c1.422,0,2.578,1.156,2.578,2.578V273.537z
		 M275.422,272.844h-7.82c-0.939,0-1.819,0.254-2.578,0.693v-13.756c0-1.422,1.156-2.578,2.578-2.578h7.82V272.844z"/>
	<rect x="254.625" y="259.781" fill="#06AEEE" width="5.242" height="2.578"/>
	<rect x="254.625" y="264.938" fill="#06AEEE" width="5.242" height="2.578"/>
	<rect x="267.602" y="259.781" fill="#06AEEE" width="5.242" height="2.578"/>
	<rect x="267.602" y="264.938" fill="#06AEEE" width="5.242" height="2.578"/>
</g>
</svg>
