<?xml version="1.0" encoding="utf-8"?>
<!-- Generator: Adobe Illustrator 16.0.0, SVG Export Plug-In . SVG Version: 6.00 Build 0)  -->
<!DOCTYPE svg PUBLIC "-//W3C//DTD SVG 1.1//EN" "http://www.w3.org/Graphics/SVG/1.1/DTD/svg11.dtd">
<svg version="1.1" id="Layer_1" xmlns="http://www.w3.org/2000/svg" xmlns:xlink="http://www.w3.org/1999/xlink" x="0px" y="0px"
	 width="81px" height="81px" viewBox="207.5 207.5 81 81" enable-background="new 207.5 207.5 81 81" xml:space="preserve">
<g>
	<path fill="#06AEEE" d="M240.424,228.417h-5.653l5.346,36.574h-1.221c-2.162,0-3.919,1.759-3.919,3.92v3.919h26.129v-3.919
		c0-2.161-1.759-3.92-3.919-3.92h-1.222l5.346-36.574h-5.653c-0.016-0.851-0.224-1.807-0.437-2.753
		c-0.179-0.79-0.475-2.108-0.427-2.373c0.256-0.261,1.472-0.636,2.197-0.859c1.929-0.595,4.114-1.269,4.114-3.167
		c0-1.896-2.186-2.571-4.114-3.165c-0.726-0.224-1.94-0.599-2.132-0.753c-0.113-0.372,0.185-1.692,0.361-2.481
		c0.462-2.044,0.938-4.158-0.635-5.085c-1.559-0.915-3.106,0.536-4.601,1.944c-0.599,0.565-1.601,1.508-1.897,1.592
		c-0.389-0.084-1.39-1.028-1.989-1.592c-1.495-1.408-3.042-2.863-4.6-1.945c-1.574,0.926-1.097,3.042-0.636,5.086
		c0.179,0.789,0.475,2.109,0.427,2.373c-0.256,0.262-1.471,0.637-2.197,0.86c-1.931,0.595-4.117,1.27-4.117,3.167
		c0,1.897,2.186,2.572,4.114,3.166c0.726,0.224,1.94,0.599,2.132,0.752c0.113,0.373-0.185,1.691-0.362,2.481
		C240.647,226.609,240.439,227.564,240.424,228.417z M257.187,267.604c0.721,0,1.307,0.587,1.307,1.307v1.307h-20.904v-1.307
		c0-0.72,0.585-1.307,1.307-1.307H257.187z M251.861,231.03l-2.48,33.96h-2.229l-2.912-33.96H251.861z M246.511,228.417
		c0.57-0.531,1.248-1.138,1.483-1.204c0.308,0.067,1.002,0.674,1.574,1.204H246.511z M258.287,231.03l-4.963,33.96H252l2.479-33.96
		H258.287z M239.86,219.934c-0.56-0.172-1.388-0.429-1.911-0.669c0.522-0.242,1.352-0.496,1.913-0.669
		c1.635-0.505,3.049-0.941,3.655-2.006c0.618-1.086,0.265-2.646-0.107-4.299c-0.114-0.506-0.277-1.227-0.352-1.782
		c0.409,0.329,0.901,0.792,1.247,1.118c1.257,1.184,2.441,2.301,3.737,2.301c1.294,0,2.479-1.117,3.735-2.301
		c0.346-0.327,0.838-0.789,1.246-1.117c-0.074,0.555-0.237,1.276-0.352,1.782c-0.372,1.653-0.725,3.212-0.106,4.3
		c0.605,1.064,2.02,1.499,3.656,2.005c0.56,0.172,1.389,0.427,1.912,0.668c-0.522,0.242-1.352,0.497-1.912,0.67
		c-1.636,0.504-3.05,0.941-3.655,2.006c-0.618,1.086-0.266,2.646,0.107,4.3c0.113,0.505,0.276,1.227,0.351,1.781
		c-0.408-0.329-0.899-0.792-1.246-1.118c-1.255-1.182-2.439-2.301-3.735-2.301c-1.295,0-2.48,1.118-3.736,2.301
		c-0.346,0.327-0.837,0.789-1.246,1.117c0.074-0.555,0.237-1.276,0.351-1.782c0.373-1.653,0.726-3.212,0.107-4.3
		C242.91,220.874,241.497,220.439,239.86,219.934z M241.617,231.03l2.912,33.96h-1.771l-4.963-33.96H241.617z"/>
	<path fill="#06AEEE" d="M248.041,223.184c2.161,0,3.92-1.758,3.92-3.919c0-2.161-1.759-3.919-3.92-3.919s-3.919,1.759-3.919,3.919
		C244.122,221.426,245.88,223.184,248.041,223.184z M248.041,217.958c0.721,0,1.307,0.587,1.307,1.306
		c0,0.72-0.586,1.307-1.307,1.307c-0.721,0-1.306-0.586-1.306-1.307C246.735,218.545,247.32,217.958,248.041,217.958z"/>
	<path fill="#13335B" d="M286.211,264.539c1.562-1.75,2.46-4.094,2.314-6.615l-0.373-6.521l-1.306,0.075
		c-0.268,0.015-0.53,0.048-0.79,0.086c0.001-0.003,0.002-0.005,0.004-0.008c0.805-2.308,0.662-4.789-0.401-6.988l-2.841-5.882
		l-1.175,0.568c-0.242,0.116-0.473,0.247-0.699,0.383c0-0.004,0-0.006,0-0.009c-0.14-2.439-1.222-4.677-3.044-6.303l-4.876-4.349
		l-0.869,0.977c-2.214,2.483-2.813,5.848-1.889,8.816c-0.732-0.14-1.481-0.2-2.24-0.158c-2.439,0.14-4.678,1.222-6.303,3.044
		l-0.87,0.976l4.875,4.348c0.379,0.337,0.792,0.628,1.217,0.898l2.246,4.65c0.221,0.457,0.49,0.884,0.778,1.294l0.297,5.154
		c0.028,0.508,0.113,1.004,0.225,1.494l-1.7,4.875c-0.165,0.479-0.277,0.971-0.363,1.469l-3.436,3.854
		c-1.625,1.823-2.444,4.17-2.305,6.609c0.104,1.811,0.729,3.509,1.788,4.929c-3.102,1.48-8.962,3.688-16.435,3.688
		c-7.473,0-13.333-2.208-16.436-3.692c1.06-1.422,1.685-3.12,1.788-4.929c0.141-2.439-0.679-4.787-2.304-6.609l-3.437-3.854
		c-0.085-0.495-0.197-0.986-0.363-1.468l-1.699-4.875c0.111-0.493,0.196-0.99,0.225-1.495l0.296-5.153
		c0.29-0.41,0.558-0.838,0.78-1.295l2.245-4.649c0.426-0.269,0.839-0.56,1.219-0.899l4.874-4.347l-0.87-0.976
		c-1.625-1.824-3.863-2.905-6.302-3.044c-0.758-0.042-1.509,0.018-2.241,0.158c0.924-2.967,0.326-6.333-1.889-8.816l-0.869-0.976
		l-4.874,4.348c-1.824,1.625-2.906,3.864-3.045,6.302v0.008c-0.229-0.133-0.46-0.263-0.701-0.379l-1.176-0.568l-2.84,5.881
		c-1.063,2.201-1.206,4.681-0.401,6.989c0.001,0.002,0.003,0.005,0.004,0.008c-0.26-0.038-0.522-0.071-0.791-0.087l-1.305-0.073
		l-0.374,6.522c-0.145,2.521,0.752,4.865,2.315,6.614c-0.257,0.065-0.514,0.136-0.77,0.225l-1.233,0.43l2.15,6.168
		c0.832,2.386,2.561,4.204,4.675,5.221c-0.214,0.159-0.425,0.324-0.628,0.506l-0.976,0.87l4.347,4.876
		c1.804,2.023,4.313,3.054,6.831,3.054c1.752,0,3.498-0.524,5.025-1.536l0.081,0.092l0.302-0.27
		c3.092,1.596,9.658,4.332,18.365,4.332c8.707,0,15.272-2.736,18.364-4.331l0.302,0.27l0.081-0.091
		c1.529,1.011,3.272,1.536,5.024,1.536c2.52,0,5.028-1.032,6.831-3.055l4.347-4.876l-0.976-0.87
		c-0.203-0.18-0.415-0.346-0.629-0.506c2.115-1.018,3.844-2.835,4.676-5.221l2.15-6.167l-1.233-0.43
		C286.725,264.676,286.468,264.604,286.211,264.539z M227.908,241.217c1.299,0.075,2.519,0.522,3.536,1.285l-2.829,2.523
		c-0.289,0.258-0.605,0.478-0.933,0.68c-1.969-0.714-4.106-0.733-6.115-0.034c-0.717,0.25-1.385,0.591-2.005,0.997
		c-0.016-0.175-0.03-0.349-0.056-0.523l3.681-3.281C224.49,241.702,226.173,241.123,227.908,241.217z M219.923,235.274l2.826-2.522
		c1.528,2.626,1.056,6.061-1.298,8.161l-2.808,2.503c-0.094-0.189-0.188-0.38-0.293-0.563
		C217.192,240.317,217.735,237.223,219.923,235.274z M218.696,251.465c0.759-1.571,2.085-2.753,3.731-3.328
		c1.229-0.428,2.527-0.481,3.759-0.165l-1.646,3.41c-0.169,0.35-0.379,0.674-0.602,0.985c-2.104,0.09-4.077,0.896-5.661,2.31
		c-0.569,0.507-1.057,1.08-1.475,1.694c-0.083-0.155-0.161-0.313-0.251-0.464L218.696,251.465z M222.878,275.2
		c-0.167-0.051-0.334-0.108-0.504-0.149l-1.625-4.66c-0.574-1.647-0.474-3.421,0.286-4.991c0.567-1.172,1.446-2.127,2.543-2.774
		l1.246,3.577c0.128,0.368,0.21,0.745,0.27,1.123c-1.415,1.547-2.248,3.515-2.371,5.635
		C222.68,273.721,222.74,274.471,222.878,275.2z M218.681,264.263c-0.332,0.687-0.563,1.401-0.714,2.129
		c-0.135-0.112-0.268-0.228-0.409-0.332l0.282-4.928c0.101-1.741,0.873-3.341,2.175-4.502c0.97-0.867,2.15-1.411,3.408-1.59
		l-0.217,3.783c-0.022,0.386-0.09,0.764-0.18,1.14C221.13,260.851,219.606,262.349,218.681,264.263z M212.775,245.704l1.648-3.413
		c0.624,0.473,1.14,1.062,1.555,1.725c0.129,0.277,0.274,0.546,0.431,0.81c0.076,0.17,0.16,0.335,0.221,0.512
		c0.574,1.648,0.472,3.42-0.287,4.992l-1.637,3.39c-0.173-0.15-0.348-0.298-0.531-0.437c-0.752-0.709-1.336-1.585-1.688-2.588
		C211.915,249.047,212.017,247.273,212.775,245.704z M210.382,254.292c0.738,0.194,1.421,0.517,2.031,0.936
		c0.265,0.248,0.548,0.477,0.844,0.692c1.314,1.276,2.089,3.094,1.977,5.063l-0.217,3.76c-0.17-0.057-0.339-0.114-0.514-0.163
		c-2.658-0.95-4.508-3.547-4.338-6.505L210.382,254.292z M212.486,270.502l-1.248-3.576c0.789-0.108,1.577-0.058,2.331,0.116
		c0.296,0.107,0.601,0.198,0.91,0.275c1.717,0.672,3.147,2.058,3.801,3.932l0.722,2.065l0.52,1.49
		c-0.183,0.014-0.366,0.024-0.548,0.048C216.162,274.989,213.46,273.296,212.486,270.502z M219.386,281.096l-2.521-2.827
		c2.626-1.528,6.061-1.056,8.161,1.3l2.521,2.829C224.921,283.924,221.487,283.45,219.386,281.096z M229.5,280.658l-2.522-2.829
		c-1.162-1.302-1.746-2.978-1.646-4.72c0.075-1.299,0.522-2.52,1.286-3.536l2.523,2.829c1.162,1.303,1.746,2.979,1.645,4.721
		C230.711,278.422,230.262,279.642,229.5,280.658z M279.63,244.892c0.188-0.309,0.359-0.625,0.509-0.951
		c0.402-0.625,0.911-1.185,1.521-1.649l1.647,3.412c0.759,1.571,0.861,3.344,0.287,4.992c-0.35,1.005-0.937,1.88-1.688,2.59
		c-0.184,0.137-0.357,0.285-0.53,0.435l-1.637-3.39c-0.001-0.003-0.004-0.007-0.005-0.01
		C278.88,248.545,278.902,246.571,279.63,244.892z M273.333,232.752l2.827,2.522c2.206,1.967,2.738,5.103,1.539,7.652
		c-0.093,0.16-0.174,0.326-0.256,0.492l-2.811-2.505C272.278,238.813,271.805,235.378,273.333,232.752z M268.399,245.705
		c-0.327-0.202-0.643-0.422-0.933-0.68l-2.829-2.521c1.018-0.763,2.237-1.211,3.536-1.285c1.733-0.093,3.418,0.484,4.721,1.646
		l3.684,3.285c-0.026,0.173-0.038,0.349-0.055,0.524c-0.622-0.407-1.291-0.75-2.011-1
		C272.504,244.972,270.368,244.989,268.399,245.705z M269.896,247.974c1.23-0.318,2.53-0.263,3.759,0.165
		c1.645,0.573,2.969,1.754,3.727,3.321c0.002,0.002,0.002,0.004,0.004,0.006l2.146,4.445c-0.09,0.149-0.168,0.308-0.251,0.464
		c-0.418-0.614-0.905-1.187-1.475-1.694c-1.586-1.415-3.559-2.219-5.661-2.311c-0.225-0.311-0.433-0.635-0.602-0.983
		L269.896,247.974z M270.988,267.324c0.061-0.38,0.143-0.758,0.271-1.122l1.246-3.579c1.097,0.648,1.977,1.604,2.542,2.775
		c0.76,1.57,0.859,3.343,0.286,4.991l-1.625,4.66c-0.17,0.041-0.337,0.098-0.504,0.149c0.138-0.729,0.198-1.479,0.155-2.24
		C273.237,270.839,272.402,268.871,270.988,267.324z M273.055,259.964c-0.089-0.374-0.157-0.753-0.181-1.142l-0.217-3.782
		c1.26,0.18,2.438,0.725,3.408,1.59c1.303,1.161,2.075,2.761,2.176,4.502l0.014,0.234l0.269,4.692
		c-0.142,0.104-0.274,0.22-0.409,0.332c-0.151-0.729-0.383-1.444-0.715-2.13C276.476,262.349,274.951,260.851,273.055,259.964z
		 M266.582,280.658c-0.763-1.018-1.212-2.236-1.286-3.535c-0.1-1.742,0.484-3.42,1.646-4.721l2.523-2.829
		c0.763,1.017,1.212,2.236,1.285,3.536c0.101,1.742-0.483,3.419-1.646,4.72L266.582,280.658z M276.695,281.096
		c-2.101,2.355-5.535,2.827-8.161,1.3l2.521-2.827c2.098-2.354,5.529-2.831,8.16-1.3L276.695,281.096z M283.595,270.503
		c-0.969,2.781-3.644,4.476-6.443,4.354c-0.195-0.026-0.393-0.038-0.591-0.052l1.24-3.556c0.654-1.874,2.084-3.26,3.801-3.932
		c0.31-0.077,0.613-0.168,0.91-0.275c0.754-0.175,1.541-0.225,2.331-0.116L283.595,270.503z M281.595,264.574
		c-0.179,0.049-0.354,0.108-0.529,0.167l-0.217-3.76c-0.112-1.969,0.662-3.786,1.978-5.063c0.294-0.216,0.578-0.444,0.844-0.692
		c0.608-0.421,1.292-0.741,2.029-0.936l0.219,3.782C286.086,261.027,284.246,263.619,281.595,264.574z"/>
</g>
</svg>
