<?xml version="1.0" encoding="utf-8"?>
<!-- Generator: Adobe Illustrator 16.0.0, SVG Export Plug-In . SVG Version: 6.00 Build 0)  -->
<!DOCTYPE svg PUBLIC "-//W3C//DTD SVG 1.1//EN" "http://www.w3.org/Graphics/SVG/1.1/DTD/svg11.dtd">
<svg version="1.1" id="Layer_1" xmlns="http://www.w3.org/2000/svg" xmlns:xlink="http://www.w3.org/1999/xlink" x="0px" y="0px"
	 width="81px" height="81px" viewBox="300.167 300.167 81 81" enable-background="new 300.167 300.167 81 81" xml:space="preserve">
<g>
	<path fill="#06AEEE" stroke="#06AEEE" stroke-width="0.2" stroke-miterlimit="10" d="M347.155,331.635
		c-0.279,0-0.563-0.074-0.819-0.229c-1.661-1.002-3.56-1.532-5.489-1.532c-1.067,0-2.12,0.157-3.128,0.469
		c-0.838,0.259-1.728-0.21-1.985-1.049c-0.26-0.838,0.21-1.727,1.047-1.986c1.313-0.406,2.682-0.612,4.067-0.612
		c2.507,0,4.974,0.688,7.13,1.99c0.752,0.454,0.992,1.43,0.539,2.181C348.217,331.361,347.693,331.635,347.155,331.635z"/>
	<path fill="#06AEEE" d="M362.316,337.848h0.212c0.478,0,0.929-0.214,1.23-0.584c0.302-0.369,0.421-0.854,0.326-1.322
		c-0.995-4.882-3.457-9.271-7.119-12.694c-0.35-0.327-0.829-0.479-1.303-0.412c-0.475,0.066-0.893,0.342-1.141,0.752
		c-0.242,0.399-0.559,0.733-0.942,0.992c-0.028,0.02-0.03,0.02-0.056,0.039c-0.222,0.154-1.861,1.202-3.669-0.132
		c-0.087-0.063-0.11-0.085-0.2-0.127c-0.188-0.118-1.172-0.834-1.119-2.805c0.01-0.372,0.152-0.807,0.412-1.257
		c0.243-0.415,0.285-0.916,0.115-1.366c-0.17-0.449-0.535-0.797-0.992-0.946c-2.399-0.785-4.904-1.183-7.445-1.183
		c-2.343,0-4.661,0.34-6.892,1.01c-0.448,0.134-0.814,0.459-1,0.89c-0.186,0.429-0.173,0.918,0.034,1.337
		c0.745,1.5,0.191,3.333-1.26,4.169l-0.091,0.053c-1.493,0.861-3.377,0.393-4.29-1.069c-0.248-0.396-0.659-0.664-1.122-0.73
		c-0.463-0.066-0.932,0.075-1.281,0.385c-3.651,3.246-6.192,7.456-7.35,12.174c-0.111,0.454-0.017,0.932,0.257,1.311
		c0.273,0.378,0.699,0.616,1.165,0.652c1.647,0.125,2.938,1.52,2.938,3.173v0.104c0,1.735-1.359,3.133-3.093,3.183
		c-0.466,0.013-0.903,0.23-1.195,0.594c-0.292,0.364-0.408,0.839-0.32,1.297c0.934,4.802,3.292,9.152,6.819,12.579
		c0.342,0.332,0.814,0.493,1.289,0.438c0.474-0.056,0.898-0.319,1.155-0.722c0.919-1.433,2.795-1.888,4.272-1.035l0.089,0.052
		c1.521,0.878,2.044,2.829,1.166,4.351l-0.034,0.06c-0.236,0.409-0.278,0.903-0.113,1.347c0.165,0.443,0.519,0.79,0.965,0.945
		c2.535,0.886,5.189,1.333,7.891,1.333c2.251,0,4.482-0.313,6.63-0.93c0.47-0.136,0.851-0.479,1.034-0.932
		c0.182-0.453,0.146-0.966-0.098-1.389c-0.877-1.521-0.354-3.472,1.166-4.349l0.092-0.053c0.736-0.424,1.594-0.537,2.416-0.317
		c0.822,0.221,1.508,0.747,1.934,1.483l0.119,0.205c0.236,0.412,0.645,0.695,1.113,0.773c0.467,0.078,0.947-0.057,1.305-0.369
		c3.807-3.313,6.431-7.646,7.586-12.532c0.112-0.474,0.002-0.971-0.3-1.353c-0.301-0.38-0.761-0.602-1.246-0.602h-0.061
		c-1.757,0-3.185-1.429-3.185-3.185v-0.104C359.131,339.276,360.559,337.848,362.316,337.848z M360.368,347.193
		c-0.982,3.026-2.642,5.763-4.877,8.048c-0.771-0.758-1.729-1.307-2.803-1.596c-1.643-0.438-3.355-0.213-4.826,0.637l-0.092,0.053
		c-2.424,1.398-3.58,4.166-3.055,6.77c-1.342,0.27-2.711,0.403-4.09,0.403c-1.789,0-3.554-0.226-5.265-0.673
		c0.232-1.003,0.216-2.053-0.057-3.074c-0.44-1.642-1.493-3.014-2.965-3.863l-0.09-0.053c-2.36-1.362-5.232-1.051-7.227,0.597
		c-2.078-2.36-3.579-5.135-4.411-8.153c2.519-0.851,4.301-3.216,4.301-6.025v-0.104c0-2.649-1.658-4.966-4.013-5.909
		c0.973-2.967,2.599-5.66,4.779-7.917c1.995,1.727,4.917,2.071,7.327,0.681l0.091-0.053c2.33-1.345,3.502-3.971,3.102-6.507
		c1.449-0.315,2.933-0.475,4.428-0.475c1.641,0,3.265,0.19,4.846,0.57c-0.066,0.308-0.104,0.615-0.111,0.92
		c-0.086,3.189,1.6,5.007,2.699,5.639c2.976,2.125,6.064,1.003,7.325,0.085c0.202-0.138,0.396-0.287,0.579-0.446
		c2.149,2.349,3.714,5.127,4.598,8.167c-2.658,0.764-4.607,3.217-4.607,6.116v0.104
		C355.954,343.966,357.811,346.369,360.368,347.193z"/>
	<path fill="#06AEEE" d="M348.012,328.702c-0.749-0.459-1.727-0.225-2.186,0.523c-0.458,0.748-0.224,1.726,0.523,2.185
		c3.141,1.925,5.091,5.391,5.091,9.045c0,5.833-4.746,10.581-10.58,10.581c-5.833,0-10.58-4.747-10.58-10.581
		c0-0.68,0.065-1.36,0.192-2.021c0.167-0.862-0.397-1.695-1.258-1.862c-0.862-0.167-1.695,0.397-1.861,1.258
		c-0.166,0.859-0.25,1.743-0.25,2.625c0,7.584,6.171,13.756,13.757,13.756c7.585,0,13.757-6.172,13.757-13.756
		C354.618,335.705,352.086,331.201,348.012,328.702z"/>
	<path fill="#06AEEE" d="M330.901,333.877l0.033,0.024c0.288,0.22,0.626,0.325,0.961,0.325c0.479,0,0.953-0.215,1.265-0.626
		c0.531-0.698,0.397-1.695-0.301-2.226l-0.033-0.026c-0.698-0.532-1.695-0.397-2.227,0.301
		C330.068,332.349,330.203,333.345,330.901,333.877z"/>
	<path fill="#13335B" d="M379.579,339.748h-3.627c-0.145-7.415-2.565-14.445-7.025-20.373c-0.146-0.197-0.297-0.392-0.449-0.585
		c-0.541-0.689-1.54-0.81-2.229-0.268c-0.69,0.542-0.811,1.541-0.268,2.231c0.138,0.175,0.273,0.352,0.408,0.531
		c4.041,5.374,6.242,11.744,6.386,18.464h-3.611c-0.878,0-1.589,0.71-1.589,1.588c0,0.877,0.711,1.589,1.589,1.589h3.523
		c-1.23,15.991-14.297,28.718-30.432,29.414v-3.177c0-0.877-0.711-1.589-1.588-1.589c-0.876,0-1.588,0.712-1.588,1.589v3.16
		c-15.955-0.884-28.822-13.535-30.043-29.397h3.135c0.877,0,1.589-0.712,1.589-1.589c0-0.877-0.711-1.588-1.589-1.588h-3.22
		c0.362-16.681,13.586-30.251,30.128-31.166v3.588c0,0.877,0.711,1.589,1.588,1.589c0.877,0,1.588-0.711,1.588-1.589v-3.608
		c5.363,0.233,10.574,1.806,15.152,4.587c0.75,0.454,1.727,0.216,2.182-0.533c0.456-0.75,0.217-1.728-0.533-2.183
		c-5.074-3.082-10.855-4.815-16.801-5.05v-3.629c0-0.876-0.711-1.588-1.588-1.588c-0.876,0-1.588,0.711-1.588,1.588v3.645
		c-8.705,0.433-16.828,4.028-23.035,10.235c-6.463,6.462-10.093,15.002-10.271,24.113h-4.017c-0.877,0-1.588,0.711-1.588,1.588
		c0,0.878,0.711,1.59,1.588,1.59h4.095c0.583,8.442,4.149,16.302,10.193,22.345c6.207,6.206,14.33,9.802,23.035,10.234v4.073
		c0,0.878,0.711,1.589,1.588,1.589c0.877,0,1.588-0.711,1.588-1.589v-4.058c8.853-0.344,17.125-3.951,23.425-10.25
		c6.042-6.043,9.609-13.902,10.193-22.345h3.706c0.876,0,1.588-0.712,1.588-1.59C381.167,340.459,380.455,339.748,379.579,339.748z"
		/>
	<path fill="#06AEEE" d="M340.861,348.43c4.347,0,7.884-3.536,7.884-7.885c0-4.347-3.537-7.884-7.884-7.884
		c-4.347,0-7.884,3.537-7.884,7.884C332.977,344.894,336.514,348.43,340.861,348.43z M340.861,335.839
		c2.596,0,4.707,2.11,4.707,4.706c0,2.597-2.111,4.708-4.707,4.708c-2.595,0-4.707-2.111-4.707-4.708
		C336.154,337.949,338.266,335.839,340.861,335.839z"/>
	<path fill="#13335B" d="M362.193,316.737l0.034,0.025c0.287,0.219,0.625,0.324,0.96,0.324c0.479,0,0.953-0.215,1.266-0.626
		c0.531-0.698,0.396-1.695-0.303-2.226l-0.033-0.025c-0.699-0.531-1.695-0.396-2.226,0.303
		C361.36,315.21,361.496,316.207,362.193,316.737z"/>
</g>
</svg>
