<?xml version="1.0" encoding="utf-8"?>
<!-- Generator: Adobe Illustrator 16.0.0, SVG Export Plug-In . SVG Version: 6.00 Build 0)  -->
<!DOCTYPE svg PUBLIC "-//W3C//DTD SVG 1.1//EN" "http://www.w3.org/Graphics/SVG/1.1/DTD/svg11.dtd">
<svg version="1.1" id="Layer_1" xmlns="http://www.w3.org/2000/svg" xmlns:xlink="http://www.w3.org/1999/xlink" x="0px" y="0px"
	 width="87px" height="81px" viewBox="212.5 215.5 87 81" enable-background="new 212.5 215.5 87 81" xml:space="preserve">
<g>
	<g id="XMLID_996_">
		<g>
			<g id="XMLID_23_">
				<path id="XMLID_25_" fill="#13335B" d="M265.667,236.864c0.331,0.332,0.767,0.498,1.201,0.498s0.87-0.166,1.201-0.498
					c0.664-0.664,0.664-1.739,0-2.403l-0.022-0.023c-0.664-0.664-1.739-0.664-2.403,0s-0.664,1.739,0,2.403L265.667,236.864z"/>
				<path id="XMLID_24_" fill="#13335B" d="M293.08,252.941l5.922-5.923c0.486-0.485,0.631-1.217,0.369-1.852
					c-0.264-0.635-0.883-1.049-1.57-1.049h-12.277c-1.605-6.569-4.973-12.555-9.787-17.37c-6.996-6.996-16.299-10.85-26.193-10.85
					s-19.197,3.854-26.193,10.85c-6.997,6.997-10.85,16.299-10.85,26.193s3.853,19.197,10.85,26.193
					c2.081,2.08,4.366,3.881,6.809,5.387l-5.119,9.044c-0.297,0.526-0.293,1.171,0.011,1.692c0.304,0.522,0.863,0.844,1.468,0.844
					h8.751c0.612,0,1.177-0.329,1.479-0.862l3.62-6.395c2.963,0.751,6.039,1.14,9.175,1.14c3.136,0,6.212-0.389,9.175-1.14
					l3.62,6.395c0.302,0.533,0.866,0.862,1.479,0.862h8.751c0.604,0,1.164-0.321,1.468-0.844c0.305-0.521,0.309-1.166,0.012-1.692
					l-5.119-9.044c2.442-1.506,4.729-3.306,6.809-5.387c4.813-4.813,8.182-10.801,9.787-17.37h12.277
					c0.688,0,1.307-0.414,1.57-1.049c0.262-0.635,0.117-1.365-0.369-1.852L293.08,252.941z M289.973,251.242h-11.858l3.726-3.726
					h11.859L289.973,251.242z M234.278,292.703h-4.846l3.699-6.534c1.269,0.629,2.572,1.185,3.905,1.661L234.278,292.703z
					 M269.653,292.703h-4.846l-2.759-4.873c1.333-0.477,2.637-1.032,3.906-1.661L269.653,292.703z M273.333,276.731
					c-2.244,2.245-4.751,4.132-7.45,5.635c-0.033,0.017-0.066,0.031-0.1,0.051c-0.021,0.012-0.039,0.024-0.059,0.037
					c-2.07,1.139-4.252,2.054-6.516,2.729c-0.089,0.018-0.177,0.044-0.264,0.076c-3.018,0.873-6.175,1.327-9.402,1.327
					c-3.228,0-6.385-0.454-9.402-1.327c-0.087-0.032-0.175-0.059-0.264-0.076c-2.263-0.675-4.445-1.59-6.515-2.729
					c-0.02-0.013-0.039-0.025-0.059-0.037c-0.033-0.019-0.066-0.034-0.1-0.05c-2.699-1.504-5.206-3.391-7.45-5.636
					c-6.355-6.354-9.854-14.804-9.854-23.79c0-8.987,3.5-17.436,9.854-23.79c6.354-6.355,14.804-9.854,23.791-9.854
					c8.987,0,17.436,3.5,23.79,9.854c4.176,4.176,7.154,9.319,8.683,14.967h-0.879c-0.451,0-0.884,0.179-1.202,0.498l-4.51,4.51
					c-0.455-3.09-1.454-6.094-2.962-8.825c-0.454-0.822-1.487-1.12-2.309-0.666c-0.822,0.453-1.12,1.487-0.667,2.309
					c1.613,2.921,2.515,6.099,2.745,9.299h-7.492c-0.378-3.441-1.899-6.63-4.383-9.114c-2.889-2.889-6.729-4.479-10.814-4.479
					s-7.925,1.591-10.814,4.479c-2.888,2.889-4.479,6.729-4.479,10.814s1.591,7.925,4.479,10.813
					c2.889,2.889,6.729,4.479,10.814,4.479s7.926-1.591,10.813-4.479c2.484-2.483,4.005-5.672,4.384-9.114h7.484
					c-0.405,5.312-2.646,10.467-6.581,14.401c-4.301,4.301-10.019,6.669-16.101,6.669c-6.082,0-11.8-2.368-16.101-6.669
					s-6.669-10.019-6.669-16.101s2.368-11.8,6.669-16.101c7.134-7.133,18.277-8.714,27.1-3.844c0.821,0.454,1.854,0.155,2.309-0.666
					c0.453-0.822,0.155-1.855-0.666-2.309c-4.868-2.688-10.6-3.758-16.139-3.015c-5.724,0.768-10.913,3.337-15.006,7.431
					c-4.943,4.942-7.665,11.514-7.665,18.503c0,6.989,2.722,13.562,7.664,18.504s11.514,7.664,18.504,7.664
					c6.99,0,13.562-2.722,18.504-7.664c4.016-4.017,6.563-9.087,7.384-14.682l4.504,4.504c0.318,0.318,0.751,0.497,1.2,0.497h0.881
					C280.486,267.412,277.507,272.558,273.333,276.731z M255.092,249.737c-0.469-0.813-1.508-1.091-2.321-0.622l-4.078,2.354
					c-0.526,0.304-0.85,0.865-0.85,1.472c0,0.607,0.324,1.168,0.85,1.472l4.078,2.354c0.268,0.154,0.56,0.228,0.848,0.228
					c0.587,0,1.158-0.305,1.473-0.85c0.276-0.478,0.292-1.033,0.094-1.505h6.13c-0.359,2.532-1.521,4.871-3.362,6.711l0,0
					c-2.247,2.247-5.234,3.484-8.411,3.484s-6.164-1.237-8.411-3.484c-2.247-2.246-3.483-5.232-3.483-8.41
					c0-3.177,1.237-6.164,3.484-8.411c2.247-2.247,5.233-3.484,8.411-3.484s6.164,1.237,8.411,3.484
					c1.841,1.841,3.003,4.179,3.362,6.711h-6.129C255.384,250.77,255.368,250.215,255.092,249.737z M281.84,258.366l-3.726-3.726
					h11.858l3.727,3.726H281.84z"/>
			</g>
		</g>
	</g>
	<path fill="#06AEEE" stroke="#06AEEE" stroke-width="0.2" stroke-miterlimit="10" d="M299.002,258.864l-5.922-5.923l5.922-5.923
		c0.486-0.485,0.631-1.217,0.369-1.852c-0.264-0.635-0.883-1.049-1.57-1.049h-11.771h-0.506h-3.508h-0.879
		c-0.451,0-0.884,0.179-1.202,0.498l-2.925,2.925l-1.585,1.585l-2.117,2.116h-1.075h-7.492l0,0h-3.424h-6.129
		c0.197-0.473,0.181-1.027-0.095-1.505c-0.469-0.813-1.508-1.091-2.321-0.622l-4.078,2.354c-0.526,0.304-0.85,0.865-0.85,1.472
		c0,0.607,0.324,1.168,0.85,1.472l4.078,2.354c0.268,0.154,0.56,0.228,0.848,0.228c0.587,0,1.158-0.305,1.473-0.85
		c0.276-0.478,0.292-1.033,0.094-1.505h6.13h3.424h1.553h5.427h0.505h1.083l2.123,2.123l4.504,4.504
		c0.318,0.318,0.751,0.497,1.2,0.497h0.881h3.508h1.926h10.352c0.688,0,1.307-0.414,1.57-1.049
		C299.633,260.081,299.488,259.351,299.002,258.864z M281.84,247.517h11.859l-3.727,3.726h-11.858L281.84,247.517z M281.84,258.366
		l-3.726-3.726h1.322h10.536l3.727,3.726H281.84z"/>
</g>
</svg>
