<?xml version="1.0" encoding="utf-8"?>
<!-- Generator: Adobe Illustrator 16.0.0, SVG Export Plug-In . SVG Version: 6.00 Build 0)  -->
<!DOCTYPE svg PUBLIC "-//W3C//DTD SVG 1.1//EN" "http://www.w3.org/Graphics/SVG/1.1/DTD/svg11.dtd">
<svg version="1.1" id="Layer_1" xmlns="http://www.w3.org/2000/svg" xmlns:xlink="http://www.w3.org/1999/xlink" x="0px" y="0px"
	 width="81px" height="81px" viewBox="258 258 81 81" enable-background="new 258 258 81 81" xml:space="preserve">
<g>
	<path fill="#06AEEE" d="M291.947,297.624l-1.052,6.132c-0.092,0.543,0.129,1.09,0.574,1.413c0.445,0.323,1.035,0.367,1.521,0.112
		l5.507-2.893l5.506,2.893c0.487,0.255,1.077,0.211,1.522-0.112c0.443-0.323,0.668-0.87,0.574-1.413l-1.051-6.132l4.453-4.342
		c0.395-0.384,0.537-0.959,0.367-1.482c-0.17-0.522-0.623-0.904-1.168-0.983l-6.154-0.896l-2.754-5.579
		c-0.243-0.493-0.745-0.806-1.296-0.806s-1.053,0.313-1.297,0.806l-2.751,5.579l-6.158,0.896c-0.544,0.079-0.997,0.461-1.167,0.983
		c-0.17,0.523-0.028,1.099,0.366,1.482L291.947,297.624z M295.618,292.672c0.471-0.069,0.878-0.364,1.089-0.791l1.792-3.633
		l1.793,3.634c0.209,0.427,0.617,0.722,1.089,0.79l4.009,0.583l-2.9,2.829c-0.342,0.333-0.498,0.812-0.416,1.281l0.685,3.992
		l-3.587-1.887c-0.421-0.221-0.924-0.221-1.344,0l-3.586,1.885l0.685-3.992c0.08-0.47-0.075-0.948-0.416-1.28l-2.902-2.829
		L295.618,292.672z"/>
	<path fill="#13335B" d="M325.194,327.764L325.194,327.764c-2.657,0.021-4.829-2.116-4.851-4.774s2.116-4.83,4.773-4.852h0.073
		c0.799-0.001,1.446-0.649,1.446-1.45v-57.242c0-0.798-0.648-1.446-1.446-1.446h-47.114c-4.261,0.005-7.713,3.457-7.717,7.718
		v57.234c0.005,4.253,3.451,7.698,7.703,7.703h1.974v0.323l0-0.001v-3.212h-1.975c-2.658,0-4.813-2.154-4.813-4.813
		s2.155-4.813,4.813-4.813h41.121c-0.784,0.979-1.316,2.136-1.551,3.368h-39.516c-0.798,0-1.446,0.647-1.446,1.447
		c0,0.798,0.647,1.445,1.446,1.445h1.918l0.002-0.003h2.891h10.659h0.148h2.892h21.006c0.234,1.23,0.767,2.387,1.551,3.365
		l-22.556,0.002l0,0v2.89h28.567c0.799,0,1.446-0.648,1.446-1.446C326.641,328.41,325.993,327.764,325.194,327.764z
		 M273.251,265.715c0.005-2.663,2.164-4.82,4.826-4.823h45.671v5.505h-45.671c-1.756-0.001-3.459,0.601-4.826,1.704V265.715z
		 M273.251,274.114c0.003-2.664,2.162-4.823,4.826-4.826h45.671v5.493h-45.671c-1.755-0.002-3.458,0.598-4.826,1.7V274.114z
		 M278.063,315.242c-0.18,0-0.357,0.016-0.535,0.027c-0.051,0-0.102,0-0.153,0.007c-0.154,0.015-0.304,0.037-0.455,0.06
		c-0.085,0.014-0.171,0.024-0.256,0.039c-0.145,0.026-0.28,0.06-0.419,0.093c-0.09,0.021-0.181,0.044-0.27,0.071
		c-0.133,0.039-0.265,0.079-0.395,0.123c-0.09,0.031-0.18,0.064-0.269,0.099c-0.126,0.05-0.251,0.098-0.373,0.152
		c-0.089,0.04-0.176,0.084-0.264,0.127c-0.118,0.056-0.237,0.112-0.351,0.178c-0.089,0.049-0.175,0.104-0.262,0.159
		c-0.187,0.114-0.368,0.234-0.543,0.361c-0.089,0.064-0.181,0.127-0.266,0.196V282.5c0.002-2.664,2.162-4.823,4.826-4.826h45.669
		v37.568H278.063z"/>
	<path fill="#06AEEE" d="M296.627,327.766L296.627,327.766l-0.001-3.367h-2.892v10.82l-4.757-2.375
		c-0.407-0.203-0.885-0.203-1.292,0l-4.757,2.375v-10.82h-2.891l-0.002,0.003h0.002v3.364v3.212l0,0.001v6.575
		c0,0.502,0.26,0.967,0.686,1.23c0.427,0.264,0.959,0.287,1.407,0.063l6.203-3.099l6.203,3.099c0.448,0.224,0.98,0.2,1.407-0.063
		c0.425-0.264,0.686-0.729,0.686-1.23v-6.898V327.766L296.627,327.766z"/>
</g>
</svg>
