<?xml version="1.0" encoding="utf-8"?>
<!-- Generator: Adobe Illustrator 16.0.0, SVG Export Plug-In . SVG Version: 6.00 Build 0)  -->
<!DOCTYPE svg PUBLIC "-//W3C//DTD SVG 1.1//EN" "http://www.w3.org/Graphics/SVG/1.1/DTD/svg11.dtd">
<svg version="1.1" id="Layer_1" xmlns="http://www.w3.org/2000/svg" xmlns:xlink="http://www.w3.org/1999/xlink" x="0px" y="0px"
	 width="73.01px" height="90px" viewBox="218.995 210.5 73.01 90" enable-background="new 218.995 210.5 73.01 90"
	 xml:space="preserve">
<g>
	<path fill="#13335B" d="M259.682,219.241l-0.3-0.099l0.199-0.243c0.71-0.873,1.101-1.971,1.101-3.091
		c0-2.715-2.221-4.924-4.95-4.924c-2.73,0-4.951,2.209-4.951,4.924c0,1.12,0.391,2.218,1.101,3.091l0.199,0.243l-0.299,0.099
		c-2.149,0.71-3.593,2.698-3.593,4.947v5.022c0,0.891,0.729,1.617,1.625,1.617h11.835c0.896,0,1.625-0.726,1.625-1.617v-5.022
		C263.274,221.939,261.83,219.951,259.682,219.241z M255.731,212.639c1.756,0,3.185,1.421,3.185,3.168
		c0,1.747-1.429,3.168-3.187,3.168c-1.755-0.002-3.182-1.423-3.182-3.168C252.547,214.061,253.976,212.639,255.731,212.639z
		 M261.508,229.071h-1.584v-3.736c0-0.484-0.396-0.879-0.884-0.879c-0.486,0-0.882,0.395-0.882,0.879v3.736h-4.854v-3.736
		c0-0.484-0.396-0.879-0.883-0.879c-0.486,0-0.882,0.395-0.882,0.879v3.736h-1.585v-4.883c0-1.906,1.559-3.457,3.476-3.457h4.604
		c1.916,0,3.475,1.551,3.475,3.457V229.071z"/>
	<path fill="#13335B" d="M288.411,237.306l-0.298-0.099l0.197-0.244c0.711-0.872,1.102-1.97,1.102-3.091
		c0-2.715-2.221-4.924-4.95-4.924s-4.95,2.209-4.95,4.924c0,1.121,0.392,2.219,1.102,3.091l0.197,0.244l-0.298,0.099
		c-2.149,0.71-3.593,2.699-3.593,4.948v5.022c0,0.892,0.729,1.616,1.624,1.616h11.835c0.896,0,1.626-0.725,1.626-1.616v-5.022
		C292.005,240.004,290.561,238.016,288.411,237.306z M284.462,230.704c1.756,0,3.185,1.421,3.185,3.168
		c0,1.747-1.43,3.168-3.188,3.168c-1.755-0.001-3.182-1.423-3.182-3.168C281.277,232.125,282.706,230.704,284.462,230.704z
		 M290.239,247.136h-1.585V243.4c0-0.485-0.396-0.878-0.884-0.878c-0.486,0-0.883,0.394-0.883,0.878v3.736h-4.853V243.4
		c0-0.485-0.396-0.878-0.883-0.878c-0.486,0-0.883,0.394-0.883,0.878v3.736h-1.585v-4.882c0-1.907,1.56-3.457,3.476-3.457h4.604
		c1.916,0,3.476,1.55,3.476,3.457V247.136z"/>
	<path fill="#13335B" d="M287.938,269.084l-0.299-0.099l0.198-0.243c0.711-0.873,1.102-1.972,1.102-3.092
		c0-2.715-2.221-4.924-4.95-4.924s-4.95,2.209-4.95,4.924c0,1.12,0.392,2.219,1.102,3.092l0.197,0.243l-0.299,0.099
		c-2.148,0.71-3.592,2.698-3.592,4.947v5.023c0,0.892,0.729,1.616,1.624,1.616h11.835c0.896,0,1.626-0.725,1.626-1.616v-5.023
		C291.531,271.782,290.087,269.794,287.938,269.084z M283.988,262.482c1.756,0,3.185,1.421,3.185,3.168s-1.43,3.169-3.188,3.169
		c-1.755-0.002-3.183-1.424-3.183-3.169C280.803,263.903,282.232,262.482,283.988,262.482z M289.766,278.914h-1.586v-3.736
		c0-0.484-0.396-0.879-0.883-0.879c-0.486,0-0.883,0.395-0.883,0.879v3.736h-4.853v-3.736c0-0.484-0.396-0.879-0.883-0.879
		s-0.883,0.395-0.883,0.879v3.736h-1.585v-4.883c0-1.905,1.559-3.456,3.476-3.456h4.604c1.916,0,3.476,1.551,3.476,3.456V278.914z"
		/>
	<path fill="#13335B" d="M259.682,288.53l-0.3-0.099l0.199-0.244c0.71-0.872,1.101-1.971,1.101-3.092
		c0-2.714-2.221-4.923-4.95-4.923c-2.73,0-4.951,2.209-4.951,4.923c0,1.121,0.392,2.22,1.102,3.092l0.199,0.244l-0.299,0.099
		c-2.149,0.71-3.593,2.698-3.593,4.947v5.022c0,0.893,0.729,1.617,1.625,1.617h11.836c0.896,0,1.625-0.725,1.625-1.617v-5.022
		C263.274,291.229,261.83,289.24,259.682,288.53z M255.731,281.929c1.756,0,3.185,1.421,3.185,3.167
		c0,1.748-1.429,3.169-3.187,3.169c-1.755-0.002-3.182-1.423-3.182-3.169S253.975,281.929,255.731,281.929z M261.508,298.36h-1.584
		v-3.736c0-0.485-0.396-0.879-0.884-0.879s-0.882,0.394-0.882,0.879v3.736h-4.854v-3.736c0-0.485-0.396-0.879-0.882-0.879
		c-0.486,0-0.882,0.394-0.882,0.879v3.736h-1.586v-4.883c0-1.907,1.56-3.457,3.476-3.457h4.604c1.916,0,3.475,1.55,3.475,3.457
		V298.36z"/>
	<path fill="#13335B" d="M231.425,269.084l-0.299-0.099l0.198-0.243c0.71-0.873,1.101-1.972,1.101-3.092
		c0-2.715-2.22-4.924-4.95-4.924s-4.95,2.209-4.95,4.924c0,1.12,0.391,2.219,1.101,3.092l0.198,0.243l-0.299,0.099
		c-2.149,0.71-3.593,2.698-3.593,4.947v5.023c0,0.892,0.729,1.616,1.625,1.616h11.835c0.896,0,1.625-0.725,1.625-1.616v-5.023
		C235.018,271.782,233.574,269.794,231.425,269.084z M227.475,262.482c1.756,0,3.185,1.421,3.185,3.168s-1.43,3.169-3.187,3.169
		c-1.755-0.002-3.183-1.424-3.183-3.169C224.29,263.903,225.719,262.482,227.475,262.482z M233.252,278.914h-1.584v-3.736
		c0-0.484-0.396-0.879-0.883-0.879s-0.883,0.395-0.883,0.879v3.736h-4.854v-3.736c0-0.484-0.396-0.879-0.882-0.879
		c-0.486,0-0.882,0.395-0.882,0.879v3.736h-1.586v-4.883c0-1.905,1.56-3.456,3.476-3.456h4.604c1.916,0,3.475,1.551,3.475,3.456
		V278.914z"/>
	<path fill="#13335B" d="M230.487,237.306l-0.299-0.099l0.198-0.244c0.71-0.872,1.101-1.97,1.101-3.091
		c0-2.716-2.221-4.924-4.95-4.924c-2.73,0-4.951,2.208-4.951,4.924c0,1.121,0.391,2.219,1.101,3.091l0.198,0.244l-0.299,0.099
		c-2.149,0.71-3.593,2.699-3.593,4.948v5.022c0,0.892,0.729,1.616,1.625,1.616h11.835c0.896,0,1.625-0.725,1.625-1.616v-5.022
		C234.08,240.004,232.637,238.016,230.487,237.306z M226.537,230.704c1.756,0,3.186,1.421,3.186,3.168
		c0,1.747-1.43,3.168-3.188,3.168c-1.755-0.001-3.183-1.423-3.183-3.168C223.353,232.125,224.781,230.704,226.537,230.704z
		 M232.314,247.136h-1.585V243.4c0-0.485-0.396-0.878-0.883-0.878c-0.486,0-0.882,0.394-0.882,0.878v3.736h-4.853V243.4
		c0-0.485-0.396-0.878-0.882-0.878c-0.487,0-0.883,0.394-0.883,0.878v3.736h-1.585v-4.882c0-1.907,1.559-3.457,3.475-3.457h4.604
		c1.916,0,3.475,1.55,3.475,3.457V247.136z"/>
	<path fill="#13335B" d="M259.682,252.873l-0.3-0.099l0.198-0.243c0.71-0.872,1.101-1.97,1.101-3.091
		c0-2.715-2.22-4.923-4.949-4.923c-2.73,0-4.951,2.208-4.951,4.923c0,1.121,0.391,2.219,1.101,3.091l0.199,0.243l-0.299,0.099
		c-2.149,0.71-3.593,2.699-3.593,4.948v5.021c0,0.892,0.729,1.618,1.625,1.618h11.836c0.895,0,1.624-0.727,1.624-1.618v-5.021
		C263.273,255.572,261.83,253.583,259.682,252.873z M255.731,246.272c1.756,0,3.185,1.42,3.185,3.167
		c0,1.747-1.43,3.168-3.188,3.168c-1.755-0.001-3.182-1.422-3.182-3.168C252.546,247.693,253.975,246.272,255.731,246.272z
		 M261.508,262.703h-1.584v-3.735c0-0.485-0.397-0.879-0.884-0.879c-0.487,0-0.883,0.394-0.883,0.879v3.735h-4.853v-3.735
		c0-0.485-0.396-0.879-0.882-0.879c-0.487,0-0.883,0.394-0.883,0.879v3.735h-1.586v-4.882c0-1.907,1.56-3.458,3.476-3.458h4.604
		c1.916,0,3.475,1.55,3.475,3.458V262.703z"/>
	<path fill="#06AEEE" d="M273.787,264.877l-2.922-1.679l0.271-0.561c0.645-1.333,1.112-2.745,1.39-4.198
		c0.032-0.169-0.003-0.34-0.102-0.482c-0.097-0.143-0.244-0.239-0.415-0.271c-0.363-0.067-0.691,0.171-0.758,0.515
		c-1.41,7.397-7.938,12.767-15.521,12.767c-8.712,0-15.799-7.05-15.799-15.716c0-8.667,7.087-15.717,15.799-15.717
		c5.607,0,10.843,2.998,13.664,7.822l0.026,0.048c0.888,1.531,1.502,3.179,1.83,4.898c0.066,0.345,0.403,0.582,0.758,0.514
		c0.171-0.033,0.318-0.128,0.415-0.27c0.099-0.143,0.134-0.315,0.102-0.484c-0.276-1.45-0.743-2.862-1.39-4.198l-0.271-0.56
		l2.923-1.679c0.31-0.178,0.416-0.573,0.237-0.881c-0.116-0.2-0.332-0.323-0.563-0.323c-0.113,0-0.225,0.031-0.323,0.087
		l-2.927,1.68l-0.352-0.513c-2.956-4.306-7.642-6.996-12.857-7.381l-0.624-0.045v-3.367c0-0.355-0.29-0.645-0.648-0.645
		s-0.649,0.29-0.649,0.645v3.363l-0.624,0.046c-5.203,0.382-9.888,3.076-12.852,7.388l-0.352,0.513l-2.932-1.684
		c-0.099-0.056-0.21-0.087-0.324-0.087c-0.231,0-0.447,0.124-0.562,0.323c-0.179,0.308-0.072,0.703,0.238,0.881l2.929,1.683
		l-0.272,0.56c-2.249,4.623-2.249,10.142,0,14.765l0.272,0.561l-2.929,1.683c-0.15,0.086-0.257,0.226-0.303,0.392
		c-0.044,0.167-0.021,0.34,0.065,0.488c0.116,0.199,0.332,0.324,0.563,0.324c0.112,0,0.224-0.03,0.322-0.088l2.932-1.683
		l0.352,0.512c2.964,4.313,7.648,7.007,12.852,7.388l0.624,0.046v3.363c0,0.355,0.291,0.645,0.648,0.645
		c0.358,0,0.648-0.289,0.648-0.645v-3.365l0.624-0.047c5.215-0.385,9.9-3.075,12.857-7.381l0.352-0.513l2.927,1.68
		c0.099,0.058,0.21,0.088,0.323,0.088c0.23,0,0.446-0.124,0.563-0.323C274.204,265.449,274.097,265.054,273.787,264.877z"/>
</g>
</svg>
