<?xml version="1.0" encoding="utf-8"?>
<!-- Generator: Adobe Illustrator 16.0.0, SVG Export Plug-In . SVG Version: 6.00 Build 0)  -->
<!DOCTYPE svg PUBLIC "-//W3C//DTD SVG 1.1//EN" "http://www.w3.org/Graphics/SVG/1.1/DTD/svg11.dtd">
<svg version="1.1" id="Layer_1" xmlns="http://www.w3.org/2000/svg" xmlns:xlink="http://www.w3.org/1999/xlink" x="0px" y="0px"
	 width="72.682px" height="90px" viewBox="0 0 72.682 90" enable-background="new 0 0 72.682 90" xml:space="preserve">
<g>
	<path fill="#13335B" d="M40.181,9.695l-0.29-0.097l0.192-0.238c0.69-0.853,1.071-1.926,1.071-3.021c0-2.654-2.16-4.813-4.813-4.813
		c-2.654,0-4.813,2.159-4.813,4.813c0,1.096,0.38,2.168,1.071,3.021l0.193,0.238l-0.291,0.097c-2.09,0.695-3.493,2.638-3.493,4.836
		v4.909c0,0.871,0.709,1.58,1.58,1.58h11.506c0.872,0,1.58-0.709,1.58-1.58v-4.909C43.674,12.333,42.27,10.39,40.181,9.695z
		 M36.34,3.243c1.708,0,3.098,1.389,3.098,3.096c0,1.708-1.391,3.097-3.099,3.097c-1.707-0.002-3.094-1.391-3.094-3.097
		C33.245,4.632,34.634,3.243,36.34,3.243z M41.958,19.303h-1.541v-3.651c0-0.474-0.386-0.859-0.859-0.859
		c-0.473,0-0.858,0.386-0.858,0.859v3.651h-4.718v-3.651c0-0.474-0.385-0.859-0.858-0.859s-0.858,0.386-0.858,0.859v3.651h-1.542
		v-4.772c0-1.863,1.516-3.378,3.379-3.378h4.475c1.863,0,3.38,1.516,3.38,3.378V19.303z"/>
	<path fill="#13335B" d="M69.19,42.436l-0.291-0.097l0.193-0.238c0.689-0.853,1.07-1.925,1.07-3.021
		c0-2.654-2.159-4.813-4.813-4.813c-2.654,0-4.813,2.159-4.813,4.813c0,1.096,0.38,2.168,1.07,3.021l0.193,0.238l-0.291,0.097
		c-2.09,0.695-3.493,2.638-3.493,4.836v4.909c0,0.872,0.709,1.581,1.58,1.581h11.507c0.87,0,1.579-0.709,1.579-1.581v-4.909
		C72.682,45.073,71.279,43.13,69.19,42.436z M65.349,35.983c1.707,0,3.096,1.389,3.096,3.096c0,1.708-1.39,3.097-3.099,3.097
		c-1.705-0.002-3.093-1.391-3.093-3.097C62.253,37.373,63.642,35.983,65.349,35.983z M70.965,52.044h-1.541v-3.651
		c0-0.475-0.385-0.859-0.857-0.859c-0.474,0-0.858,0.385-0.858,0.859v3.651H62.99v-3.651c0-0.475-0.385-0.859-0.857-0.859
		c-0.474,0-0.858,0.385-0.858,0.859v3.651h-1.542v-4.772c0-1.863,1.516-3.379,3.38-3.379h4.476c1.862,0,3.378,1.516,3.378,3.379
		V52.044z"/>
	<path fill="#13335B" d="M40.181,77.42l-0.291-0.097l0.193-0.238c0.69-0.853,1.07-1.925,1.07-3.021c0-2.654-2.159-4.814-4.813-4.814
		c-2.654,0-4.813,2.16-4.813,4.814c0,1.096,0.38,2.168,1.07,3.021l0.193,0.238l-0.291,0.097c-2.089,0.694-3.493,2.638-3.493,4.836
		v4.909c0,0.871,0.708,1.58,1.579,1.58h11.507c0.871,0,1.58-0.709,1.58-1.58v-4.909C43.674,80.058,42.27,78.114,40.181,77.42z
		 M36.34,70.968c1.708,0,3.098,1.389,3.098,3.097c0,1.707-1.391,3.096-3.099,3.096c-1.707-0.001-3.095-1.391-3.095-3.096
		C33.245,72.356,34.634,70.968,36.34,70.968z M41.958,87.028h-1.54v-3.651c0-0.475-0.386-0.859-0.859-0.859
		c-0.473,0-0.858,0.385-0.858,0.859v3.651h-4.718v-3.651c0-0.475-0.385-0.859-0.858-0.859s-0.858,0.385-0.858,0.859v3.651h-1.542
		v-4.772c0-1.863,1.516-3.379,3.379-3.379h4.476c1.863,0,3.379,1.516,3.379,3.379V87.028z"/>
	<path fill="#13335B" d="M11.173,42.436l-0.291-0.097l0.193-0.238c0.69-0.853,1.07-1.925,1.07-3.021
		c0-2.654-2.159-4.813-4.813-4.813S2.52,36.425,2.52,39.08c0,1.096,0.381,2.168,1.071,3.021l0.193,0.238l-0.291,0.097
		C1.404,43.13,0,45.073,0,47.271v4.909c0,0.872,0.709,1.581,1.58,1.581h11.507c0.871,0,1.58-0.709,1.58-1.581v-4.909
		C14.667,45.073,13.262,43.13,11.173,42.436z M7.333,35.983c1.708,0,3.097,1.389,3.097,3.096c0,1.708-1.391,3.097-3.099,3.097
		c-1.706-0.002-3.094-1.391-3.094-3.097C4.237,37.373,5.626,35.983,7.333,35.983z M12.95,52.044h-1.541v-3.651
		c0-0.475-0.385-0.859-0.858-0.859c-0.473,0-0.858,0.385-0.858,0.859v3.651H4.974v-3.651c0-0.475-0.385-0.859-0.858-0.859
		s-0.858,0.385-0.858,0.859v3.651H1.716v-4.772c0-1.863,1.516-3.379,3.379-3.379h4.476c1.863,0,3.378,1.516,3.378,3.379V52.044z"/>
	<path fill="#06AEEE" d="M22.559,73.518c-0.088,0-0.179-0.021-0.264-0.062c-6.177-2.952-11.377-7.896-14.643-13.921
		c-0.162-0.298-0.051-0.671,0.247-0.833c0.298-0.161,0.671-0.051,0.833,0.247c3.143,5.799,8.147,10.557,14.092,13.397
		c0.306,0.147,0.436,0.515,0.29,0.82C23.008,73.388,22.788,73.518,22.559,73.518z"/>
	<path fill="#06AEEE" d="M50.244,73.459c-0.229,0-0.448-0.128-0.554-0.348c-0.147-0.305-0.02-0.672,0.285-0.82
		c5.892-2.847,10.854-7.585,13.976-13.342c0.161-0.298,0.534-0.409,0.833-0.248c0.299,0.162,0.409,0.535,0.247,0.833
		c-3.242,5.982-8.399,10.905-14.521,13.864C50.424,73.439,50.333,73.459,50.244,73.459z"/>
	<path fill="#06AEEE" d="M64.325,29.098c-0.215,0-0.425-0.114-0.536-0.316c-3.17-5.7-7.946-10.211-13.813-13.045
		c-0.306-0.148-0.434-0.515-0.286-0.821c0.148-0.306,0.516-0.434,0.821-0.286c6.095,2.945,11.058,7.632,14.351,13.555
		c0.165,0.297,0.059,0.67-0.238,0.836C64.529,29.073,64.426,29.098,64.325,29.098z"/>
	<path fill="#06AEEE" d="M8.357,29.098c-0.101,0-0.203-0.025-0.298-0.078c-0.297-0.165-0.403-0.539-0.239-0.835
		c3.27-5.88,8.41-10.715,14.474-13.614c0.306-0.146,0.673-0.017,0.819,0.29c0.146,0.307,0.017,0.673-0.29,0.82
		c-5.835,2.789-10.783,7.442-13.93,13.102C8.782,28.984,8.573,29.098,8.357,29.098z"/>
</g>
</svg>
