<?xml version="1.0" encoding="utf-8"?>
<!-- Generator: Adobe Illustrator 16.0.0, SVG Export Plug-In . SVG Version: 6.00 Build 0)  -->
<!DOCTYPE svg PUBLIC "-//W3C//DTD SVG 1.1//EN" "http://www.w3.org/Graphics/SVG/1.1/DTD/svg11.dtd">
<svg version="1.1" id="Layer_1" xmlns="http://www.w3.org/2000/svg" xmlns:xlink="http://www.w3.org/1999/xlink" x="0px" y="0px"
	 width="90px" height="90px" viewBox="218.457 210.5 90 90" enable-background="new 218.457 210.5 90 90" xml:space="preserve">
<g>
	<path fill="#06AEEE" d="M286.288,294.557c-0.401,0-0.791-0.206-1.009-0.578c-0.325-0.557-0.138-1.271,0.419-1.598l0.086-0.051
		c0.556-0.327,1.271-0.145,1.599,0.41c0.329,0.556,0.146,1.271-0.41,1.6l-0.097,0.056
		C286.691,294.504,286.488,294.557,286.288,294.557z"/>
	<path fill="#06AEEE" d="M265.221,300.574c-0.63,0-1.147-0.498-1.167-1.133c-0.019-0.643,0.488-1.181,1.133-1.2l0.211-0.005
		c0.652-0.019,1.183,0.487,1.201,1.131c0.02,0.645-0.488,1.182-1.132,1.202l-0.211,0.005
		C265.244,300.574,265.232,300.574,265.221,300.574z M261.008,300.484c-0.027,0-0.054,0-0.079-0.002l-0.218-0.016
		c-0.644-0.049-1.127-0.606-1.08-1.249c0.048-0.646,0.612-1.126,1.251-1.08l0.204,0.016c0.643,0.043,1.129,0.599,1.085,1.244
		C262.13,300.012,261.617,300.484,261.008,300.484z M269.634,300.241c-0.578,0-1.08-0.43-1.156-1.019
		c-0.081-0.641,0.37-1.227,1.01-1.308l0.206-0.025c0.638-0.085,1.225,0.365,1.309,1.004c0.085,0.641-0.367,1.227-1.006,1.312
		l-0.211,0.025C269.733,300.238,269.685,300.241,269.634,300.241z M256.613,299.958c-0.065,0-0.132-0.005-0.198-0.016l-0.215-0.039
		c-0.635-0.11-1.058-0.717-0.946-1.352c0.112-0.635,0.717-1.059,1.353-0.945l0.201,0.033c0.636,0.109,1.063,0.712,0.954,1.347
		C257.665,299.558,257.172,299.958,256.613,299.958z M273.993,299.465c-0.531,0-1.011-0.366-1.137-0.903
		c-0.146-0.628,0.244-1.256,0.872-1.402l0.201-0.046c0.626-0.151,1.256,0.238,1.405,0.865c0.148,0.627-0.239,1.257-0.866,1.406
		l-0.21,0.049C274.17,299.454,274.081,299.465,273.993,299.465z M252.293,298.992c-0.104,0-0.209-0.016-0.314-0.044l-0.207-0.06
		c-0.621-0.175-0.982-0.82-0.807-1.439c0.175-0.622,0.82-0.984,1.441-0.807l0.199,0.057c0.621,0.172,0.984,0.814,0.813,1.437
		C253.273,298.652,252.805,298.992,252.293,298.992z M278.251,298.249c-0.485,0-0.939-0.307-1.105-0.79
		c-0.208-0.61,0.117-1.274,0.727-1.482l0.196-0.066c0.608-0.213,1.273,0.11,1.485,0.72c0.21,0.609-0.112,1.274-0.721,1.485
		l-0.203,0.069C278.505,298.229,278.376,298.249,278.251,298.249z M248.092,297.588c-0.141,0-0.284-0.025-0.424-0.079l-0.2-0.08
		c-0.6-0.236-0.895-0.915-0.657-1.514c0.236-0.6,0.915-0.895,1.514-0.658l0.194,0.077c0.6,0.233,0.896,0.912,0.662,1.511
		C249,297.308,248.559,297.588,248.092,297.588z M282.364,296.606c-0.443,0-0.864-0.252-1.063-0.679
		c-0.271-0.586-0.015-1.278,0.571-1.55l0.188-0.084c0.583-0.273,1.278-0.021,1.55,0.565c0.272,0.583,0.02,1.277-0.563,1.549
		l-0.197,0.09C282.692,296.573,282.526,296.606,282.364,296.606z M244.056,295.767c-0.179,0-0.361-0.041-0.533-0.128l-0.194-0.101
		c-0.572-0.298-0.794-1.004-0.496-1.574c0.298-0.573,1.002-0.793,1.575-0.496l0.181,0.093c0.573,0.294,0.801,0.997,0.506,1.571
		C244.889,295.535,244.48,295.767,244.056,295.767z M240.224,293.548c-0.217,0-0.437-0.062-0.634-0.189l-0.181-0.118
		c-0.54-0.353-0.69-1.078-0.337-1.616c0.355-0.538,1.079-0.69,1.617-0.335l0.172,0.11c0.541,0.352,0.694,1.075,0.343,1.616
		C240.981,293.36,240.607,293.548,240.224,293.548z M236.638,290.951c-0.256,0-0.514-0.082-0.73-0.255l-0.168-0.138
		c-0.501-0.405-0.579-1.14-0.172-1.641c0.406-0.5,1.142-0.577,1.643-0.171l0.158,0.128c0.504,0.402,0.585,1.137,0.182,1.64
		C237.319,290.803,236.979,290.951,236.638,290.951z M233.329,288.012c-0.295,0-0.591-0.112-0.819-0.335l-0.153-0.152
		c-0.459-0.453-0.461-1.193-0.007-1.651c0.455-0.457,1.194-0.46,1.651-0.006l0.146,0.146c0.46,0.452,0.465,1.189,0.014,1.649
		C233.933,287.895,233.631,288.012,233.329,288.012z M230.333,284.753c-0.335,0-0.668-0.143-0.899-0.422l-0.138-0.167
		c-0.41-0.498-0.337-1.233,0.162-1.643c0.498-0.408,1.234-0.337,1.643,0.162l0.131,0.157c0.412,0.495,0.342,1.232-0.154,1.645
		C230.86,284.665,230.595,284.753,230.333,284.753z M227.679,281.211c-0.377,0-0.746-0.18-0.971-0.515l-0.12-0.18
		c-0.357-0.535-0.213-1.261,0.323-1.618c0.538-0.358,1.262-0.214,1.62,0.323l0.114,0.171c0.36,0.536,0.219,1.261-0.316,1.62
		C228.128,281.146,227.902,281.211,227.679,281.211z M225.393,277.42c-0.417,0-0.82-0.225-1.031-0.616l-0.102-0.191
		c-0.301-0.57-0.084-1.275,0.487-1.578c0.57-0.3,1.276-0.082,1.578,0.488l0.095,0.181c0.305,0.567,0.09,1.274-0.478,1.579
		C225.769,277.376,225.58,277.42,225.393,277.42z M223.503,273.418c-0.46,0-0.896-0.272-1.081-0.723l-0.081-0.2
		c-0.243-0.598,0.043-1.276,0.641-1.521c0.598-0.242,1.279,0.047,1.522,0.643l0.077,0.192c0.245,0.596-0.04,1.277-0.636,1.522
		C223.8,273.39,223.651,273.418,223.503,273.418z M222.028,269.245c-0.504,0-0.968-0.328-1.118-0.835l-0.062-0.207
		c-0.18-0.62,0.174-1.268,0.794-1.448c0.62-0.181,1.267,0.176,1.447,0.794l0.058,0.196c0.184,0.618-0.168,1.268-0.787,1.452
		C222.25,269.229,222.138,269.245,222.028,269.245z M220.985,264.944c-0.55,0-1.04-0.39-1.146-0.95l-0.04-0.213
		c-0.117-0.635,0.303-1.244,0.937-1.36c0.635-0.115,1.244,0.304,1.36,0.937l0.038,0.202c0.12,0.633-0.297,1.244-0.931,1.364
		C221.129,264.938,221.057,264.944,220.985,264.944z M220.384,260.561c-0.6,0-1.111-0.46-1.162-1.069l-0.018-0.216
		c-0.051-0.643,0.428-1.206,1.07-1.257c0.642-0.052,1.206,0.428,1.257,1.07l0.017,0.204c0.056,0.643-0.421,1.208-1.064,1.263
		C220.451,260.559,220.417,260.561,220.384,260.561z M220.226,256.136c-0.005,0-0.01,0-0.016,0c-0.645-0.01-1.161-0.539-1.152-1.183
		l0.002-0.219c0.013-0.645,0.55-1.153,1.19-1.145c0.646,0.012,1.157,0.544,1.145,1.189l-0.004,0.205
		C221.385,255.623,220.863,256.136,220.226,256.136z M220.509,251.716c-0.044,0-0.089-0.002-0.134-0.008
		c-0.64-0.073-1.101-0.651-1.028-1.292l0.025-0.217c0.077-0.64,0.658-1.097,1.298-1.02c0.641,0.077,1.098,0.658,1.021,1.298
		l-0.023,0.204C221.6,251.277,221.095,251.716,220.509,251.716z M221.234,247.348c-0.083,0-0.167-0.009-0.251-0.027
		c-0.629-0.138-1.029-0.76-0.892-1.39l0.047-0.211c0.14-0.629,0.765-1.025,1.394-0.885c0.63,0.14,1.026,0.764,0.885,1.394
		l-0.045,0.2C222.254,246.975,221.771,247.348,221.234,247.348z M222.396,243.076c-0.12,0-0.243-0.02-0.365-0.059
		c-0.612-0.201-0.946-0.86-0.744-1.473l0.068-0.207c0.205-0.611,0.865-0.942,1.477-0.737c0.612,0.204,0.942,0.866,0.738,1.478
		l-0.064,0.194C223.344,242.764,222.888,243.076,222.396,243.076z M223.988,238.944c-0.158,0-0.32-0.033-0.475-0.101
		c-0.588-0.263-0.853-0.952-0.591-1.541l0.087-0.197c0.265-0.588,0.955-0.851,1.543-0.586c0.588,0.264,0.851,0.956,0.586,1.543
		l-0.084,0.189C224.862,238.687,224.435,238.944,223.988,238.944z"/>
	<path fill="#06AEEE" d="M226.006,234.97c-0.198,0-0.397-0.05-0.581-0.155c-0.56-0.321-0.752-1.034-0.431-1.594l0.053-0.092
		c0.321-0.559,1.035-0.751,1.594-0.431s0.752,1.035,0.431,1.594l-0.053,0.092C226.803,234.76,226.41,234.97,226.006,234.97z"/>
</g>
<path fill="#06AEEE" d="M300.982,280.43c-0.216,0-0.435-0.062-0.629-0.187c-0.544-0.348-0.701-1.07-0.354-1.613l0.112-0.175
	c0.347-0.545,1.067-0.703,1.612-0.359c0.545,0.347,0.706,1.068,0.359,1.611l-0.118,0.186
	C301.744,280.239,301.367,280.43,300.982,280.43z M303.199,276.563c-0.178,0-0.358-0.04-0.528-0.128
	c-0.574-0.292-0.805-0.995-0.511-1.569l0.093-0.184c0.288-0.575,0.99-0.81,1.566-0.521c0.577,0.289,0.81,0.991,0.521,1.566
	l-0.099,0.195C304.035,276.33,303.626,276.563,303.199,276.563z M305.013,272.492c-0.141,0-0.283-0.025-0.421-0.079
	c-0.602-0.231-0.9-0.907-0.67-1.509l0.073-0.191c0.229-0.604,0.902-0.907,1.506-0.679c0.603,0.228,0.907,0.901,0.68,1.505
	l-0.08,0.206C305.923,272.208,305.48,272.492,305.013,272.492z M306.399,268.257c-0.102,0-0.203-0.013-0.307-0.041
	c-0.622-0.168-0.99-0.809-0.822-1.431l0.054-0.202c0.166-0.623,0.806-0.993,1.428-0.827c0.624,0.165,0.996,0.804,0.83,1.427
	l-0.057,0.21C307.385,267.913,306.913,268.257,306.399,268.257z M307.345,263.901c-0.061,0-0.122-0.005-0.186-0.015
	c-0.637-0.103-1.071-0.701-0.969-1.338l0.034-0.209c0.102-0.637,0.697-1.071,1.337-0.969c0.637,0.102,1.071,0.7,0.969,1.337
	l-0.034,0.211C308.404,263.493,307.908,263.901,307.345,263.901z M307.842,259.472c-0.023,0-0.048-0.001-0.072-0.002
	c-0.644-0.04-1.135-0.594-1.095-1.236l0.012-0.206c0.036-0.644,0.587-1.138,1.231-1.101c0.644,0.036,1.137,0.587,1.101,1.23
	l-0.013,0.219C308.969,258.995,308.455,259.472,307.842,259.472z M307.89,255.015c-0.624,0-1.143-0.493-1.167-1.122l-0.008-0.205
	c-0.029-0.644,0.472-1.189,1.115-1.217c0.646-0.031,1.188,0.471,1.217,1.115l0.011,0.217c0.024,0.644-0.478,1.187-1.122,1.211
	C307.92,255.015,307.905,255.015,307.89,255.015z M307.491,250.58c-0.57,0-1.068-0.419-1.153-1l-0.031-0.21
	c-0.091-0.638,0.351-1.23,0.989-1.323c0.637-0.092,1.229,0.35,1.323,0.988l0.03,0.21c0.092,0.638-0.351,1.23-0.989,1.323
	C307.604,250.576,307.547,250.58,307.491,250.58z M306.646,246.208c-0.524,0-1-0.355-1.132-0.887l-0.052-0.203
	c-0.156-0.625,0.225-1.259,0.849-1.417c0.628-0.156,1.261,0.223,1.417,0.848l0.053,0.21c0.155,0.625-0.227,1.258-0.854,1.414
	C306.834,246.197,306.739,246.208,306.646,246.208z M305.36,241.943c-0.479,0-0.929-0.297-1.1-0.774l-0.07-0.193
	c-0.221-0.605,0.092-1.275,0.697-1.497c0.605-0.22,1.276,0.091,1.498,0.697l0.074,0.207c0.217,0.607-0.1,1.275-0.706,1.492
	C305.623,241.921,305.49,241.943,305.36,241.943z M303.644,237.833c-0.436,0-0.853-0.244-1.054-0.662l-0.09-0.187
	c-0.28-0.581-0.037-1.279,0.543-1.56s1.279-0.038,1.559,0.542l0.095,0.193c0.279,0.582,0.033,1.278-0.548,1.558
	C303.984,237.796,303.813,237.833,303.644,237.833z M301.518,233.92c-0.395,0-0.776-0.198-0.997-0.558l-0.109-0.176
	c-0.339-0.549-0.167-1.269,0.38-1.607c0.549-0.339,1.269-0.169,1.608,0.379l0.112,0.184c0.337,0.549,0.165,1.269-0.386,1.605
	C301.937,233.864,301.726,233.92,301.518,233.92z M299.005,230.242c-0.353,0-0.701-0.159-0.932-0.461l-0.124-0.164
	c-0.394-0.511-0.298-1.244,0.214-1.637c0.511-0.393,1.243-0.298,1.637,0.213l0.134,0.174c0.39,0.513,0.291,1.246-0.225,1.636
	C299.499,230.164,299.251,230.242,299.005,230.242z M296.132,226.836c-0.313,0-0.623-0.124-0.854-0.37l-0.142-0.151
	c-0.442-0.469-0.42-1.208,0.048-1.651c0.468-0.442,1.207-0.42,1.65,0.048l0.148,0.158c0.441,0.471,0.417,1.209-0.055,1.65
	C296.704,226.732,296.417,226.836,296.132,226.836z M292.93,223.738c-0.273,0-0.549-0.095-0.771-0.291l-0.152-0.134
	c-0.489-0.422-0.542-1.159-0.119-1.646c0.422-0.487,1.159-0.541,1.646-0.118l0.167,0.144c0.484,0.426,0.532,1.164,0.105,1.648
	C293.575,223.604,293.254,223.738,292.93,223.738z M289.431,220.979c-0.232,0-0.47-0.07-0.675-0.216l-0.168-0.119
	c-0.529-0.37-0.655-1.098-0.286-1.626c0.371-0.527,1.099-0.655,1.628-0.285l0.178,0.126c0.526,0.374,0.649,1.102,0.277,1.627
	C290.156,220.808,289.797,220.979,289.431,220.979z M239.031,220.757c-0.371,0-0.733-0.175-0.96-0.501
	c-0.368-0.529-0.237-1.256,0.292-1.625l0.179-0.125c0.529-0.366,1.257-0.232,1.624,0.298c0.366,0.531,0.232,1.257-0.298,1.624
	l-0.17,0.118C239.494,220.688,239.262,220.757,239.031,220.757z M285.672,218.587c-0.195,0-0.393-0.049-0.574-0.152l-0.183-0.103
	c-0.562-0.316-0.763-1.028-0.445-1.59c0.315-0.562,1.027-0.761,1.589-0.445l0.188,0.105c0.562,0.317,0.76,1.03,0.441,1.591
	C286.475,218.374,286.078,218.587,285.672,218.587z M242.81,218.399c-0.41,0-0.808-0.218-1.022-0.601
	c-0.312-0.563-0.109-1.274,0.454-1.588l0.191-0.105c0.566-0.31,1.275-0.103,1.585,0.462c0.311,0.565,0.104,1.274-0.461,1.584
	l-0.18,0.1C243.197,218.351,243.003,218.399,242.81,218.399z M281.689,216.591c-0.156,0-0.315-0.032-0.469-0.099l-0.19-0.084
	c-0.593-0.255-0.863-0.943-0.608-1.535c0.258-0.592,0.945-0.864,1.536-0.607l0.2,0.086c0.591,0.259,0.86,0.947,0.602,1.538
	C282.567,216.329,282.139,216.591,281.689,216.591z M246.811,216.437c-0.453,0-0.883-0.265-1.073-0.707
	c-0.254-0.592,0.019-1.278,0.612-1.534l0.201-0.085c0.594-0.251,1.279,0.026,1.531,0.62c0.25,0.594-0.027,1.279-0.621,1.53
	l-0.189,0.081C247.12,216.406,246.964,216.437,246.811,216.437z M277.524,215.01c-0.12,0-0.239-0.018-0.359-0.057l-0.198-0.063
	c-0.614-0.195-0.954-0.851-0.761-1.465c0.195-0.615,0.852-0.956,1.467-0.76l0.208,0.067c0.613,0.197,0.952,0.855,0.754,1.469
	C278.475,214.695,278.018,215.01,277.524,215.01z M250.988,214.893c-0.498,0-0.958-0.32-1.113-0.819
	c-0.193-0.616,0.15-1.271,0.766-1.462l0.207-0.064c0.617-0.19,1.271,0.157,1.459,0.773c0.19,0.616-0.157,1.269-0.773,1.458
	l-0.198,0.061C251.221,214.876,251.104,214.893,250.988,214.893z M273.218,213.863c-0.08,0-0.162-0.008-0.243-0.025l-0.202-0.042
	c-0.631-0.13-1.037-0.749-0.906-1.379c0.131-0.632,0.749-1.038,1.38-0.907l0.213,0.045c0.632,0.134,1.034,0.753,0.9,1.385
	C274.242,213.487,273.758,213.863,273.218,213.863z M255.302,213.786c-0.543,0-1.031-0.382-1.143-0.937
	c-0.128-0.632,0.282-1.247,0.913-1.375l0.213-0.042c0.633-0.125,1.247,0.287,1.372,0.919s-0.287,1.247-0.919,1.372l-0.203,0.041
	C255.456,213.778,255.379,213.786,255.302,213.786z M268.819,213.162c-0.041,0-0.084-0.002-0.127-0.007l-0.204-0.021
	c-0.642-0.065-1.109-0.639-1.043-1.28c0.066-0.641,0.641-1.107,1.281-1.042l0.216,0.023c0.642,0.069,1.105,0.645,1.036,1.286
	C269.915,212.718,269.407,213.162,268.819,213.162z M259.707,213.123c-0.594,0-1.102-0.45-1.161-1.052
	c-0.064-0.642,0.405-1.213,1.046-1.277l0.217-0.021c0.639-0.06,1.212,0.41,1.272,1.053c0.061,0.642-0.411,1.211-1.053,1.271
	l-0.206,0.02C259.784,213.121,259.745,213.123,259.707,213.123z M264.371,212.91c-0.003,0-0.006,0-0.01,0l-0.204-0.001
	c-0.646-0.001-1.167-0.524-1.166-1.169c0-0.645,0.523-1.166,1.167-1.166h0.002l0.22,0c0.646,0.005,1.163,0.531,1.159,1.176
	C265.534,212.393,265.012,212.91,264.371,212.91z"/>
<g>
	<g>
		<path fill="#13335B" d="M264.097,252.911c-4.962,0-8.998-4.036-8.998-8.996c0-4.96,4.036-8.995,8.998-8.995
			s8.998,4.035,8.998,8.995C273.095,248.875,269.059,252.911,264.097,252.911z M264.097,237.255c-3.674,0-6.662,2.988-6.662,6.66
			c0,3.673,2.988,6.661,6.662,6.661s6.662-2.988,6.662-6.661C270.759,240.243,267.771,237.255,264.097,237.255z"/>
		<path fill="#13335B" d="M276.006,272.831h-23.628c-1.426,0-2.587-1.16-2.587-2.586v-9.993c0-5.335,4.343-9.676,9.679-9.676h9.444
			c5.337,0,9.678,4.34,9.678,9.676v9.993C278.592,271.671,277.433,272.831,276.006,272.831z M259.47,252.911
			c-4.048,0-7.343,3.292-7.343,7.341v9.993c0,0.139,0.113,0.251,0.251,0.251h23.628c0.14,0,0.25-0.112,0.25-0.251v-9.993
			c0-4.049-3.293-7.341-7.342-7.341H259.47z"/>
		<rect x="256.489" y="260.121" fill="#13335B" width="2.336" height="11.08"/>
		<rect x="269.393" y="260.121" fill="#13335B" width="2.336" height="11.08"/>
	</g>
</g>
<path fill="#06AEEE" d="M255.84,288.739c-0.096,0-0.194-0.011-0.292-0.036c-5.909-1.514-11.325-4.605-15.662-8.942
	c-6.459-6.458-10.017-15.044-10.017-24.179c0-9.134,3.558-17.721,10.017-24.179c4.241-4.24,9.527-7.298,15.288-8.844
	c0.622-0.166,1.262,0.203,1.43,0.825s-0.202,1.263-0.824,1.43c-5.366,1.44-10.29,4.289-14.241,8.239
	c-6.02,6.018-9.333,14.018-9.333,22.528c0,8.511,3.313,16.51,9.333,22.529c4.041,4.039,9.086,6.919,14.59,8.33
	c0.625,0.161,1.001,0.797,0.841,1.421C256.835,288.39,256.361,288.739,255.84,288.739z"/>
<path fill="#06AEEE" d="M270.099,289.225c-0.552,0-1.043-0.393-1.146-0.956c-0.118-0.632,0.3-1.241,0.936-1.359
	c6.351-1.172,12.132-4.214,16.718-8.798c6.019-6.02,9.333-14.019,9.333-22.529c0-8.51-3.314-16.511-9.333-22.528
	c-4.633-4.631-10.477-7.686-16.901-8.833c-0.635-0.113-1.059-0.72-0.944-1.354c0.113-0.634,0.72-1.057,1.354-0.944
	c6.897,1.232,13.172,4.51,18.143,9.481c6.461,6.458,10.02,15.045,10.02,24.179c0,9.135-3.559,17.721-10.02,24.179
	c-4.921,4.92-11.126,8.187-17.944,9.444C270.241,289.22,270.169,289.225,270.099,289.225z"/>
</svg>
