<?xml version="1.0" encoding="utf-8"?>
<!-- Generator: Adobe Illustrator 16.0.0, SVG Export Plug-In . SVG Version: 6.00 Build 0)  -->
<!DOCTYPE svg PUBLIC "-//W3C//DTD SVG 1.1//EN" "http://www.w3.org/Graphics/SVG/1.1/DTD/svg11.dtd">
<svg version="1.1" id="Isolation_Mode" xmlns="http://www.w3.org/2000/svg" xmlns:xlink="http://www.w3.org/1999/xlink" x="0px"
	 y="0px" width="82px" height="104px" viewBox="256.64 368.945 82 104" enable-background="new 256.64 368.945 82 104"
	 xml:space="preserve">
<g>
	<path fill="#8ACB98" d="M314.262,369.42h-33.244c-13.261,0-24.009,10.749-24.009,24.009v33.245
		c0,13.259,10.749,24.008,24.009,24.008h6.066c2.769,0,5.015,2.246,5.015,5.015v14.668c0,2.514,3.23,3.539,4.68,1.486l11.359-12.495
		c3.31-4.688,8.101-8.071,13.556-9.847c9.623-3.13,16.576-12.17,16.576-22.835v-33.245
		C338.271,380.169,327.522,369.42,314.262,369.42"/>
	<g>
		<path fill="#FFFFFF" d="M302.281,426.813v-19.557v-2.787c0-1.546-1.254-2.801-2.801-2.801h-5.581c-1.543,0-2.793,1.25-2.793,2.794
			s1.25,2.793,2.793,2.793h2.794v19.557h-2.794c-1.543,0-2.793,1.251-2.793,2.794s1.25,2.794,2.793,2.794h11.175
			c1.545,0,2.794-1.251,2.794-2.794s-1.249-2.794-2.794-2.794H302.281z"/>
		<path fill="#FFFFFF" d="M302.281,391.892c0-2.315-1.876-4.191-4.191-4.191c-2.314,0-4.19,1.876-4.19,4.191
			c0,2.314,1.876,4.19,4.19,4.19C300.405,396.082,302.281,394.206,302.281,391.892"/>
	</g>
</g>
</svg>
