<?xml version="1.0" encoding="utf-8"?>
<!-- Generator: Adobe Illustrator 16.0.0, SVG Export Plug-In . SVG Version: 6.00 Build 0)  -->
<!DOCTYPE svg PUBLIC "-//W3C//DTD SVG 1.1//EN" "http://www.w3.org/Graphics/SVG/1.1/DTD/svg11.dtd">
<svg version="1.1" id="Layer_1" xmlns="http://www.w3.org/2000/svg" xmlns:xlink="http://www.w3.org/1999/xlink" x="0px" y="0px"
	 width="99.859px" height="107px" viewBox="205.611 202 99.859 107" enable-background="new 205.611 202 99.859 107"
	 xml:space="preserve">
<g>
	<path fill="#06AEEE" d="M255.5,288.917c-18.427,0-33.418-14.99-33.418-33.417s14.991-33.417,33.418-33.417
		s33.417,14.991,33.417,33.417S273.927,288.917,255.5,288.917z M255.5,224.909c-16.869,0-30.592,13.723-30.592,30.591
		s13.723,30.592,30.592,30.592c16.868,0,30.592-13.724,30.592-30.592S272.368,224.909,255.5,224.909z"/>
	<path fill="#06AEEE" d="M255.5,305.47c-13.348,0-25.896-5.197-35.334-14.637c-9.438-9.438-14.636-21.985-14.636-35.333
		c0-8.762,2.301-17.382,6.654-24.93c0.39-0.677,1.254-0.909,1.93-0.518c0.676,0.389,0.908,1.253,0.519,1.93
		c-4.106,7.118-6.276,15.251-6.276,23.518c0,25.996,21.149,47.145,47.145,47.145c8.454,0,16.747-2.264,23.979-6.546
		c0.672-0.398,1.538-0.176,1.936,0.495c0.397,0.673,0.177,1.54-0.495,1.936C273.25,303.07,264.46,305.47,255.5,305.47z"/>
	<path fill="#06AEEE" d="M295.525,284.409c-0.275,0-0.555-0.08-0.8-0.249c-0.643-0.442-0.805-1.322-0.363-1.964
		c5.418-7.871,8.282-17.103,8.282-26.696c0-25.995-21.148-47.145-47.145-47.145c-9.691,0-19.001,2.919-26.923,8.439
		c-0.64,0.445-1.521,0.289-1.967-0.352c-0.446-0.64-0.289-1.52,0.351-1.968c8.397-5.852,18.266-8.945,28.539-8.945
		c13.348,0,25.896,5.197,35.333,14.635c9.439,9.438,14.638,21.988,14.638,35.334c0,10.169-3.036,19.952-8.781,28.298
		C296.416,284.196,295.975,284.409,295.525,284.409z"/>
	<g>
		<path fill="#13335B" d="M255.5,252.745c-5.932,0-10.756-4.825-10.756-10.756s4.825-10.756,10.756-10.756
			c5.931,0,10.757,4.825,10.757,10.756S261.431,252.745,255.5,252.745z M255.5,234.059c-4.373,0-7.93,3.558-7.93,7.93
			c0,4.372,3.557,7.93,7.93,7.93c4.372,0,7.93-3.558,7.93-7.93C263.43,237.617,259.872,234.059,255.5,234.059z"/>
		<path fill="#13335B" d="M269.711,276.521h-28.195c-1.712,0-3.105-1.393-3.105-3.105v-11.928c0-6.379,5.189-11.568,11.567-11.568
			h11.271c6.378,0,11.567,5.189,11.567,11.568v11.928C272.816,275.128,271.424,276.521,269.711,276.521z M249.978,252.745
			c-4.819,0-8.741,3.922-8.741,8.742v11.928c0,0.154,0.125,0.28,0.279,0.28h28.195c0.155,0,0.279-0.126,0.279-0.28v-11.928
			c0-4.82-3.921-8.742-8.741-8.742H249.978z"/>
		<path fill="#13335B" d="M247.815,276.071c-0.836,0-1.514-0.678-1.514-1.516v-13.224c0-0.835,0.678-1.514,1.514-1.514
			s1.514,0.679,1.514,1.514v13.224C249.329,275.394,248.651,276.071,247.815,276.071z"/>
		<path fill="#13335B" d="M263.212,276.071c-0.836,0-1.513-0.678-1.513-1.516v-13.224c0-0.835,0.677-1.514,1.513-1.514
			s1.514,0.679,1.514,1.514v13.224C264.726,275.394,264.048,276.071,263.212,276.071z"/>
	</g>
</g>
</svg>
