<?xml version="1.0" encoding="utf-8"?>
<!-- Generator: Adobe Illustrator 16.0.0, SVG Export Plug-In . SVG Version: 6.00 Build 0)  -->
<!DOCTYPE svg PUBLIC "-//W3C//DTD SVG 1.1//EN" "http://www.w3.org/Graphics/SVG/1.1/DTD/svg11.dtd">
<svg version="1.1" id="Layer_1" xmlns="http://www.w3.org/2000/svg" xmlns:xlink="http://www.w3.org/1999/xlink" x="0px" y="0px"
	 width="99px" height="92px" viewBox="450.5 454 99 92" enable-background="new 450.5 454 99 92" xml:space="preserve">
<g>
	<g>
		<path fill="#06AEEE" d="M523.064,503.295c0-3.634-2.955-6.59-6.59-6.59s-6.59,2.956-6.59,6.59v3.295c0,3.635,2.955,6.59,6.59,6.59
			c1.406,0,2.706-0.451,3.775-1.203c0.792,1.678,2.486,2.852,4.463,2.852c2.725,0,4.941-2.218,4.941-4.942v-6.591
			c0-7.267-5.912-13.18-13.18-13.18c-7.267,0-13.18,5.913-13.18,13.18v4.942c0,7.267,5.913,13.18,13.18,13.18h8.238
			c2.725,0,4.941-2.218,4.941-4.942h-3.295c0,0.908-0.737,1.647-1.646,1.647h-8.238c-5.451,0-9.884-4.433-9.884-9.885v-4.942
			c0-5.451,4.433-9.885,9.884-9.885s9.885,4.434,9.885,9.885v6.591c0,0.907-0.737,1.646-1.646,1.646
			c-0.91,0-1.648-0.739-1.648-1.646v-3.296V503.295z M519.771,506.59c0,1.817-1.479,3.296-3.296,3.296s-3.295-1.479-3.295-3.296
			v-3.295c0-1.817,1.478-3.294,3.295-3.294s3.296,1.477,3.296,3.294V506.59z"/>
	</g>
</g>
<g>
	<g>
		<path fill="#06AEEE" d="M501.349,542.07c-1.034,0.201-2.086,0.366-3.13,0.487l0.379,3.271c1.128-0.131,2.265-0.308,3.381-0.524
			L501.349,542.07z"/>
	</g>
</g>
<g>
	<g>
		<path fill="#06AEEE" d="M495.056,542.803c-1.053,0.04-2.122,0.041-3.168,0.004l-0.122,3.294c0.545,0.02,1.093,0.029,1.645,0.029
			c0.595,0,1.188-0.013,1.778-0.035L495.056,542.803z"/>
	</g>
</g>
<g>
	<g>
		<path fill="#06AEEE" d="M479.502,540.421l-1.113,3.102c1.068,0.384,2.165,0.732,3.261,1.03l0.868-3.178
			C481.507,541.099,480.492,540.777,479.502,540.421z"/>
	</g>
</g>
<g>
	<g>
		<path fill="#06AEEE" d="M485.604,542.095l-0.622,3.235c1.112,0.215,2.248,0.388,3.38,0.517l0.371-3.273
			C487.687,542.454,486.634,542.294,485.604,542.095z"/>
	</g>
</g>
<g>
	<g>
		<path fill="#06AEEE" d="M473.729,537.832l-1.575,2.893c1.001,0.546,2.033,1.059,3.063,1.522l1.351-3.006
			C475.614,538.813,474.66,538.339,473.729,537.832z"/>
	</g>
</g>
<g>
	<g>
		<path fill="#06AEEE" d="M463.705,530.161l-2.377,2.283c0.794,0.825,1.621,1.624,2.461,2.374l2.195-2.458
			C465.205,531.666,464.439,530.927,463.705,530.161z"/>
	</g>
</g>
<g>
	<g>
		<path fill="#06AEEE" d="M468.426,534.381l-2.005,2.617c0.899,0.687,1.838,1.352,2.794,1.973l1.796-2.763
			C470.126,535.634,469.258,535.019,468.426,534.381z"/>
	</g>
</g>
<g>
	<g>
		<path fill="#06AEEE" d="M507.45,540.376c-0.989,0.359-2.004,0.685-3.019,0.967l0.882,3.175c1.094-0.304,2.191-0.655,3.26-1.044
			L507.45,540.376z"/>
	</g>
</g>
<g>
	<g>
		<path fill="#06AEEE" d="M518.508,534.294c-0.825,0.638-1.692,1.254-2.578,1.835l1.805,2.757c0.958-0.626,1.895-1.295,2.788-1.983
			L518.508,534.294z"/>
	</g>
</g>
<g>
	<g>
		<path fill="#06AEEE" d="M523.117,530.159c-0.7,0.729-1.431,1.435-2.175,2.104l2.204,2.448c0.803-0.722,1.592-1.484,2.346-2.267
			L523.117,530.159z"/>
	</g>
</g>
<g>
	<g>
		<path fill="#06AEEE" d="M513.213,537.761c-0.916,0.506-1.869,0.983-2.832,1.42l1.364,3c1.038-0.473,2.067-0.989,3.058-1.534
			L513.213,537.761z"/>
	</g>
</g>
<g>
	<g>
		<path fill="#06AEEE" d="M488.222,454.171c-1.128,0.131-2.265,0.308-3.382,0.525l0.631,3.234c1.035-0.201,2.087-0.366,3.13-0.488
			L488.222,454.171z"/>
	</g>
</g>
<g>
	<g>
		<path fill="#06AEEE" d="M491.632,453.905l0.132,3.292c1.051-0.041,2.12-0.042,3.168-0.003l0.122-3.293
			C493.921,453.859,492.771,453.863,491.632,453.905z"/>
	</g>
</g>
<g>
	<g>
		<path fill="#06AEEE" d="M481.507,455.484c-1.094,0.303-2.191,0.654-3.261,1.043l1.124,3.097c0.988-0.359,2.003-0.684,3.018-0.965
			L481.507,455.484z"/>
	</g>
</g>
<g>
	<g>
		<path fill="#06AEEE" d="M475.076,457.82c-1.039,0.473-2.068,0.988-3.058,1.534l1.59,2.887c0.916-0.506,1.868-0.983,2.832-1.42
			L475.076,457.82z"/>
	</g>
</g>
<g>
	<g>
		<path fill="#06AEEE" d="M505.17,455.447l-0.869,3.177c1.01,0.276,2.025,0.598,3.016,0.954l1.114-3.101
			C507.362,456.093,506.265,455.746,505.17,455.447z"/>
	</g>
</g>
<g>
	<g>
		<path fill="#06AEEE" d="M498.458,454.154l-0.369,3.275c1.046,0.119,2.099,0.278,3.129,0.478l0.621-3.237
			C500.727,454.456,499.589,454.283,498.458,454.154z"/>
	</g>
</g>
<g>
	<g>
		<path fill="#06AEEE" d="M469.085,461.115c-0.958,0.626-1.895,1.295-2.788,1.983l2.015,2.608c0.826-0.638,1.692-1.254,2.579-1.835
			L469.085,461.115z"/>
	</g>
</g>
<g>
	<g>
		<path fill="#06AEEE" d="M517.604,461.029l-1.795,2.763c0.885,0.576,1.753,1.19,2.585,1.827l2.005-2.616
			C519.499,462.316,518.561,461.65,517.604,461.029z"/>
	</g>
</g>
<g>
	<g>
		<path fill="#06AEEE" d="M523.031,465.182l-2.194,2.458c0.777,0.693,1.544,1.433,2.278,2.199l2.378-2.283
			C524.699,466.731,523.872,465.932,523.031,465.182z"/>
	</g>
</g>
<g>
	<g>
		<path fill="#06AEEE" d="M463.673,465.288c-0.802,0.722-1.591,1.484-2.344,2.267l2.374,2.285c0.7-0.727,1.432-1.434,2.175-2.103
			L463.673,465.288z"/>
	</g>
</g>
<g>
	<g>
		<path fill="#06AEEE" d="M511.604,457.754l-1.352,3.004c0.954,0.428,1.908,0.903,2.839,1.409l1.575-2.891
			C513.664,458.729,512.633,458.217,511.604,457.754z"/>
	</g>
</g>
<g>
	<g>
		<path fill="#13335B" d="M549.425,475.288v-3.295h-14.828h-1.646h-80.727c-0.911,0-1.647,0.738-1.647,1.647v46.13
			c0,4.542,3.695,8.237,8.237,8.237h69.195c4.541,0,8.236-3.695,8.236-8.237v-31.303h3.295v-3.294h-3.295v-3.295h8.237v-3.295
			h-8.237v-3.294H549.425z M527.859,475.288l-34.449,17.913l-34.449-17.913H527.859z M532.95,519.771
			c0,2.725-2.218,4.941-4.942,4.941h-69.195c-2.725,0-4.942-2.217-4.942-4.941v-43.417l38.779,20.166
			c0.239,0.124,0.5,0.186,0.76,0.186s0.521-0.062,0.76-0.186l38.78-20.166V519.771z"/>
	</g>
</g>
<g>
	<g>
		<rect x="457.166" y="518.122" fill="#13335B" width="3.295" height="3.295"/>
	</g>
</g>
<g>
	<g>
		<rect x="463.755" y="518.122" fill="#13335B" width="3.295" height="3.295"/>
	</g>
</g>
<g>
	<g>
		<rect x="470.345" y="518.122" fill="#13335B" width="3.295" height="3.295"/>
	</g>
</g>
</svg>
