<?xml version="1.0" encoding="utf-8"?>
<!-- Generator: Adobe Illustrator 16.0.0, SVG Export Plug-In . SVG Version: 6.00 Build 0)  -->
<!DOCTYPE svg PUBLIC "-//W3C//DTD SVG 1.1//EN" "http://www.w3.org/Graphics/SVG/1.1/DTD/svg11.dtd">
<svg version="1.1" id="Layer_1" xmlns="http://www.w3.org/2000/svg" xmlns:xlink="http://www.w3.org/1999/xlink" x="0px" y="0px"
	 width="92px" height="92px" viewBox="254 254 92 92" enable-background="new 254 254 92 92" xml:space="preserve">
<g>
	<path fill="#13335B" d="M344.467,269.333c0.847,0,1.533-0.687,1.533-1.534v-6.133c-0.005-4.232-3.435-7.661-7.667-7.667h-64.4
		c-4.232,0.005-7.661,3.435-7.667,7.667v12.267H258.6c-2.54,0-4.6,2.06-4.6,4.601v42.933c0,2.54,2.06,4.6,4.6,4.6h7.667v4.601
		h-10.733c-0.847,0-1.533,0.687-1.533,1.532v6.134c0.005,4.232,3.435,7.662,7.667,7.667h64.4c4.232-0.005,7.662-3.435,7.667-7.667
		v-12.267h7.667c2.539,0,4.6-2.06,4.6-4.6v-42.933c0-2.541-2.061-4.601-4.6-4.601h-7.667v-4.6H344.467z M342.933,261.667v4.6h-9.199
		v-4.6c0-2.54,2.061-4.6,4.6-4.6C340.874,257.067,342.933,259.126,342.933,261.667z M261.667,342.934c-2.54,0-4.6-2.06-4.6-4.601
		v-4.6H318.4v4.6c0.006,1.664,0.558,3.281,1.572,4.601H261.667z M330.667,338.333c0,2.541-2.061,4.601-4.601,4.601
		s-4.6-2.06-4.6-4.601v-6.134c0-0.846-0.687-1.532-1.534-1.532h-50.599v-4.601h61.333V338.333z M342.933,278.534v42.933
		c0,0.847-0.686,1.533-1.532,1.533H258.6c-0.847,0-1.533-0.687-1.533-1.533v-42.933c0-0.847,0.686-1.534,1.533-1.534H341.4
		C342.247,277,342.933,277.687,342.933,278.534z M269.333,273.933v-12.267c0-2.54,2.06-4.6,4.6-4.6h58.307
		c-1.016,1.318-1.568,2.935-1.573,4.6v12.267H269.333z"/>
	<path fill="#06AEEE" d="M263.2,283.133h3.066v3.067H263.2V283.133z"/>
	<path fill="#06AEEE" d="M267.8,283.133h9.2v3.067h-9.2V283.133z"/>
	<path fill="#06AEEE" d="M263.2,287.733h3.066v3.066H263.2V287.733z"/>
	<path fill="#06AEEE" d="M267.8,287.733h9.2v3.066h-9.2V287.733z"/>
	<path fill="#06AEEE" d="M323,309.199h3.066v3.067H323V309.199z"/>
	<path fill="#06AEEE" d="M327.6,309.199h9.201v3.067H327.6V309.199z"/>
	<path fill="#06AEEE" d="M323,313.801h3.066v3.065H323V313.801z"/>
	<path fill="#06AEEE" d="M327.6,313.801h9.201v3.065H327.6V313.801z"/>
	<g>
		<path fill="#95E41B" d="M300.031,319.995c11.026,0,19.964-8.938,19.964-19.964s-8.938-19.964-19.964-19.964
			s-19.964,8.938-19.964,19.964C280.079,311.052,289.01,319.982,300.031,319.995z M300.031,283.139
			c9.33,0,16.893,7.563,16.893,16.892c0,9.33-7.563,16.893-16.893,16.893c-9.33,0-16.893-7.563-16.893-16.893
			C283.149,290.706,290.705,283.15,300.031,283.139z"/>
		<path fill="#95E41B" d="M293.515,310.891c0.408,0.002,0.798-0.161,1.085-0.45l17.375-17.375l-2.171-2.172l-16.289,16.289
			l-3.257-3.256l-2.171,2.171l4.342,4.343C292.717,310.728,293.108,310.891,293.515,310.891z"/>
	</g>
</g>
</svg>
