<?xml version="1.0" encoding="utf-8"?>
<!-- Generator: Adobe Illustrator 16.0.0, SVG Export Plug-In . SVG Version: 6.00 Build 0)  -->
<!DOCTYPE svg PUBLIC "-//W3C//DTD SVG 1.1//EN" "http://www.w3.org/Graphics/SVG/1.1/DTD/svg11.dtd">
<svg version="1.1" id="Layer_1" xmlns="http://www.w3.org/2000/svg" xmlns:xlink="http://www.w3.org/1999/xlink" x="0px" y="0px"
	 width="91px" height="107px" viewBox="210 202 91 107" enable-background="new 210 202 91 107" xml:space="preserve">
<g>
	<path fill="#13335B" d="M245.073,258.974v6.976c0,1.404,1.142,2.546,2.546,2.546h16.351c1.403,0,2.547-1.142,2.547-2.546v-6.976
		c0-3.33-2.171-6.16-5.171-7.156c0.993-1.227,1.589-2.786,1.589-4.483c0-3.937-3.203-7.139-7.14-7.139
		c-3.938,0-7.141,3.203-7.141,7.139c0,1.697,0.596,3.256,1.589,4.483C247.243,252.813,245.073,255.645,245.073,258.974z
		 M255.794,243.237c2.261,0,4.099,1.838,4.099,4.098c0,2.25-1.827,4.099-4.102,4.099c-2.258-0.002-4.095-1.84-4.095-4.099
		C251.696,245.075,253.535,243.237,255.794,243.237z M248.114,258.974c0-2.48,2.019-4.5,4.5-4.5h6.36c2.48,0,4.499,2.019,4.499,4.5
		v6.48h-1.587v-6.696c0-0.84-0.681-1.521-1.521-1.521c-0.841,0-1.521,0.681-1.521,1.521v6.696h-6.103v-6.696
		c0-0.84-0.681-1.521-1.521-1.521c-0.84,0-1.521,0.681-1.521,1.521v6.696h-1.588V258.974z"/>
	<path fill="#13335B" d="M279.382,241.947v4.711c0,1.404,1.143,2.546,2.546,2.546h16.351c1.404,0,2.546-1.142,2.546-2.546v-4.711
		c0-3.329-2.17-6.16-5.169-7.157c0.991-1.227,1.589-2.786,1.589-4.482c0-3.938-3.204-7.14-7.141-7.14s-7.141,3.203-7.141,7.14
		c0,1.696,0.596,3.255,1.589,4.482C281.552,235.787,279.382,238.618,279.382,241.947z M290.104,226.209
		c2.26,0,4.098,1.838,4.098,4.099c0,2.259-1.838,4.098-4.098,4.098c-2.261,0-4.1-1.839-4.1-4.098
		C286.004,228.047,287.843,226.209,290.104,226.209z M282.423,241.947c0-2.48,2.02-4.499,4.501-4.499h6.359
		c2.481,0,4.499,2.019,4.499,4.499v4.217h-1.587v-4.433c0-0.839-0.682-1.521-1.52-1.521c-0.842,0-1.521,0.681-1.521,1.521v4.433
		h-6.103v-4.433c0-0.839-0.682-1.521-1.521-1.521c-0.841,0-1.521,0.681-1.521,1.521v4.433h-1.588V241.947L282.423,241.947z"/>
	<path fill="#13335B" d="M210.176,241.947v4.711c0,1.404,1.143,2.546,2.546,2.546h16.351c1.404,0,2.546-1.142,2.546-2.546v-4.711
		c0-3.329-2.169-6.16-5.169-7.157c0.993-1.227,1.588-2.786,1.588-4.482c0-3.938-3.203-7.14-7.139-7.14
		c-3.937,0-7.14,3.203-7.14,7.14c0,1.696,0.596,3.255,1.588,4.482C212.346,235.787,210.176,238.618,210.176,241.947z
		 M220.898,226.209c2.259,0,4.098,1.838,4.098,4.099c0,2.259-1.838,4.098-4.098,4.098c-2.261,0-4.099-1.839-4.099-4.098
		C216.799,228.047,218.637,226.209,220.898,226.209z M213.217,241.947c0-2.48,2.019-4.499,4.5-4.499h6.36
		c2.481,0,4.5,2.019,4.5,4.499v4.217h-1.587v-4.433c0-0.839-0.68-1.521-1.521-1.521c-0.84,0-1.521,0.681-1.521,1.521v4.433h-6.103
		v-4.433c0-0.839-0.681-1.521-1.521-1.521c-0.84,0-1.521,0.681-1.521,1.521v4.433h-1.588L213.217,241.947L213.217,241.947z"/>
	<path fill="#13335B" d="M278.979,283.044c0,1.405,1.143,2.547,2.547,2.547h16.351c1.404,0,2.545-1.142,2.545-2.547v-4.711
		c0-3.33-2.168-6.16-5.168-7.156c0.992-1.228,1.588-2.787,1.588-4.483c0-3.937-3.203-7.14-7.141-7.14c-3.937,0-7.14,3.203-7.14,7.14
		c0,1.696,0.596,3.256,1.588,4.483c-3,0.996-5.17,3.826-5.17,7.156V283.044z M289.701,262.595c2.26,0,4.099,1.839,4.099,4.099
		s-1.839,4.099-4.099,4.099s-4.098-1.839-4.098-4.099S287.441,262.595,289.701,262.595z M282.021,278.333
		c0-2.48,2.019-4.499,4.5-4.499h6.36c2.481,0,4.498,2.019,4.498,4.499v4.216h-1.585v-4.432c0-0.841-0.682-1.521-1.521-1.521
		c-0.841,0-1.521,0.68-1.521,1.521v4.432h-6.103v-4.432c0-0.841-0.68-1.521-1.52-1.521c-0.842,0-1.521,0.68-1.521,1.521v4.432
		h-1.588L282.021,278.333L282.021,278.333z"/>
	<path fill="#13335B" d="M211.167,283.044c0,1.405,1.143,2.547,2.546,2.547h16.351c1.404,0,2.546-1.142,2.546-2.547v-4.711
		c0-3.33-2.171-6.16-5.17-7.156c0.992-1.228,1.589-2.787,1.589-4.483c0-3.937-3.203-7.14-7.14-7.14c-3.938,0-7.141,3.203-7.141,7.14
		c0,1.696,0.596,3.256,1.589,4.483c-3,0.996-5.17,3.826-5.17,7.156V283.044z M221.887,262.595c2.261,0,4.099,1.839,4.099,4.099
		s-1.838,4.099-4.099,4.099c-2.259,0-4.098-1.839-4.098-4.099S219.628,262.595,221.887,262.595z M214.208,278.333
		c0-2.48,2.019-4.499,4.5-4.499h6.36c2.481,0,4.5,2.019,4.5,4.499v4.216h-1.587v-4.432c0-0.841-0.681-1.521-1.521-1.521
		c-0.84,0-1.521,0.68-1.521,1.521v4.432h-6.102v-4.432c0-0.841-0.681-1.521-1.521-1.521s-1.521,0.68-1.521,1.521v4.432h-1.588
		V278.333z"/>
	<path fill="#06AEEE" d="M234.08,267.857c0.42,0.729,1.351,0.977,2.078,0.558l2.75-1.589c3.416,4.997,8.989,8.408,15.366,8.879v3.17
		c0,0.84,0.681,1.52,1.521,1.52c0.84,0,1.521-0.68,1.521-1.52v-3.174c6.317-0.468,11.931-3.831,15.372-8.871l2.745,1.585
		c0.727,0.419,1.656,0.171,2.077-0.558c0.419-0.727,0.171-1.656-0.557-2.077l-2.739-1.582c0.757-1.572,1.322-3.264,1.661-5.046
		c0.158-0.825-0.386-1.62-1.209-1.776c-0.827-0.157-1.622,0.385-1.778,1.21c-1.537,8.099-8.665,14.134-17.094,14.134
		c-9.594,0-17.399-7.805-17.399-17.399s7.805-17.4,17.399-17.4c6.339,0,12.006,3.428,15.048,8.661
		c0.008,0.013,0.015,0.026,0.022,0.04c0.005,0.008,0.01,0.015,0.015,0.023c0.948,1.645,1.639,3.463,2.009,5.413
		c0.156,0.825,0.951,1.368,1.778,1.21c0.823-0.156,1.367-0.953,1.209-1.777c-0.337-1.782-0.904-3.473-1.661-5.047l2.739-1.581
		c0.728-0.421,0.976-1.351,0.557-2.077c-0.42-0.728-1.351-0.976-2.077-0.557l-2.745,1.584c-3.441-5.04-9.055-8.403-15.372-8.871
		v-3.174c0-0.839-0.681-1.521-1.521-1.521c-0.84,0-1.521,0.681-1.521,1.521v3.168c-6.377,0.472-11.95,3.883-15.366,8.88l-2.75-1.588
		c-0.728-0.419-1.658-0.171-2.078,0.557c-0.419,0.727-0.17,1.656,0.557,2.077l2.746,1.585c-2.702,5.583-2.711,12.146,0,17.75
		l-2.746,1.584C233.909,266.201,233.659,267.131,234.08,267.857z"/>
	<path fill="#13335B" d="M245.073,301.372v4.711c0,1.404,1.142,2.547,2.546,2.547h16.351c1.403,0,2.547-1.143,2.547-2.547v-4.711
		c0-3.328-2.171-6.16-5.171-7.157c0.992-1.226,1.589-2.785,1.589-4.482c0-3.937-3.203-7.14-7.14-7.14
		c-3.938,0-7.141,3.203-7.141,7.14c0,1.697,0.596,3.257,1.589,4.482C247.243,295.212,245.073,298.044,245.073,301.372z
		 M255.794,285.634c2.261,0,4.099,1.839,4.099,4.099s-1.838,4.099-4.099,4.099c-2.259,0-4.098-1.839-4.098-4.099
		S253.535,285.634,255.794,285.634z M248.114,301.372c0-2.48,2.019-4.5,4.5-4.5h6.36c2.48,0,4.499,2.02,4.499,4.5v4.216h-1.587
		v-4.432c0-0.84-0.681-1.521-1.521-1.521c-0.841,0-1.521,0.681-1.521,1.521v4.432h-6.103v-4.432c0-0.84-0.681-1.521-1.521-1.521
		c-0.84,0-1.521,0.681-1.521,1.521v4.432h-1.588V301.372z"/>
	<path fill="#13335B" d="M245.077,225.861c0,1.404,1.143,2.546,2.546,2.546h16.35c1.404,0,2.546-1.142,2.546-2.546v-4.711
		c0-3.33-2.17-6.16-5.169-7.157c0.992-1.227,1.588-2.785,1.588-4.482c0-3.937-3.203-7.14-7.14-7.14c-3.937,0-7.141,3.204-7.141,7.14
		c0,1.697,0.596,3.255,1.589,4.482c-3,0.997-5.17,3.828-5.17,7.157V225.861z M255.798,205.411c2.26,0,4.099,1.839,4.099,4.099
		c0,2.259-1.839,4.098-4.099,4.098c-2.26,0-4.098-1.839-4.098-4.098C251.7,207.25,253.539,205.411,255.798,205.411z
		 M248.119,221.149c0-2.481,2.019-4.5,4.5-4.5h6.36c2.481,0,4.5,2.019,4.5,4.5v4.216h-1.588v-4.432c0-0.84-0.681-1.521-1.521-1.521
		c-0.841,0-1.521,0.68-1.521,1.521v4.432h-6.103v-4.432c0-0.84-0.681-1.521-1.521-1.521s-1.521,0.68-1.521,1.521v4.432h-1.587
		V221.149z"/>
</g>
</svg>
