<?xml version="1.0" encoding="utf-8"?>
<!-- Generator: Adobe Illustrator 16.0.0, SVG Export Plug-In . SVG Version: 6.00 Build 0)  -->
<!DOCTYPE svg PUBLIC "-//W3C//DTD SVG 1.1//EN" "http://www.w3.org/Graphics/SVG/1.1/DTD/svg11.dtd">
<svg version="1.1" id="Layer_1" xmlns="http://www.w3.org/2000/svg" xmlns:xlink="http://www.w3.org/1999/xlink" x="0px" y="0px"
	 width="91px" height="51px" viewBox="0 0 91 51" enable-background="new 0 0 91 51" xml:space="preserve">
<g>
	<path fill="#00ADEF" d="M27.565,35.944l-3.085,6.993h6.192L27.565,35.944 M25.358,30.54h4.353l8.855,20.324h-4.506l-1.786-4.18
		h-9.372l-1.844,4.18h-4.501L25.358,30.54z"/>
	<polyline fill="#00ADEF" points="40.297,30.54 44.624,30.54 44.624,37.525 50.781,30.54 56.054,30.54 48.071,39.595 56.833,50.864 
		51.789,50.864 44.624,41.647 44.624,50.864 40.297,50.864 40.297,30.54 	"/>
	<path fill="#00ADEF" d="M62.535,38.458h1.382c1.08,0,1.839-0.068,2.261-0.205c0.424-0.143,0.756-0.371,1-0.688
		c0.245-0.317,0.364-0.706,0.364-1.157c0-0.785-0.343-1.362-1.023-1.726c-0.495-0.263-1.413-0.4-2.764-0.4h-1.22V38.458
		 M58.208,30.54h4.601c2.485,0,4.28,0.202,5.377,0.608c1.103,0.409,1.968,1.07,2.604,1.985c0.638,0.908,0.955,2.007,0.955,3.282
		c0,1.409-0.415,2.582-1.251,3.521c-0.832,0.934-1.959,1.586-3.385,1.952c-0.839,0.21-2.365,0.317-4.575,0.317v8.658h-4.326V30.54z"
		/>
	<polyline fill="#00ADEF" points="74.462,30.54 78.792,30.54 78.792,37.525 84.953,30.54 90.225,30.54 82.239,39.595 91,50.864 
		85.956,50.864 78.792,41.647 78.792,50.864 74.462,50.864 74.462,30.54 	"/>
	<g>
		<defs>
			<path id="SVGID_1_" d="M0.413,18.478c-0.263,1.138-0.403,2.31-0.403,3.501c0,4.403,1.889,8.517,5.158,12.008
				c2.548,2.758,7.182,5.155,7.861,5.499v-6.62C7.896,29.482,1.559,23.399,0.413,18.478"/>
		</defs>
		<clipPath id="SVGID_2_">
			<use xlink:href="#SVGID_1_"  overflow="visible"/>
		</clipPath>
		<path clip-path="url(#SVGID_2_)" fill="#00ADEF" d="M0.413,18.478c-0.263,1.138-0.403,2.31-0.403,3.501
			c0,4.403,1.889,8.517,5.158,12.008c2.548,2.758,7.182,5.155,7.861,5.499v-6.62C7.896,29.482,1.559,23.399,0.413,18.478"/>
		<g clip-path="url(#SVGID_2_)">
			<g>
				<defs>
					<rect id="SVGID_3_" x="0.073" y="18.545" width="13.019" height="21.008"/>
				</defs>
				<clipPath id="SVGID_4_">
					<use xlink:href="#SVGID_3_"  overflow="visible"/>
				</clipPath>
				<g clip-path="url(#SVGID_4_)">
					<defs>
						<rect id="SVGID_5_" x="0.073" y="18.545" width="13.019" height="21.008"/>
					</defs>
					<clipPath id="SVGID_6_">
						<use xlink:href="#SVGID_5_"  overflow="visible"/>
					</clipPath>
					<g clip-path="url(#SVGID_6_)">
						
							<image overflow="visible" width="55" height="88" xlink:href="44386543.jpg"  transform="matrix(0.24 0 0 0.24 0.0732 18.5449)">
						</image>
					</g>
				</g>
			</g>
		</g>
	</g>
	<g>
		<path fill="#00ADEF" d="M23.687,0.883C20.828,0.866,17.311,1.8,14.645,3.16l-0.001-0.001C5.783,7.333,0.001,14.189,0.001,21.94
			c0,1.198,0.139,2.375,0.403,3.52c1.769-7.649,9.225-14.053,19.415-17.276c2.582-0.724,5.04-1.893,6.523-3.224
			C28.823,2.732,27.635,0.91,23.687,0.883"/>
	</g>
	<g>
		<defs>
			<path id="SVGID_7_" d="M0.521,28.745c-0.341,1.31-0.519,2.65-0.519,4.017c0,5.052,2.425,9.769,6.62,13.771
				c3.084,2.979,5.765,4.109,6.407,4.352v-7.612C6.502,39.417,1.988,34.378,0.521,28.745"/>
		</defs>
		<clipPath id="SVGID_8_">
			<use xlink:href="#SVGID_7_"  overflow="visible"/>
		</clipPath>
		<path clip-path="url(#SVGID_8_)" fill="#808284" d="M0.521,28.745c-0.341,1.31-0.519,2.65-0.519,4.017
			c0,5.052,2.425,9.769,6.62,13.771c3.084,2.979,5.765,4.109,6.407,4.352v-7.612C6.502,39.417,1.988,34.378,0.521,28.745"/>
		<g clip-path="url(#SVGID_8_)">
			<g>
				<defs>
					<rect id="SVGID_9_" x="0.066" y="28.812" width="13.026" height="22.139"/>
				</defs>
				<clipPath id="SVGID_10_">
					<use xlink:href="#SVGID_9_"  overflow="visible"/>
				</clipPath>
				<g clip-path="url(#SVGID_10_)">
					<defs>
						<rect id="SVGID_11_" x="0.066" y="28.813" width="13.025" height="22.138"/>
					</defs>
					<clipPath id="SVGID_12_">
						<use xlink:href="#SVGID_11_"  overflow="visible"/>
					</clipPath>
					<g clip-path="url(#SVGID_12_)">
						
							<image overflow="visible" width="55" height="93" xlink:href="44386541.jpg"  transform="matrix(0.24 0 0 0.24 0.0659 28.813)">
						</image>
					</g>
				</g>
			</g>
		</g>
	</g>
	<path fill="#808284" d="M30.394,8.64c-3.664-0.014-8.166,1.063-11.583,2.622l-0.009-0.006c-11.375,4.784-18.8,12.628-18.8,21.504
		c0,1.369,0.175,2.715,0.518,4.029c2.275-8.77,11.869-16.112,24.981-19.794c3.295-0.837,6.428-2.177,8.318-3.698
		C36.995,10.742,35.461,8.655,30.394,8.64"/>
</g>
</svg>
