<?xml version="1.0" encoding="utf-8"?>
<!-- Generator: Adobe Illustrator 16.0.0, SVG Export Plug-In . SVG Version: 6.00 Build 0)  -->
<!DOCTYPE svg PUBLIC "-//W3C//DTD SVG 1.1//EN" "http://www.w3.org/Graphics/SVG/1.1/DTD/svg11.dtd">
<svg version="1.1" id="Layer_1" xmlns="http://www.w3.org/2000/svg" xmlns:xlink="http://www.w3.org/1999/xlink" x="0px" y="0px"
	 width="105px" height="105px" viewBox="0 0 105 105" enable-background="new 0 0 105 105" xml:space="preserve">
<g>
	<circle fill="#CED6D4" cx="52.5" cy="52.5" r="52.5"/>
	<path fill="#151A1C" d="M85.113,38.252h-3.57v-22.82h3.57c1.4,0,2.536,1.135,2.536,2.536v17.748
		C87.649,37.116,86.514,38.252,85.113,38.252z"/>
	<path fill="#151A1C" d="M19.582,24.701h4.491v-9.269h-4.491c-0.893,0-1.616,0.724-1.616,1.616v6.036
		C17.965,23.977,18.689,24.701,19.582,24.701z"/>
	<path fill="#151A1C" d="M19.582,35.317h4.491v-9.269h-4.491c-0.893,0-1.616,0.724-1.616,1.617v6.036
		C17.965,34.593,18.689,35.317,19.582,35.317z"/>
	<path fill="#2F373B" d="M85.288,11.854v81.649C76.304,100.699,64.905,105,52.501,105c-12.408,0-23.806-4.303-32.791-11.499V11.854
		c0-0.122,0.002-0.242,0.006-0.362c0.191-5.25,4.507-9.445,9.802-9.445H75.48c5.295,0,9.61,4.196,9.802,9.443
		C85.286,11.61,85.288,11.732,85.288,11.854z"/>
	<path fill="#F2F2F7" d="M82.616,21.853v65.385c0,1.342-0.596,2.542-1.534,3.35c-0.775,0.675-1.789,1.082-2.895,1.082H26.814
		c-2.447,0-4.431-1.984-4.431-4.432V21.853c0-2.447,1.984-4.431,4.431-4.431h51.374C80.634,17.421,82.616,19.405,82.616,21.853z"/>
	<path fill="#151A1C" d="M61.071,11.21H43.929c-0.888,0-1.607-0.72-1.607-1.607c0-0.888,0.72-1.607,1.607-1.607h17.143
		c0.888,0,1.607,0.72,1.607,1.607C62.679,10.49,61.959,11.21,61.071,11.21z"/>
	<circle fill="#151A1C" cx="52.5" cy="98.98" r="3.214"/>
	<path fill="#8ACB98" d="M82.616,21.853v36.068l-40.5-40.5h36.071C80.634,17.421,82.616,19.405,82.616,21.853z"/>
	<g>
		<polygon fill="#ED2059" points="67.299,84.429 52.498,77.376 37.7,84.429 52.498,53.151 		"/>
		<polygon fill="#ED2059" points="52.498,53.151 52.498,77.376 37.7,84.429 		"/>
	</g>
	<path fill="#00B098" d="M56.049,32.014L22.383,65.681V21.853c0-2.447,1.984-4.431,4.431-4.431h14.642L56.049,32.014z"/>
	<polygon fill="#FFFFFF" points="82.616,54.463 82.616,64.731 35.306,17.421 45.575,17.421 	"/>
	<polygon fill="#FFFFFF" points="47.236,23.201 22.383,48.054 22.383,37.785 42.101,18.066 	"/>
	<polygon fill="#FFFFFF" points="59.384,35.348 22.383,72.347 22.383,62.081 54.249,30.214 	"/>
</g>
</svg>
