<?xml version="1.0" encoding="utf-8"?>
<!-- Generator: Adobe Illustrator 16.0.0, SVG Export Plug-In . SVG Version: 6.00 Build 0)  -->
<!DOCTYPE svg PUBLIC "-//W3C//DTD SVG 1.1//EN" "http://www.w3.org/Graphics/SVG/1.1/DTD/svg11.dtd">
<svg version="1.1" id="Layer_1" xmlns="http://www.w3.org/2000/svg" xmlns:xlink="http://www.w3.org/1999/xlink" x="0px" y="0px"
	 width="105px" height="105px" viewBox="0 0 105 105" enable-background="new 0 0 105 105" xml:space="preserve">
<g>
	<path fill="#CED6D4" d="M105,52.5c0,11.662-3.802,22.435-10.234,31.148c-1.15,1.559-2.385,3.051-3.696,4.471
		c-1.172,1.268-2.406,2.479-3.696,3.625C78.101,99.99,65.887,105,52.5,105s-25.601-5.01-34.873-13.256
		c-1.29-1.146-2.524-2.357-3.696-3.625c-1.312-1.42-2.546-2.912-3.696-4.471C3.802,74.936,0,64.162,0,52.5
		c0-11.662,3.802-22.437,10.234-31.149c1.15-1.558,2.385-3.051,3.696-4.47c1.172-1.269,2.406-2.479,3.696-3.626
		c1.637-1.455,3.364-2.812,5.177-4.054C31.249,3.396,41.478,0,52.5,0c11.023,0,21.251,3.396,29.696,9.202
		c1.813,1.242,3.539,2.599,5.177,4.054c1.29,1.146,2.524,2.357,3.696,3.626c1.312,1.419,2.546,2.912,3.696,4.47
		C101.198,30.064,105,40.838,105,52.5z"/>
	<path fill="#F2F2F7" d="M91.069,13.063v75.056c-1.172,1.268-2.406,2.479-3.696,3.625C78.101,99.99,65.887,105,52.5,105
		s-25.601-5.01-34.873-13.256c-1.29-1.146-2.524-2.357-3.696-3.625V13.063c0-2.133,1.728-3.861,3.859-3.861h69.418
		C89.34,9.202,91.069,10.93,91.069,13.063z"/>
	<path fill="#00B098" d="M91.069,29.356H13.931V13.063c0-2.132,1.729-3.861,3.861-3.861h69.416c2.133,0,3.861,1.729,3.861,3.861
		V29.356z"/>
	<g>
		<path fill="#8ACB98" d="M79,0.001c-4.115-0.07-7.484,3.388-7.484,7.504v1.696h3V7.465c0-2.359,1.831-4.372,4.189-4.462
			c2.479-0.095,4.525,1.895,4.525,4.353v6.285c0,2.017-1.377,3.72-3.24,4.214c-0.657,0.175-1.116,0.769-1.116,1.448l0,0
			c0,0.978,0.923,1.705,1.868,1.456c3.154-0.829,5.488-3.707,5.488-7.118V7.357C86.23,3.342,82.999,0.069,79,0.001z"/>
		<path fill="#8ACB98" d="M61.715,0.001c-4.116-0.07-7.485,3.388-7.485,7.504v1.696h3V7.465c0-2.359,1.832-4.372,4.189-4.462
			c2.479-0.095,4.526,1.895,4.526,4.353v6.285c0,2.017-1.378,3.72-3.241,4.214c-0.657,0.175-1.115,0.769-1.115,1.448l0,0
			c0,0.978,0.922,1.705,1.867,1.456c3.155-0.829,5.489-3.707,5.489-7.118V7.357C68.945,3.342,65.713,0.069,61.715,0.001z"/>
		<path fill="#8ACB98" d="M44.429,0.001c-4.115-0.07-7.484,3.388-7.484,7.504v1.696h3V7.465c0-2.359,1.831-4.372,4.189-4.462
			c2.479-0.095,4.525,1.895,4.525,4.353v6.285c0,2.017-1.377,3.72-3.24,4.214c-0.658,0.175-1.116,0.769-1.116,1.448l0,0
			c0,0.978,0.923,1.705,1.868,1.456c3.154-0.828,5.488-3.706,5.488-7.117V7.357C51.659,3.342,48.428,0.069,44.429,0.001z"/>
		<path fill="#8ACB98" d="M27.143,0.001c-4.115-0.07-7.484,3.388-7.484,7.504v1.696h3V7.465c0-2.359,1.832-4.372,4.189-4.462
			c2.479-0.095,4.526,1.895,4.526,4.353v6.285c0,2.017-1.378,3.72-3.241,4.214c-0.657,0.175-1.115,0.769-1.115,1.448l0,0
			c0,0.978,0.922,1.705,1.867,1.456c3.155-0.829,5.489-3.707,5.489-7.118V7.357C34.374,3.342,31.142,0.069,27.143,0.001z"/>
	</g>
	<path fill="#FF526C" d="M28.36,51.294c-0.008,0-0.017,0-0.024,0c-0.702-0.009-1.344-0.398-1.676-1.018l-4.821-9
		c-0.503-0.938-0.149-2.107,0.789-2.61c0.939-0.503,2.108-0.149,2.611,0.789l3.171,5.919l6.309-11.104
		c0.526-0.926,1.704-1.25,2.63-0.724c0.926,0.525,1.25,1.703,0.724,2.629l-8.035,14.143C29.694,50.922,29.054,51.294,28.36,51.294z"
		/>
	<path fill="#374266" d="M81.394,45.831H46.038c-1.065,0-1.929-0.863-1.929-1.929c0-1.064,0.863-1.928,1.929-1.928h35.355
		c1.065,0,1.929,0.863,1.929,1.928C83.322,44.967,82.459,45.831,81.394,45.831z"/>
	<path fill="#FF526C" d="M28.36,71.258c-0.008,0-0.017,0-0.024,0c-0.702-0.008-1.344-0.398-1.676-1.018l-4.821-9
		c-0.503-0.938-0.149-2.107,0.789-2.609c0.939-0.504,2.108-0.15,2.611,0.789l3.171,5.918l6.309-11.104
		c0.526-0.926,1.704-1.25,2.63-0.725c0.926,0.527,1.25,1.705,0.724,2.631l-8.035,14.141C29.694,70.887,29.054,71.258,28.36,71.258z"
		/>
	<g>
		<path fill="#374266" d="M81.394,65.795H46.038c-1.065,0-1.929-0.865-1.929-1.93s0.863-1.928,1.929-1.928h35.355
			c1.065,0,1.929,0.863,1.929,1.928C83.322,64.932,82.459,65.795,81.394,65.795z"/>
		<path fill="#374266" d="M81.394,84.109H46.038c-1.065,0.176-1.929-0.688-1.929-1.754c0-1.064,0.863-1.928,1.929-1.928h35.355
			c1.065,0,1.929,0.863,1.929,1.928C83.322,83.422,82.459,84.285,81.394,84.109z"/>
	</g>
</g>
</svg>
