<?xml version="1.0" encoding="utf-8"?>
<!-- Generator: Adobe Illustrator 16.0.0, SVG Export Plug-In . SVG Version: 6.00 Build 0)  -->
<!DOCTYPE svg PUBLIC "-//W3C//DTD SVG 1.1//EN" "http://www.w3.org/Graphics/SVG/1.1/DTD/svg11.dtd">
<svg version="1.1" id="Layer_1" xmlns="http://www.w3.org/2000/svg" xmlns:xlink="http://www.w3.org/1999/xlink" x="0px" y="0px"
	 width="105px" height="105px" viewBox="0 0 105 105" enable-background="new 0 0 105 105" xml:space="preserve">
<g>
	<path fill="#CED6D4" d="M105,52.5c0,5.302-0.786,10.421-2.248,15.244c-1.866,6.165-4.836,11.848-8.681,16.824
		c-2.289,2.961-4.886,5.672-7.744,8.082c-1.55,1.306-3.174,2.524-4.866,3.647C73.159,101.797,63.206,105,52.5,105
		C23.505,105,0,81.495,0,52.5S23.505,0,52.5,0S105,23.505,105,52.5z"/>
	<path fill="#00B098" d="M102.752,67.744c-1.866,6.165-4.836,11.848-8.681,16.824c-1.387,0.632-2.893,1.045-4.475,1.199
		c-0.054,0.005-0.104,0.009-0.158,0.016c-2.561,0.246-4.279,2.745-3.579,5.222l0.468,1.646c-1.55,1.306-3.174,2.524-4.866,3.647
		c-0.034-0.023-0.066-0.047-0.101-0.07l-11.885-8.716c-0.694-0.51-1.53-0.784-2.392-0.795c-5.756-0.074-11.512-0.388-17.267-0.949
		c-6.551-0.641-11.784-5.762-12.587-12.293c-1.202-9.755-1.198-19.509,0.011-29.261c0.806-6.512,6.045-11.573,12.577-12.212
		c13.26-1.294,26.52-1.294,39.779,0c6.531,0.639,11.771,5.7,12.577,12.212C103.146,52.057,103.337,59.901,102.752,67.744z"/>
	<g>
		<path fill="#FFFFFF" d="M89.185,52.454H50.229c-1.966,0-3.561-1.594-3.561-3.56l0,0c0-1.966,1.594-3.561,3.561-3.561h38.955
			c1.967,0,3.561,1.594,3.561,3.561l0,0C92.745,50.86,91.15,52.454,89.185,52.454z"/>
		<path fill="#FFFFFF" d="M89.185,63.345H50.229c-1.966,0-3.561-1.594-3.561-3.56l0,0c0-1.967,1.594-3.561,3.561-3.561h38.955
			c1.967,0,3.561,1.594,3.561,3.561l0,0C92.745,61.751,91.15,63.345,89.185,63.345z"/>
		<path fill="#FFFFFF" d="M89.185,74.236H50.229c-1.966,0-3.561-1.595-3.561-3.561l0,0c0-1.967,1.594-3.561,3.561-3.561h38.955
			c1.967,0,3.561,1.594,3.561,3.561l0,0C92.745,72.642,91.15,74.236,89.185,74.236z"/>
	</g>
	<path fill="#F1F1F7" d="M71.178,17.27c-0.807-6.512-6.047-11.574-12.577-12.211c-13.26-1.294-26.52-1.294-39.78,0
		C12.29,5.696,7.05,10.758,6.244,17.27c-1.212,9.785-1.211,19.569,0.001,29.354c0.807,6.513,6.044,11.563,12.576,12.201
		c0.053,0.005,0.105,0.01,0.158,0.015c2.562,0.248,4.279,2.746,3.578,5.223l-0.496,1.753c-0.833,2.944,2.529,5.279,4.997,3.47
		l11.884-8.715c0.694-0.509,1.531-0.784,2.392-0.796c5.756-0.073,11.512-0.388,17.267-0.949c6.551-0.64,11.783-5.76,12.588-12.293
		C72.389,36.778,72.385,27.024,71.178,17.27z"/>
	<g>
		<path fill="#ED2059" d="M42.875,32.597c-2.718,2.125-2.768,3.608-2.768,6.179c0,0.939-0.494,2.027-2.916,2.027
			c-2.026,0-2.719-0.742-2.719-3.312c0-4.251,1.878-6.277,3.312-7.513c1.631-1.384,4.399-2.916,4.399-5.585
			c0-2.274-1.977-3.361-4.448-3.361c-5.042,0-3.955,3.806-6.624,3.806c-1.334,0-2.965-0.89-2.965-2.818
			c0-2.669,3.064-6.623,9.738-6.623c6.327,0,10.528,3.509,10.528,8.156C48.411,28.198,44.209,31.56,42.875,32.597z M41.046,48.019
			c0,2.026-1.68,3.806-3.806,3.806s-3.757-1.779-3.757-3.806c0-2.076,1.681-3.806,3.757-3.806
			C39.316,44.213,41.046,45.943,41.046,48.019z"/>
	</g>
</g>
</svg>
