<?xml version="1.0" encoding="utf-8"?>
<!-- Generator: Adobe Illustrator 16.0.0, SVG Export Plug-In . SVG Version: 6.00 Build 0)  -->
<!DOCTYPE svg PUBLIC "-//W3C//DTD SVG 1.1//EN" "http://www.w3.org/Graphics/SVG/1.1/DTD/svg11.dtd">
<svg version="1.1" id="Layer_1" xmlns="http://www.w3.org/2000/svg" xmlns:xlink="http://www.w3.org/1999/xlink" x="0px" y="0px"
	 width="109.714px" height="105px" viewBox="0 0 109.714 105" enable-background="new 0 0 109.714 105" xml:space="preserve">
<g>
	<circle fill="#CED6D4" cx="54.857" cy="52.5" r="52.5"/>
	<path fill="#F1F1F7" d="M75.986,70.876c0-0.473,0.385-0.856,0.857-0.856h24.652V24.045H32.045v2.149
		c0,0.305-0.249,0.554-0.554,0.554H8.218v49.875c3.845,7.42,9.408,13.805,16.163,18.629h51.607V70.876H75.986z"/>
	<path fill="#EEF6FF" d="M8.218,26.748v49.875c1.243,2.398,2.668,4.687,4.252,6.852V26.748H8.218z"/>
	<path fill="#293D7C" d="M99.244,12.431H32.045V24.26h69.451v-9.576C101.496,13.445,100.482,12.431,99.244,12.431z"/>
	<path fill="#AEC1ED" d="M96.089,19.588h-5.408c-0.889,0-1.607-0.719-1.607-1.607c0-0.888,0.719-1.607,1.607-1.607h5.408
		c0.887,0,1.607,0.719,1.607,1.607C97.697,18.869,96.976,19.588,96.089,19.588z"/>
	<path fill="#FFFFFF" d="M93.644,41.422c0,0.554-0.453,1.007-1.008,1.007h-75.56c-0.554,0-1.007-0.453-1.007-1.007V31.347
		c0-0.554,0.454-1.007,1.007-1.007h75.56c0.555,0,1.008,0.454,1.008,1.007V41.422L93.644,41.422z"/>
	<path fill="#EEF6FF" d="M20.321,41.422V31.347c0-0.554,0.454-1.007,1.007-1.007h-4.252c-0.554,0-1.007,0.454-1.007,1.007v10.075
		c0,0.554,0.454,1.007,1.007,1.007h4.252C20.775,42.43,20.321,41.977,20.321,41.422z"/>
	<path fill="#FF9518" d="M92.636,30.34H78.904v12.09h13.732c0.555,0,1.008-0.453,1.008-1.007V31.347
		C93.644,30.793,93.191,30.34,92.636,30.34z"/>
	<path fill="#ED2059" d="M109.714,103.929c0,0.589-0.482,1.071-1.072,1.071H76.843c-0.588,0-1.07-0.482-1.07-1.071V70.876
		c0-0.589,0.482-1.071,1.07-1.071h31.799c0.59,0,1.072,0.482,1.072,1.071V103.929z"/>
	<g>
		<path fill="#ED2059" d="M80.025,103.929V70.876c0-0.589,0.482-1.071,1.07-1.071h-4.252c-0.588,0-1.07,0.482-1.07,1.071v33.053
			c0,0.589,0.482,1.071,1.07,1.071h4.252C80.507,105,80.025,104.518,80.025,103.929z"/>
		<path fill="#FFFFFF" d="M101.408,80.085h-17.33c-0.887,0-1.607-0.72-1.607-1.607s0.721-1.607,1.607-1.607h17.33
			c0.889,0,1.607,0.72,1.607,1.607S102.296,80.085,101.408,80.085z"/>
		<path fill="#FFFFFF" d="M101.408,87.01h-17.33c-0.887,0-1.607-0.719-1.607-1.606s0.721-1.607,1.607-1.607h17.33
			c0.889,0,1.607,0.72,1.607,1.607S102.296,87.01,101.408,87.01z"/>
		<path fill="#FFFFFF" d="M92.779,94.042h-8.701c-0.887,0-1.607-0.72-1.607-1.607s0.721-1.607,1.607-1.607h8.701
			c0.887,0,1.605,0.72,1.605,1.607S93.666,94.042,92.779,94.042z"/>
	</g>
	<path fill="#1A2B63" d="M59.718,80.507l-8.81-8.811c3.621-5.784,2.923-13.521-2.104-18.549c-2.83-2.83-6.593-4.389-10.597-4.389
		c-4.002,0-7.766,1.559-10.597,4.39c-5.842,5.844-5.842,15.351,0,21.194c2.831,2.83,6.595,4.389,10.597,4.389
		c2.859,0,5.592-0.798,7.954-2.283l8.807,8.807c0.655,0.656,1.515,0.984,2.376,0.984c0.857,0,1.719-0.328,2.373-0.983
		C61.031,83.945,61.031,81.818,59.718,80.507z M32.361,69.594c-3.224-3.225-3.224-8.472,0-11.696
		c1.563-1.562,3.64-2.422,5.848-2.422c2.209,0,4.286,0.86,5.848,2.422c3.224,3.225,3.224,8.472,0,11.695
		c-1.562,1.563-3.639,2.423-5.848,2.423C36,72.016,33.923,71.155,32.361,69.594z"/>
	<path fill="#91E0E8" d="M0,26.194c0,0.422,0.345,0.768,0.768,0.768h30.723c0.423,0,0.768-0.346,0.768-0.768V5.61
		c0-0.422-0.345-0.768-0.768-0.768H0.768C0.345,4.842,0,5.188,0,5.61V26.194z"/>
	<path fill="#91E0E8" d="M4.252,26.194V5.61c0-0.422,0.346-0.768,0.768-0.768H0.768C0.345,4.842,0,5.188,0,5.61v20.584
		c0,0.423,0.345,0.768,0.768,0.768H5.02C4.598,26.962,4.252,26.617,4.252,26.194z"/>
	<path fill="#00B098" d="M7.368,16.869c0.272-0.323,0.718-0.323,0.99,0l3.993,4.737c0.272,0.323,0.718,0.323,0.99,0l7.537-8.942
		c0.272-0.323,0.718-0.323,0.99,0l10.391,12.328v1.202c0,0.422-0.345,0.768-0.768,0.768H0.768C0.345,26.962,0,26.617,0,26.194
		v-0.585L7.368,16.869z"/>
	<circle fill="#FFFFFF" cx="27.93" cy="8.87" r="2.304"/>
</g>
</svg>
