<?xml version="1.0" encoding="utf-8"?>
<!-- Generator: Adobe Illustrator 16.0.0, SVG Export Plug-In . SVG Version: 6.00 Build 0)  -->
<!DOCTYPE svg PUBLIC "-//W3C//DTD SVG 1.1//EN" "http://www.w3.org/Graphics/SVG/1.1/DTD/svg11.dtd">
<svg version="1.1" id="Capa_1" xmlns="http://www.w3.org/2000/svg" xmlns:xlink="http://www.w3.org/1999/xlink" x="0px" y="0px"
	 width="96px" height="66px" viewBox="452 467 96 66" enable-background="new 452 467 96 66" xml:space="preserve">
<g>
	<path fill="#13335B" d="M521,507.5v-36c0-2.481-2.019-4.5-4.5-4.5h-60c-2.481,0-4.5,2.019-4.5,4.5v36c0,2.481,2.019,4.5,4.5,4.5h60
		C518.981,512,521,509.981,521,507.5z M455,507.5v-36c0-0.827,0.673-1.5,1.5-1.5h60c0.827,0,1.5,0.673,1.5,1.5v36
		c0,0.827-0.673,1.5-1.5,1.5h-60C455.673,509,455,508.327,455,507.5z"/>
	<path fill="#13335B" d="M543.5,488h-18c-0.828,0-1.5,0.672-1.5,1.5c0,0.829,0.672,1.5,1.5,1.5h18c0.827,0,1.5,0.673,1.5,1.5v7.5
		h-19.5c-0.828,0-1.5,0.672-1.5,1.5s0.672,1.5,1.5,1.5H545v25.5c0,0.827-0.673,1.5-1.5,1.5h-60c-0.827,0-1.5-0.673-1.5-1.5v-12
		c0-0.828-0.671-1.5-1.5-1.5c-0.828,0-1.5,0.672-1.5,1.5v12c0,2.481,2.019,4.5,4.5,4.5h60c2.481,0,4.5-2.019,4.5-4.5v-36
		C548,490.019,545.981,488,543.5,488z"/>
	<path fill="#06AEEE" d="M483.5,498.5H476c-0.829,0-1.5,0.672-1.5,1.5s0.671,1.5,1.5,1.5h7.5c0.828,0,1.5-0.672,1.5-1.5
		S484.328,498.5,483.5,498.5z"/>
	<path fill="#06AEEE" d="M470,498.5h-7.5c-0.829,0-1.5,0.672-1.5,1.5s0.671,1.5,1.5,1.5h7.5c0.828,0,1.5-0.672,1.5-1.5
		S470.828,498.5,470,498.5z"/>
	<path fill="#06AEEE" d="M510.5,498.5H503c-0.828,0-1.5,0.672-1.5,1.5s0.672,1.5,1.5,1.5h7.5c0.829,0,1.5-0.672,1.5-1.5
		S511.329,498.5,510.5,498.5z"/>
	<path fill="#06AEEE" d="M497,498.5h-7.5c-0.828,0-1.5,0.672-1.5,1.5s0.672,1.5,1.5,1.5h7.5c0.829,0,1.5-0.672,1.5-1.5
		S497.829,498.5,497,498.5z"/>
	<path fill="#13335B" d="M468.5,474.5H464c-2.481,0-4.5,2.019-4.5,4.5v1.5c0,2.481,2.019,4.5,4.5,4.5h4.5c2.481,0,4.5-2.019,4.5-4.5
		V479C473,476.519,470.981,474.5,468.5,474.5z M470,480.5c0,0.827-0.673,1.5-1.5,1.5H464c-0.827,0-1.5-0.673-1.5-1.5V479
		c0-0.827,0.673-1.5,1.5-1.5h4.5c0.827,0,1.5,0.673,1.5,1.5V480.5z"/>
	<path fill="#06AEEE" d="M507.5,474.5c-1.791,0-3.399,0.79-4.5,2.038c-1.101-1.249-2.709-2.038-4.5-2.038c-3.309,0-6,2.691-6,6
		c0,3.308,2.691,6,6,6c1.791,0,3.399-0.79,4.5-2.038c1.101,1.248,2.709,2.038,4.5,2.038c3.309,0,6-2.692,6-6
		C513.5,477.191,510.809,474.5,507.5,474.5z M498.5,483.5c-1.654,0-3-1.346-3-3c0-1.654,1.346-3,3-3c1.654,0,3,1.346,3,3
		C501.5,482.154,500.154,483.5,498.5,483.5z M507.5,483.5c-1.654,0-3-1.346-3-3c0-1.654,1.346-3,3-3s3,1.346,3,3
		C510.5,482.154,509.154,483.5,507.5,483.5z"/>
	<path fill="#13335B" d="M525.5,497H542c0.829,0,1.5-0.671,1.5-1.5s-0.671-1.5-1.5-1.5h-16.5c-0.828,0-1.5,0.671-1.5,1.5
		S524.672,497,525.5,497z"/>
	<path fill="#13335B" d="M537.5,515H509c-0.828,0-1.5,0.672-1.5,1.5s0.672,1.5,1.5,1.5h28.5c0.828,0,1.5-0.672,1.5-1.5
		S538.328,515,537.5,515z"/>
	<path fill="#13335B" d="M537.5,521h-18c-0.828,0-1.5,0.671-1.5,1.5c0,0.828,0.672,1.5,1.5,1.5h18c0.828,0,1.5-0.672,1.5-1.5
		C539,521.671,538.328,521,537.5,521z"/>
</g>
</svg>
