<?xml version="1.0" encoding="utf-8"?>
<!-- Generator: Adobe Illustrator 16.0.0, SVG Export Plug-In . SVG Version: 6.00 Build 0)  -->
<!DOCTYPE svg PUBLIC "-//W3C//DTD SVG 1.1//EN" "http://www.w3.org/Graphics/SVG/1.1/DTD/svg11.dtd">
<svg version="1.1" id="outline" xmlns="http://www.w3.org/2000/svg" xmlns:xlink="http://www.w3.org/1999/xlink" x="0px" y="0px"
	 width="83px" height="83px" viewBox="214.5 214.5 83 83" enable-background="new 214.5 214.5 83 83" xml:space="preserve">
<g>
	<path fill="#13335B" d="M296.116,214.505h-80.233c-0.764,0-1.383,0.619-1.383,1.383v6.916c0,0.764,0.619,1.383,1.383,1.383h4.15
		v59.482h-4.15v2.767h38.733v3.005c-2.161,0.764-3.293,3.135-2.529,5.296s3.135,3.293,5.296,2.529
		c2.16-0.764,3.293-3.135,2.528-5.296c-0.417-1.182-1.347-2.111-2.528-2.529v-3.005h38.732v-2.767h-4.149v-59.482h4.149
		c0.765,0,1.384-0.619,1.384-1.383v-6.916C297.5,215.125,296.881,214.505,296.116,214.505z M256,294.736
		c-0.764,0-1.383-0.619-1.383-1.383c0-0.765,0.619-1.384,1.383-1.384c0.764,0,1.384,0.619,1.384,1.384
		C257.383,294.117,256.764,294.735,256,294.736z M289.2,283.67h-66.4v-59.482h66.4V283.67z M294.733,221.421h-77.467v-4.149h77.467
		V221.421z"/>
	<path fill="#06AEEE" d="M258.767,242.171c4.582,0.005,8.295,3.718,8.3,8.299c0,0.764,0.62,1.383,1.384,1.383h9.684
		c0.764,0,1.383-0.619,1.383-1.383c0.005-4.349-1.365-8.588-3.913-12.113l1.72-1.72h7.727v-2.767h-8.3
		c-0.367,0-0.719,0.146-0.979,0.405l-1.94,1.94c-3.912-4.148-9.362-6.498-15.064-6.496c-0.764,0-1.383,0.62-1.383,1.383v9.684
		C257.384,241.552,258.003,242.171,258.767,242.171z M260.15,232.541c8.835,0.694,15.854,7.712,16.547,16.547h-6.95
		c-0.64-5.012-4.585-8.957-9.597-9.597V232.541z"/>
	<path fill="#13335B" d="M237.611,273.582l1.968-1.967c7.871,6.902,19.656,6.846,27.459-0.134l3.411,2.273
		c0.228,0.151,0.494,0.232,0.768,0.232h9.684v-2.767h-9.265l-2.628-1.752c3.215-3.749,4.979-8.525,4.976-13.464
		c0-0.764-0.619-1.383-1.384-1.383h-9.683c-0.765,0-1.384,0.619-1.384,1.383c0,4.583-3.716,8.3-8.3,8.3s-8.3-3.717-8.3-8.3
		c0-4.584,3.716-8.3,8.3-8.3c0.764,0,1.383-0.619,1.383-1.383v-9.683c0-0.764-0.619-1.383-1.383-1.383
		c-3.668-0.004-7.271,0.97-10.438,2.822l-3.801-3.801c-0.259-0.259-0.611-0.405-0.978-0.405h-9.683v2.767h9.11l3.021,3.021
		c-9.025,7.034-10.638,20.054-3.604,29.078c0.245,0.314,0.499,0.622,0.762,0.921l-1.562,1.563h-9.11v2.767h9.683
		C237,273.987,237.352,273.842,237.611,273.582z M264.214,257.388h6.95c-0.764,9.902-9.411,17.311-19.313,16.547
		c-1.684-0.13-3.341-0.497-4.923-1.089l2.73-6.371c5.779,1.979,12.067-1.104,14.046-6.882
		C263.949,258.877,264.12,258.138,264.214,257.388z M251.85,245.023c-2.368,0.299-4.575,1.357-6.29,3.017l-5.331-4.442
		c3.058-3.215,7.198-5.183,11.621-5.523V245.023z M238.477,245.738l5.344,4.454c-3.156,5.099-1.669,11.783,3.35,15.064l-2.751,6.419
		c-8.651-4.857-11.727-15.809-6.869-24.46C237.835,246.708,238.144,246.215,238.477,245.738L238.477,245.738z"/>
	<path fill="#13335B" d="M226.95,276.754h2.767v2.767h-2.767V276.754z"/>
	<path fill="#13335B" d="M232.483,276.754h8.3v2.767h-8.3V276.754z"/>
	<path fill="#13335B" d="M278.134,276.754h2.767v2.767h-2.767V276.754z"/>
	<path fill="#13335B" d="M267.066,276.754h8.3v2.767h-8.3V276.754z"/>
	<path fill="#13335B" d="M282.283,228.338h2.767v2.767h-2.767V228.338z"/>
	<path fill="#13335B" d="M272.6,228.338h6.917v2.767H272.6V228.338z"/>
	<path fill="#13335B" d="M239.4,228.338h2.767v2.767H239.4V228.338z"/>
	<path fill="#13335B" d="M228.333,228.338h8.3v2.767h-8.3V228.338z"/>
</g>
</svg>
