<?xml version="1.0" encoding="utf-8"?>
<!-- Generator: Adobe Illustrator 16.0.0, SVG Export Plug-In . SVG Version: 6.00 Build 0)  -->
<!DOCTYPE svg PUBLIC "-//W3C//DTD SVG 1.1//EN" "http://www.w3.org/Graphics/SVG/1.1/DTD/svg11.dtd">
<svg version="1.1" id="Layer_1" xmlns="http://www.w3.org/2000/svg" xmlns:xlink="http://www.w3.org/1999/xlink" x="0px" y="0px"
	 width="90px" height="79.331px" viewBox="211 213.788 90 79.331" enable-background="new 211 213.788 90 79.331"
	 xml:space="preserve">
<g id="outline">
	<path fill="#13335B" d="M263.5,248.215c-0.828,0-1.5,0.67-1.5,1.497v7.484c0,0.827,0.672,1.497,1.5,1.497h7.5
		c0.828,0,1.5-0.67,1.5-1.497v-7.484c0-0.827-0.672-1.497-1.5-1.497H263.5z M269.5,255.699H265v-4.49h4.5V255.699z"/>
	<path fill="#06AEEE" d="M278.5,248.215c-0.828,0-1.5,0.67-1.5,1.497v7.484c0,0.827,0.672,1.497,1.5,1.497h7.5
		c0.828,0,1.5-0.67,1.5-1.497v-7.484c0-0.827-0.672-1.497-1.5-1.497H278.5z M284.5,255.699H280v-4.49h4.5V255.699z"/>
	<path fill="#13335B" d="M211,266.343c0.002,2.091,0.49,4.154,1.425,6.026l10.733,21.419l2.685-1.338l-10.734-21.421
		c-0.727-1.456-1.106-3.061-1.108-4.687v-17.38c0-1.24,1.007-2.245,2.25-2.245s2.25,1.005,2.25,2.245v17.214
		c0,0.356,0.128,0.702,0.361,0.973l1.896,2.209l0.027,0.03l7.077,8.232c0.563,0.607,1.511,0.645,2.12,0.084
		c0.576-0.531,0.645-1.416,0.157-2.03l-7.093-8.253c-0.785-0.914-0.678-2.29,0.238-3.073c0.917-0.782,2.295-0.676,3.08,0.238
		l7.5,8.562c0.069,0.078,0.145,0.149,0.228,0.213c3.395,2.549,5.396,6.537,5.409,10.776v8.981h3v-8.981
		c-0.013-5.122-2.402-9.95-6.471-13.074l-7.407-8.446c-1.035-1.167-2.536-1.813-4.097-1.765c-1.102,0.04-2.162,0.431-3.025,1.115
		v-13.005c0-2.893-2.351-5.239-5.25-5.239s-5.25,2.346-5.25,5.239V266.343z"/>
	<path fill="#13335B" d="M295.75,243.724c-2.899,0-5.25,2.346-5.25,5.239v13.005c-0.863-0.685-1.924-1.075-3.025-1.115
		c-1.561-0.045-3.06,0.601-4.097,1.765l-7.407,8.446c-4.067,3.124-6.458,7.952-6.471,13.074v8.981h3v-8.981
		c0.01-4.237,2.009-8.226,5.4-10.776c0.082-0.063,0.158-0.135,0.228-0.213l7.508-8.562c0.424-0.507,1.063-0.784,1.725-0.749
		c1.205,0.044,2.146,1.054,2.103,2.256c-0.019,0.484-0.197,0.949-0.509,1.32l-7.093,8.267c-0.515,0.648-0.406,1.59,0.243,2.104
		c0.615,0.486,1.501,0.418,2.034-0.157l7.079-8.232l0.025-0.03l1.896-2.209c0.234-0.272,0.363-0.62,0.361-0.979v-17.214
		c0-1.24,1.008-2.245,2.25-2.245s2.249,1.005,2.249,2.245v17.38c-0.002,1.626-0.38,3.23-1.107,4.687l-10.733,21.421l2.685,1.338
		l10.732-21.419c0.936-1.872,1.423-3.936,1.425-6.026v-17.38C301,246.07,298.649,243.724,295.75,243.724z"/>
	<path fill="#13335B" d="M295,242.228v-1.497c0-0.031-0.017-0.058-0.018-0.09c-0.009-0.136-0.036-0.27-0.081-0.398
		c-0.014-0.048-0.03-0.095-0.05-0.141c-0.07-0.155-0.166-0.297-0.283-0.42l-0.01-0.011l-19.5-19.458
		c-0.28-0.28-0.662-0.437-1.059-0.437h-6v2.994h5.379l16.5,16.465h-33.258l-16.5-16.465H257.5v-2.994h-21h-0.017h-0.013
		c-0.02,0-0.038,0.012-0.057,0.014c-0.158,0.009-0.314,0.043-0.46,0.103c-0.046,0.019-0.091,0.041-0.135,0.064
		c-0.128,0.066-0.247,0.15-0.351,0.251c-0.02,0.02-0.048,0.027-0.068,0.048l-18,19.458l2.202,2.033l16.95-18.315l17.949,17.918
		v26.322H244v-17.961c0-0.827-0.671-1.497-1.5-1.497H232c-0.829,0-1.5,0.67-1.5,1.497v10.478h3v-8.981h7.5v16.464h-1.5v2.994h33
		v-2.994h-15v-25.445H295z"/>
	<path fill="#06AEEE" d="M257.5,224.51v2.75c0,0.827,0.672,1.497,1.5,1.497h7.5c0.829,0,1.5-0.67,1.5-1.497v-3.364v-1.126v-2.994
		v-4.491c0-0.827-0.671-1.497-1.5-1.497H259c-0.828,0-1.5,0.67-1.5,1.497v4.491v2.994V224.51z M260.5,216.782h4.5v8.981h-4.5
		V216.782z"/>
</g>
</svg>
