<?xml version="1.0" encoding="utf-8"?>
<!-- Generator: Adobe Illustrator 16.0.0, SVG Export Plug-In . SVG Version: 6.00 Build 0)  -->
<!DOCTYPE svg PUBLIC "-//W3C//DTD SVG 1.1//EN" "http://www.w3.org/Graphics/SVG/1.1/DTD/svg11.dtd">
<svg version="1.1" id="Capa_1" xmlns="http://www.w3.org/2000/svg" xmlns:xlink="http://www.w3.org/1999/xlink" x="0px" y="0px"
	 width="74.034px" height="91px" viewBox="462.983 454.5 74.034 91" enable-background="new 462.983 454.5 74.034 91"
	 xml:space="preserve">
<g>
	<g>
		<g>
			<path fill="#13335B" d="M500,491.518c10.206,0,18.509-8.303,18.509-18.509S510.206,454.5,500,454.5s-18.508,8.303-18.508,18.509
				S489.794,491.518,500,491.518z M500,457.585c8.505,0,15.424,6.919,15.424,15.424s-6.919,15.424-15.424,15.424
				s-15.424-6.919-15.424-15.424S491.495,457.585,500,457.585z"/>
			<path fill="#06AEEE" d="M497.687,482.263h0.771v3.085h3.084v-3.085h0.771c2.977,0,5.398-2.421,5.398-5.398
				c0-2.977-2.422-5.398-5.398-5.398h-4.627c-1.275,0-2.313-1.038-2.313-2.313s1.038-2.313,2.313-2.313h4.627
				c1.275,0,2.313,1.038,2.313,2.313v0.771h3.085v-0.771c0-2.977-2.422-5.398-5.398-5.398h-0.771v-3.084h-3.084v3.084h-0.771
				c-2.977,0-5.398,2.421-5.398,5.398c0,2.977,2.421,5.398,5.398,5.398h4.627c1.275,0,2.313,1.038,2.313,2.313
				c0,1.276-1.038,2.313-2.313,2.313h-4.627c-1.275,0-2.313-1.037-2.313-2.313v-0.771h-3.085v0.771
				C492.288,479.842,494.709,482.263,497.687,482.263z"/>
			<path fill="#13335B" d="M476.864,514.652c-2.551,0-4.627,2.076-4.627,4.628c0,2.551,2.076,4.627,4.627,4.627
				c2.551,0,4.627-2.076,4.627-4.627C481.492,516.729,479.416,514.652,476.864,514.652z M476.864,520.822
				c-0.85,0-1.542-0.692-1.542-1.542c0-0.851,0.692-1.543,1.542-1.543c0.85,0,1.542,0.692,1.542,1.543
				C478.407,520.13,477.714,520.822,476.864,520.822z"/>
			<path fill="#13335B" d="M518.509,519.28c0,2.551,2.075,4.627,4.627,4.627c2.551,0,4.627-2.076,4.627-4.627
				c0-2.552-2.076-4.628-4.627-4.628C520.584,514.652,518.509,516.729,518.509,519.28z M524.678,519.28
				c0,0.85-0.692,1.542-1.542,1.542s-1.542-0.692-1.542-1.542c0-0.851,0.692-1.543,1.542-1.543S524.678,518.43,524.678,519.28z"/>
			<path fill="#13335B" d="M532.39,497.687h-5.241l-0.355-5.344c-0.352-5.272-4.419-9.487-9.671-10.021l-0.312,3.068
				c3.749,0.382,6.653,3.392,6.905,7.158l0.855,12.851h-3.092l-0.843-12.646c-0.162-2.424-2.188-4.32-4.616-4.32h-2.14v3.085h2.14
				c0.809,0,1.484,0.632,1.539,1.44l0.828,12.44h-36.776l0.83-12.443c0.054-0.806,0.729-1.438,1.538-1.438h2.139v-3.085h-2.139
				c-2.428,0-4.456,1.896-4.616,4.318l-0.842,12.647h-3.093l0.856-12.853c0.251-3.765,3.155-6.775,6.905-7.158l-0.312-3.067
				c-5.251,0.533-9.319,4.749-9.67,10.021l-0.356,5.346h-5.241c-2.551,0-4.627,2.076-4.627,4.627v1.543
				c0,2.551,2.076,4.627,4.627,4.627v-3.085c-0.85,0-1.542-0.692-1.542-1.542v-1.543c0-0.85,0.692-1.542,1.542-1.542h5.036
				l-0.35,5.249c-2.751,1.18-4.686,3.913-4.686,7.09v13.882c-1.701,0-3.085,1.383-3.085,3.084v3.085
				c0,1.701,1.384,3.085,3.085,3.085h3.084v3.085c0,3.402,2.767,6.169,6.169,6.169c3.403,0,6.17-2.767,6.17-6.169v-3.085h33.932
				v3.085c0,3.402,2.768,6.169,6.17,6.169s6.169-2.767,6.169-6.169v-3.085h3.085c1.701,0,3.085-1.384,3.085-3.085v-3.085
				c0-1.701-1.384-3.084-3.085-3.084V513.11c0-3.177-1.934-5.91-4.686-7.09l-0.351-5.249h5.036c0.85,0,1.543,0.692,1.543,1.542
				v1.543c0,0.85-0.693,1.542-1.543,1.542v3.085c2.551,0,4.627-2.076,4.627-4.627v-1.543
				C537.017,499.763,534.94,497.687,532.39,497.687z M520.955,508.483l-6.17,6.169h-29.57l-6.169-6.169H520.955z M513.881,517.737
				v9.255h-3.084v-9.255H513.881z M507.712,517.737v9.255h-3.085v-9.255H507.712z M501.542,517.737v9.255h-3.084v-9.255H501.542z
				 M495.373,517.737v9.255h-3.085v-9.255H495.373z M489.203,517.737v9.255h-3.084v-9.255H489.203z M470.695,513.11
				c0-2.354,1.772-4.28,4.047-4.568l8.292,8.292v10.158h-12.339V513.11z M479.949,539.331c0,1.701-1.384,3.085-3.085,3.085
				s-3.084-1.384-3.084-3.085v-3.085h6.169V539.331z M526.221,539.331c0,1.701-1.384,3.085-3.085,3.085s-3.085-1.384-3.085-3.085
				v-3.085h6.17V539.331z M532.39,530.076l0.002,3.085H467.61v-3.085H532.39z M529.305,513.11v13.882h-12.339v-10.158l8.292-8.292
				C527.533,508.83,529.305,510.757,529.305,513.11z"/>
		</g>
	</g>
</g>
</svg>
