<?xml version="1.0" encoding="utf-8"?>
<!-- Generator: Adobe Illustrator 16.0.0, SVG Export Plug-In . SVG Version: 6.00 Build 0)  -->
<!DOCTYPE svg PUBLIC "-//W3C//DTD SVG 1.1//EN" "http://www.w3.org/Graphics/SVG/1.1/DTD/svg11.dtd">
<svg version="1.1" id="Capa_1" xmlns="http://www.w3.org/2000/svg" xmlns:xlink="http://www.w3.org/1999/xlink" x="0px" y="0px"
	 width="81px" height="81px" viewBox="459.5 459.5 81 81" enable-background="new 459.5 459.5 81 81" xml:space="preserve">
<g>
	<g>
		<g>
			<path fill="#06AEEE" d="M492.466,510.015l-2.977-0.99c-0.979-0.326-1.639-1.242-1.639-2.274c0-1.491,1.208-2.7,2.7-2.7
				c1.491,0,2.7,1.209,2.7,2.7h2.7c-0.009-2.455-1.673-4.595-4.05-5.208v-2.892h-2.7v2.892c-2.377,0.613-4.041,2.753-4.05,5.208
				c-0.001,2.194,1.402,4.143,3.484,4.836l2.977,0.989c0.979,0.326,1.639,1.242,1.639,2.274c0,1.491-1.208,2.7-2.7,2.7
				c-1.492,0-2.7-1.209-2.7-2.7h-2.7c0.009,2.455,1.673,4.595,4.05,5.209v2.892h2.7v-2.892c2.377-0.614,4.041-2.754,4.05-5.209
				C495.952,512.655,494.548,510.707,492.466,510.015z"/>
		</g>
	</g>
	<g>
		<g>
			<path fill="#13335B" d="M512.15,505.399h-5.4c-0.745,0-1.35,0.604-1.35,1.351v5.399c0,0.746,0.604,1.351,1.35,1.351h5.4
				c0.745,0,1.35-0.604,1.35-1.351v-5.399C513.5,506.004,512.896,505.399,512.15,505.399z M510.8,510.8h-2.7v-2.7h2.7V510.8z"/>
		</g>
	</g>
	<g>
		<g>
			<path fill="#13335B" d="M522.95,505.399h-5.4c-0.745,0-1.35,0.604-1.35,1.351v5.399c0,0.746,0.604,1.351,1.35,1.351h5.4
				c0.745,0,1.35-0.604,1.35-1.351v-5.399C524.3,506.004,523.695,505.399,522.95,505.399z M521.6,510.8h-2.7v-2.7h2.7V510.8z"/>
		</g>
	</g>
	<g>
		<g>
			<path fill="#13335B" d="M533.75,505.399h-5.4c-0.745,0-1.35,0.604-1.35,1.351v5.399c0,0.746,0.604,1.351,1.35,1.351h5.4
				c0.745,0,1.35-0.604,1.35-1.351v-5.399C535.1,506.004,534.495,505.399,533.75,505.399z M532.399,510.8H529.7v-2.7h2.699V510.8z"
				/>
		</g>
	</g>
	<g>
		<g>
			<path fill="#13335B" d="M512.15,516.2h-5.4c-0.745,0-1.35,0.604-1.35,1.35v5.4c0,0.745,0.604,1.35,1.35,1.35h5.4
				c0.745,0,1.35-0.604,1.35-1.35v-5.4C513.5,516.805,512.896,516.2,512.15,516.2z M510.8,521.6h-2.7v-2.7h2.7V521.6z"/>
		</g>
	</g>
	<g>
		<g>
			<path fill="#13335B" d="M522.95,516.2h-5.4c-0.745,0-1.35,0.604-1.35,1.35v5.4c0,0.745,0.604,1.35,1.35,1.35h5.4
				c0.745,0,1.35-0.604,1.35-1.35v-5.4C524.3,516.805,523.695,516.2,522.95,516.2z M521.6,521.6h-2.7v-2.7h2.7V521.6z"/>
		</g>
	</g>
	<g>
		<g>
			<path fill="#13335B" d="M512.15,527h-5.4c-0.745,0-1.35,0.604-1.35,1.35v5.4c0,0.745,0.604,1.35,1.35,1.35h5.4
				c0.745,0,1.35-0.604,1.35-1.35v-5.4C513.5,527.604,512.896,527,512.15,527z M510.8,532.399h-2.7V529.7h2.7V532.399z"/>
		</g>
	</g>
	<g>
		<g>
			<path fill="#13335B" d="M522.95,527h-5.4c-0.745,0-1.35,0.604-1.35,1.35v5.4c0,0.745,0.604,1.35,1.35,1.35h5.4
				c0.745,0,1.35-0.604,1.35-1.35v-5.4C524.3,527.604,523.695,527,522.95,527z M521.6,532.399h-2.7V529.7h2.7V532.399z"/>
		</g>
	</g>
	<g>
		<g>
			<path fill="#06AEEE" d="M533.75,516.2h-5.4c-0.745,0-1.35,0.604-1.35,1.35v16.2c0,0.745,0.604,1.35,1.35,1.35h5.4
				c0.745,0,1.35-0.604,1.35-1.35v-16.2C535.1,516.805,534.495,516.2,533.75,516.2z M532.399,532.399H529.7v-13.5h2.699V532.399z"/>
		</g>
	</g>
	<g>
		<g>
			<rect x="532.399" y="494.6" fill="#13335B" width="2.7" height="2.7"/>
		</g>
	</g>
	<g>
		<g>
			<rect x="527" y="494.6" fill="#13335B" width="2.7" height="2.7"/>
		</g>
	</g>
	<g>
		<g>
			<rect x="521.6" y="494.6" fill="#13335B" width="2.7" height="2.7"/>
		</g>
	</g>
	<rect x="502.7" y="502.7" fill="none" width="35.1" height="35.1"/>
	<path fill="none" d="M499.55,473l4.5-3.375V462.2h-3.491l-2.304,2.304c-0.527,0.527-1.382,0.527-1.909,0l-2.305-2.304h-6.982
		l-2.305,2.304c-0.527,0.527-1.382,0.527-1.909,0l-2.305-2.304h-3.491v7.425l4.5,3.375H499.55z"/>
	<rect x="482.45" y="475.7" fill="none" width="16.2" height="4.05"/>
	<rect x="502.7" y="491.9" fill="none" width="35.1" height="8.1"/>
	<path fill="#06AEEE" d="M475.752,501.324c-5.233,8.158-2.861,19.015,5.297,24.247c5.774,3.704,13.176,3.704,18.95,0v-3.333
		c-6.317,5.23-15.678,4.351-20.909-1.967s-4.35-15.678,1.967-20.909c5.495-4.549,13.447-4.549,18.942,0v-3.336
		C491.841,490.794,480.985,493.166,475.752,501.324z"/>
	<path fill="#13335B" d="M539.149,489.2h-27.291c-2.853-3.516-6.439-6.366-10.509-8.351v-5.824l4.86-3.645
		c0.34-0.255,0.54-0.655,0.54-1.08v-9.45c0-0.746-0.604-1.35-1.35-1.35H500c-0.358,0-0.701,0.143-0.955,0.396l-1.746,1.746
		l-1.745-1.746c-0.253-0.253-0.597-0.396-0.955-0.396h-8.1c-0.358,0-0.701,0.143-0.955,0.396l-1.745,1.746l-1.746-1.746
		c-0.253-0.253-0.597-0.396-0.955-0.396h-5.4c-0.746,0-1.35,0.604-1.35,1.35v9.45c0,0.425,0.2,0.825,0.54,1.08l4.86,3.645v5.837
		c-10.219,4.945-20.25,18.228-20.25,35.264c0,15.489,11.317,24.374,31.05,24.374c3.203,0.012,6.4-0.272,9.551-0.848
		c0.205,0.51,0.699,0.846,1.249,0.848h37.8c0.746,0,1.351-0.604,1.351-1.351v-48.6C540.5,489.804,539.896,489.2,539.149,489.2z
		 M477.05,469.625V462.2h3.491l2.305,2.304c0.527,0.527,1.382,0.527,1.909,0l2.305-2.304h6.982l2.305,2.304
		c0.527,0.527,1.381,0.527,1.909,0l2.304-2.304h3.491v7.425l-4.5,3.375h-18L477.05,469.625z M498.65,475.7v4.05h-16.2v-4.05H498.65z
		 M500,490.55v5.477v3.336v22.875v3.333v11.354c-3.114,0.596-6.279,0.889-9.45,0.875c-8.524,0-28.35-2.111-28.35-21.674
		c0-12.916,7.741-28.986,20.701-33.676h15.308c3.818,1.449,7.252,3.759,10.034,6.75h-6.893C500.604,489.2,500,489.804,500,490.55z
		 M537.8,537.8h-35.1v-35.1h35.1V537.8z M537.8,500h-35.1v-8.1h35.1V500z"/>
</g>
</svg>
