<?xml version="1.0" encoding="utf-8"?>
<!-- Generator: Adobe Illustrator 16.0.0, SVG Export Plug-In . SVG Version: 6.00 Build 0)  -->
<!DOCTYPE svg PUBLIC "-//W3C//DTD SVG 1.1//EN" "http://www.w3.org/Graphics/SVG/1.1/DTD/svg11.dtd">
<svg version="1.1" id="Layer_2" xmlns="http://www.w3.org/2000/svg" xmlns:xlink="http://www.w3.org/1999/xlink" x="0px" y="0px"
	 width="127px" height="116px" viewBox="0 0 127 116" enable-background="new 0 0 127 116" xml:space="preserve">
<g>
	<path fill="#F1F6FB" d="M94.016,0.497L8.622,26.241c-6.171,1.859-9.654,8.408-7.78,14.625L18.416,99.16
		c1.873,6.217,8.396,9.748,14.567,7.887L84.221,91.6l27.697,14.867l-6.416-21.281l12.875-3.883c6.172-1.859,9.655-8.41,7.781-14.625
		L108.584,8.383C106.711,2.167,100.187-1.364,94.016,0.497z"/>
	<path fill="none" stroke="#0065E1" stroke-width="3" stroke-miterlimit="10" d="M105.599,20.687H29.513
		c-5.499,0-9.957,4.491-9.957,10.029v51.942c0,5.537,4.458,10.029,9.957,10.029h45.652l18.962,18.961V92.688h11.472
		c5.499,0,9.957-4.492,9.957-10.029V30.716C115.556,25.178,111.098,20.687,105.599,20.687z"/>
	<g>
		<path fill="#06AEEE" d="M59.109,62.244c-7.818,0-14.178-6.361-14.178-14.178c0-7.818,6.36-14.178,14.178-14.178
			c6.685,0,12.414,4.633,13.842,11.098c1.107,0.213,2.48,0.164,3.551-0.875c0.275-0.266,0.691-0.327,1.031-0.15
			c0.339,0.178,0.527,0.553,0.467,0.931c-0.594,3.683-3.376,5.843-5.207,6.89c-0.783,2.887-2.494,5.494-4.848,7.372
			C65.412,61.174,62.356,62.244,59.109,62.244z M59.109,35.667c-6.837,0-12.399,5.562-12.399,12.399
			c0,6.837,5.563,12.399,12.399,12.399c5.752,0,10.709-3.901,12.054-9.485c0.06-0.248,0.222-0.457,0.446-0.577
			c1.152-0.613,2.941-1.817,3.955-3.755c-1.082,0.309-2.309,0.291-3.611-0.071c-0.329-0.091-0.578-0.364-0.637-0.7
			C70.262,39.96,65.129,35.667,59.109,35.667z"/>
		<path fill="#06AEEE" d="M79.033,79.416c-2.58,0-5.109-0.885-7.121-2.49c-1.877-1.498-3.247-3.57-3.888-5.869
			c-1.482-0.859-3.677-2.605-4.153-5.555c-0.061-0.379,0.128-0.754,0.468-0.93c0.34-0.178,0.755-0.117,1.03,0.15
			c0.756,0.732,1.726,0.799,2.535,0.666c1.195-5.148,5.783-8.825,11.129-8.825c6.301,0,11.427,5.125,11.427,11.426
			S85.334,79.416,79.033,79.416z M66.355,67.143c0.802,1.285,2.035,2.104,2.852,2.539c0.225,0.119,0.387,0.328,0.447,0.576
			c1.046,4.346,4.903,7.381,9.379,7.381c5.32,0,9.648-4.328,9.648-9.648s-4.328-9.649-9.648-9.649c-4.684,0-8.678,3.342-9.498,7.944
			c-0.06,0.338-0.309,0.611-0.638,0.701C67.996,67.236,67.137,67.287,66.355,67.143z"/>
		<path fill="#06AEEE" d="M75.254,68.924c-0.233,0-0.463-0.096-0.629-0.26c-0.165-0.166-0.26-0.396-0.26-0.629
			c0-0.234,0.095-0.463,0.26-0.629c0.166-0.166,0.396-0.262,0.629-0.262c0.234,0,0.464,0.096,0.629,0.262
			c0.166,0.166,0.261,0.395,0.261,0.629c0,0.232-0.095,0.463-0.261,0.629C75.718,68.828,75.488,68.924,75.254,68.924z"/>
		<path fill="#06AEEE" d="M79.078,68.924c-0.234,0-0.463-0.096-0.629-0.26c-0.166-0.166-0.261-0.396-0.261-0.629
			c0-0.234,0.095-0.463,0.261-0.629s0.395-0.262,0.629-0.262c0.233,0,0.463,0.096,0.629,0.262c0.165,0.166,0.26,0.395,0.26,0.629
			c0,0.232-0.095,0.463-0.26,0.629C79.541,68.828,79.312,68.924,79.078,68.924z"/>
		<path fill="#06AEEE" d="M82.901,68.924c-0.234,0-0.463-0.096-0.628-0.26c-0.166-0.166-0.262-0.396-0.262-0.629
			c0-0.234,0.096-0.463,0.262-0.629c0.165-0.166,0.394-0.262,0.628-0.262c0.233,0,0.464,0.096,0.629,0.262s0.261,0.395,0.261,0.629
			c0,0.232-0.096,0.463-0.261,0.629C83.365,68.828,83.135,68.924,82.901,68.924z"/>
		<path fill="#06AEEE" d="M64.599,46.782H52.668c-0.491,0-0.889-0.397-0.889-0.89c0-0.49,0.398-0.889,0.889-0.889h11.931
			c0.491,0,0.89,0.398,0.89,0.889C65.488,46.384,65.09,46.782,64.599,46.782z"/>
		<path fill="#06AEEE" d="M60.582,51.05h-7.914c-0.491,0-0.889-0.398-0.889-0.889c0-0.492,0.398-0.891,0.889-0.891h7.914
			c0.491,0,0.889,0.398,0.889,0.891C61.471,50.652,61.073,51.05,60.582,51.05z"/>
		<path fill="#06AEEE" d="M64.6,51.05c-0.234,0-0.464-0.096-0.631-0.261c-0.165-0.165-0.26-0.395-0.26-0.628
			c0-0.234,0.095-0.465,0.26-0.629c0.167-0.166,0.396-0.262,0.631-0.262c0.232,0,0.462,0.096,0.627,0.262
			c0.166,0.164,0.262,0.395,0.262,0.629c0,0.233-0.096,0.463-0.262,0.628C65.062,50.955,64.832,51.05,64.6,51.05z"/>
	</g>
</g>
</svg>
