<?xml version="1.0" encoding="utf-8"?>
<!-- Generator: Adobe Illustrator 16.0.0, SVG Export Plug-In . SVG Version: 6.00 Build 0)  -->
<!DOCTYPE svg PUBLIC "-//W3C//DTD SVG 1.1//EN" "http://www.w3.org/Graphics/SVG/1.1/DTD/svg11.dtd">
<svg version="1.1" id="Layer_2" xmlns="http://www.w3.org/2000/svg" xmlns:xlink="http://www.w3.org/1999/xlink" x="0px" y="0px"
	 width="127px" height="116px" viewBox="0 0 127 116" enable-background="new 0 0 127 116" xml:space="preserve">
<g>
	<path fill="#F1F6FB" d="M94.016,0.497L8.622,26.241c-6.171,1.859-9.654,8.408-7.78,14.625L18.416,99.16
		c1.873,6.217,8.396,9.748,14.567,7.887L84.221,91.6l27.697,14.867l-6.416-21.281l12.875-3.883c6.172-1.859,9.655-8.41,7.781-14.625
		L108.584,8.383C106.711,2.167,100.187-1.364,94.016,0.497z"/>
	<path fill="none" stroke="#0065E1" stroke-width="3" stroke-miterlimit="10" d="M105.599,20.687H29.513
		c-5.499,0-9.957,4.491-9.957,10.029v51.942c0,5.537,4.458,10.029,9.957,10.029h45.652l18.962,18.961V92.688h11.472
		c5.499,0,9.957-4.492,9.957-10.029V30.716C115.556,25.178,111.098,20.687,105.599,20.687z"/>
	<g>
		<g>
			<g>
				<g>
					<path fill="#06AEEE" d="M82.851,49.795c-0.358-0.359-0.94-0.359-1.3,0c-0.359,0.358-0.359,0.94,0,1.3
						c0.014,0.015,0.028,0.028,0.043,0.043c0.178,0.167,0.403,0.247,0.628,0.247c0.245,0,0.491-0.098,0.673-0.29
						C83.242,50.725,83.222,50.143,82.851,49.795z"/>
				</g>
			</g>
			<g>
				<g>
					<path fill="#06AEEE" d="M80.983,48.285c-0.527-0.357-1.068-0.677-1.606-0.948c-3.054-1.536-6.288-1.845-9.355-0.893
						c-0.486,0.151-0.758,0.667-0.606,1.151c0.15,0.485,0.667,0.757,1.15,0.606c2.604-0.809,5.364-0.541,7.983,0.778
						c0.461,0.233,0.945,0.518,1.401,0.826c0.157,0.108,0.337,0.159,0.516,0.159c0.294,0,0.583-0.141,0.762-0.403
						C81.512,49.141,81.402,48.569,80.983,48.285z"/>
				</g>
			</g>
			<g>
				<g>
					<path fill="#06AEEE" d="M89.352,60.188c-0.377-0.791-1.002-2.101-1.014-2.535c1.076-2.65,0.685-5.585-1.107-8.269
						c-2.756-4.128-8.402-7.123-13.428-7.123c-2.656,0-5.25,0.633-7.583,1.843c-0.67-3.669-3.887-6.459-7.746-6.459
						c-4.343,0-7.874,3.533-7.874,7.875c0,2.762,1.408,5.275,3.766,6.719c0.68,0.417,0.834,0.776,0.888,1.367v3.141v2.241
						c0,1.028,0.835,1.864,1.862,1.864h0.313c0.505,4.025,2.454,7.682,5.548,10.373c0.028,0.09,0.113,0.516-0.252,1.789
						c-0.284,0.988-0.721,2.088-1.107,3.059c-0.257,0.648-0.48,1.211-0.615,1.635c-0.089,0.279-0.039,0.584,0.135,0.822
						c0.173,0.236,0.449,0.377,0.742,0.377H75.01c0.432,0,1.024-0.195,1.396-1.115c0.163-0.4,0.27-0.881,0.381-1.393
						c0.109-0.496,0.365-1.662,0.621-1.803c0,0,0.015,0,0.05,0.004c0.048,0.008,0.097,0.012,0.144,0.012
						c1.376,0,2.499,0.063,3.49,0.117c2.908,0.16,4.663,0.258,6.202-1.961c0.782-1.125,0.695-2.771,0.601-4.514
						c-0.049-0.896-0.098-1.824-0.011-2.594c0.161-0.158,0.563-0.434,0.815-0.607c0.867-0.596,1.687-1.156,1.687-2.012
						C90.386,62.393,89.992,61.533,89.352,60.188z M55.326,50.67c-1.807-1.107-2.888-3.032-2.888-5.15
						c0-3.327,2.707-6.036,6.035-6.036c3.329,0,6.036,2.709,6.036,6.036c0,2.118-1.079,4.043-2.889,5.15
						c-0.857,0.527-1.369,1.141-1.61,1.971h-1.537h-1.535C56.696,51.811,56.186,51.198,55.326,50.67z M59.855,54.481v1.346h-2.762
						v-1.346H59.855L59.855,54.481z M57.115,59.01c-0.01,0-0.021-0.012-0.021-0.022v-1.321h2.762v1.321
						c0,0.01-0.013,0.022-0.022,0.022H57.115z M87.658,63.537c-0.791,0.545-1.476,1.012-1.577,1.723
						c-0.138,0.975-0.079,2.053-0.023,3.096c0.069,1.291,0.148,2.756-0.275,3.363c-0.914,1.32-1.706,1.332-4.588,1.174
						c-0.951-0.053-2.131-0.119-3.53-0.121c-0.537-0.063-1.447,0.037-2.054,1.217c-0.308,0.6-0.474,1.352-0.619,2.014
						c-0.073,0.336-0.177,0.805-0.272,1.063H63.203c0.041-0.1,0.082-0.205,0.124-0.313c1.326-3.336,2.165-5.785,0.888-6.889
						c-2.707-2.342-4.434-5.514-4.93-9.012h0.548c1.027,0,1.861-0.836,1.861-1.864v-2.241v-3.14c0.055-0.591,0.209-0.951,0.89-1.368
						c2.177-1.333,3.543-3.578,3.74-6.089c2.258-1.343,4.832-2.05,7.479-2.05c4.383,0,9.498,2.711,11.897,6.306
						c1.028,1.54,2.021,3.937,0.914,6.606c-0.362,0.868,0.174,2.074,1.076,3.966c0.293,0.613,0.716,1.502,0.827,1.916
						C88.328,63.076,87.92,63.357,87.658,63.537z"/>
				</g>
			</g>
			<g>
				<g>
					<path fill="#06AEEE" d="M62.986,44.22c-0.271-1.008-0.947-1.813-1.952-2.332c-0.451-0.233-1.006-0.057-1.24,0.396
						c-0.233,0.451-0.055,1.006,0.396,1.238c0.549,0.283,0.884,0.668,1.021,1.176c0.217,0.804-0.112,1.675-0.256,1.9
						c-0.273,0.43-0.146,0.999,0.281,1.271c0.154,0.1,0.325,0.145,0.493,0.145c0.305,0,0.602-0.148,0.777-0.425
						C62.898,46.974,63.35,45.569,62.986,44.22z"/>
				</g>
			</g>
			<g>
				<g>
					<path fill="#06AEEE" d="M58.474,31.807c-0.508,0-0.919,0.412-0.919,0.92v2.623c0,0.508,0.411,0.92,0.919,0.92
						c0.509,0,0.921-0.412,0.921-0.92v-2.623C59.395,32.219,58.982,31.807,58.474,31.807z"/>
				</g>
			</g>
			<g>
				<g>
					<path fill="#06AEEE" d="M48.268,44.637h-2.622c-0.508,0-0.92,0.412-0.92,0.919c0,0.509,0.412,0.921,0.92,0.921h2.622
						c0.509,0,0.921-0.412,0.921-0.921C49.188,45.049,48.776,44.637,48.268,44.637z"/>
				</g>
			</g>
			<g>
				<g>
					<path fill="#06AEEE" d="M54.167,36.256l-1.311-2.27c-0.254-0.439-0.817-0.591-1.257-0.338
						c-0.439,0.254-0.591,0.816-0.336,1.258l1.31,2.27c0.171,0.295,0.48,0.46,0.798,0.46c0.156,0,0.314-0.039,0.46-0.124
						C54.271,37.258,54.422,36.697,54.167,36.256z"/>
				</g>
			</g>
			<g>
				<g>
					<path fill="#06AEEE" d="M50.094,39.657l-2.271-1.313c-0.439-0.252-1.001-0.102-1.256,0.338
						c-0.254,0.439-0.104,1.003,0.337,1.258l2.27,1.311c0.146,0.083,0.304,0.123,0.46,0.123c0.317,0,0.626-0.165,0.798-0.46
						C50.685,40.474,50.533,39.911,50.094,39.657z"/>
				</g>
			</g>
			<g>
				<g>
					<path fill="#06AEEE" d="M70.382,38.682c-0.254-0.439-0.817-0.59-1.257-0.338l-2.271,1.313
						c-0.439,0.254-0.591,0.816-0.336,1.257c0.171,0.295,0.479,0.46,0.797,0.46c0.155,0,0.315-0.04,0.46-0.123l2.271-1.311
						C70.485,39.684,70.637,39.122,70.382,38.682z"/>
				</g>
			</g>
			<g>
				<g>
					<path fill="#06AEEE" d="M50.432,50.2c-0.255-0.439-0.816-0.59-1.256-0.337l-2.271,1.312c-0.44,0.254-0.591,0.816-0.337,1.258
						c0.17,0.294,0.48,0.459,0.798,0.459c0.155,0,0.314-0.04,0.458-0.123l2.271-1.311C50.535,51.204,50.686,50.64,50.432,50.2z"/>
				</g>
			</g>
			<g>
				<g>
					<path fill="#06AEEE" d="M53.642,53.927c-0.44-0.255-1.003-0.104-1.256,0.338l-1.122,1.942
						c-0.255,0.439-0.104,1.003,0.336,1.256c0.145,0.083,0.303,0.123,0.46,0.123c0.317,0,0.626-0.165,0.797-0.459l1.122-1.943
						C54.231,54.745,54.082,54.182,53.642,53.927z"/>
				</g>
			</g>
			<g>
				<g>
					<path fill="#06AEEE" d="M65.349,33.649c-0.439-0.253-1.001-0.102-1.256,0.338l-1.312,2.27c-0.253,0.44-0.104,1.002,0.338,1.256
						c0.145,0.085,0.303,0.124,0.458,0.124c0.319,0,0.628-0.165,0.798-0.46l1.312-2.27C65.939,34.465,65.79,33.903,65.349,33.649z"
						/>
				</g>
			</g>
		</g>
	</g>
</g>
</svg>
