<?xml version="1.0" encoding="utf-8"?>
<!-- Generator: Adobe Illustrator 16.0.0, SVG Export Plug-In . SVG Version: 6.00 Build 0)  -->
<!DOCTYPE svg PUBLIC "-//W3C//DTD SVG 1.1//EN" "http://www.w3.org/Graphics/SVG/1.1/DTD/svg11.dtd">
<svg version="1.1" id="Layer_2" xmlns="http://www.w3.org/2000/svg" xmlns:xlink="http://www.w3.org/1999/xlink" x="0px" y="0px"
	 width="127px" height="116px" viewBox="0 0 127 116" enable-background="new 0 0 127 116" xml:space="preserve">
<g>
	<path fill="#F1F6FB" d="M94.016,0.619L8.622,26.363c-6.171,1.859-9.654,8.408-7.78,14.625l17.574,58.295
		c1.873,6.216,8.396,9.747,14.567,7.887l51.237-15.447l27.697,14.866l-6.416-21.281l12.875-3.882
		c6.172-1.86,9.655-8.41,7.781-14.625L108.584,8.506C106.711,2.29,100.187-1.241,94.016,0.619z"/>
	<path fill="none" stroke="#0065E1" stroke-width="3" stroke-miterlimit="10" d="M105.599,20.81H29.513
		c-5.499,0-9.957,4.491-9.957,10.029V82.78c0,5.538,4.458,10.029,9.957,10.029h45.652l18.962,18.962V92.81h11.472
		c5.499,0,9.957-4.491,9.957-10.029V30.839C115.556,25.301,111.098,20.81,105.599,20.81z"/>
	<g>
		<g>
			<g>
				<path fill="#06AEEE" d="M86.241,56.185l-5.181-8.001c-0.402-0.62-1.082-0.989-1.82-0.989H56.379
					c-0.738,0-1.418,0.369-1.82,0.987l-5.196,8.002c-0.531,0.818-0.45,1.897,0.198,2.625L66.18,77.465
					c0.41,0.463,1.002,0.729,1.62,0.729l0,0c0.618,0,1.21-0.266,1.62-0.729l16.621-18.656
					C86.688,58.081,86.771,57.002,86.241,56.185z M78.189,49.053l-4.357,6.739l-4.359-6.739H78.189z M72.122,56.574h-8.644
					l4.321-6.681L72.122,56.574z M66.127,49.054l-4.347,6.721l-4.348-6.721H66.127z M55.713,49.82l4.37,6.754h-8.757L55.713,49.82z
					 M51.719,58.435h9.361l4.95,16.066L51.719,58.435z M67.8,73.927l-4.772-15.492h9.545L67.8,73.927z M69.568,74.501l4.95-16.066
					h9.362L69.568,74.501z M75.542,56.574l4.364-6.75l4.371,6.75H75.542z"/>
			</g>
		</g>
		<g>
			<g>
				<path fill="#06AEEE" d="M46.811,56.574h-1.892c-0.514,0-0.93,0.417-0.93,0.929c0,0.516,0.417,0.932,0.93,0.932h1.892
					c0.513,0,0.93-0.416,0.93-0.932C47.74,56.991,47.323,56.574,46.811,56.574z"/>
			</g>
		</g>
		<g>
			<g>
				<path fill="#06AEEE" d="M90.683,56.574h-1.891c-0.515,0-0.931,0.417-0.931,0.929c0,0.516,0.416,0.932,0.931,0.932h1.891
					c0.514,0,0.93-0.416,0.93-0.932C91.612,56.991,91.196,56.574,90.683,56.574z"/>
			</g>
		</g>
		<g>
			<g>
				<path fill="#06AEEE" d="M84.65,40.672c-0.363-0.362-0.952-0.362-1.316,0l-3.09,3.09c-0.362,0.362-0.362,0.952,0,1.315
					c0.182,0.182,0.42,0.271,0.658,0.271s0.477-0.09,0.658-0.271l3.09-3.091C85.014,41.625,85.014,41.036,84.65,40.672z"/>
			</g>
		</g>
		<g>
			<g>
				<path fill="#06AEEE" d="M55.396,43.745l-3.089-3.09c-0.364-0.363-0.952-0.363-1.315,0c-0.363,0.364-0.363,0.952,0,1.315
					l3.089,3.091c0.182,0.18,0.42,0.271,0.658,0.271c0.237,0,0.476-0.092,0.657-0.271C55.76,44.698,55.76,44.108,55.396,43.745z"/>
			</g>
		</g>
		<g>
			<g>
				<path fill="#06AEEE" d="M67.824,33.692c-0.514,0-0.93,0.417-0.93,0.93v6.063c0,0.514,0.416,0.93,0.93,0.93
					s0.931-0.416,0.931-0.93v-6.063C68.755,34.109,68.338,33.692,67.824,33.692z"/>
			</g>
		</g>
		<g>
			<g>
				<path fill="#06AEEE" d="M68.482,43.173c-0.174-0.172-0.414-0.271-0.658-0.271c-0.245,0-0.484,0.1-0.658,0.271
					c-0.173,0.173-0.272,0.414-0.272,0.659c0,0.244,0.1,0.483,0.272,0.656c0.174,0.175,0.413,0.273,0.658,0.273
					c0.244,0,0.484-0.099,0.658-0.273c0.173-0.173,0.271-0.413,0.271-0.656C68.754,43.587,68.655,43.346,68.482,43.173z"/>
			</g>
		</g>
	</g>
</g>
</svg>
